<svg width="36" height="22" viewBox="0 0 36 22" fill="none" xmlns="http://www.w3.org/2000/svg">
    <rect width="36" height="22" rx="4" fill="#DEFDFF"/>
    <path d="M7.83149 15L8.53591 12.8992H11.7348L12.4392 15H14.0677L11.076 6.51381H9.19475L6.20304 15H7.83149ZM8.95028 11.6727L10.1022 8.24586H10.1685L11.3204 11.6727H8.95028ZM20.1074 9.37707H21.6488C21.3836 7.48757 19.9375 6.39779 18.0604 6.39779C15.8436 6.39779 14.1778 8.01381 14.1778 10.7569C14.1778 13.4917 15.8228 15.116 18.0604 15.116C20.0742 15.116 21.4168 13.8149 21.6488 12.1948L20.1074 12.1865C19.9085 13.1809 19.0963 13.7445 18.0811 13.7445C16.7013 13.7445 15.7151 12.7086 15.7151 10.7569C15.7151 8.8384 16.693 7.76934 18.0853 7.76934C19.117 7.76934 19.9333 8.35773 20.1074 9.37707ZM22.2882 7.79834H24.9152V15H26.4318V7.79834H29.0506V6.51381H22.2882V7.79834Z" fill="#16C5D0"/>
</svg>
