<svg width="38" height="18" viewBox="0 0 38 18" fill="none" xmlns="http://www.w3.org/2000/svg">
    <rect width="38" height="18" rx="9" fill="#0AC35C"/>
    <path d="M13.6623 5.0442H12.5677V13.8633H13.6623V5.0442ZM6.35221 11.4358L6.92196 12.3059C10.009 10.8384 11.0276 8.60773 11.0311 5.97997H6.8011V6.83978H9.92611C9.73273 8.84945 8.66229 10.3377 6.35221 11.4358ZM22.7955 10.1789H14.7257V11.0387H18.1995V13.8633H19.2734V11.0387H22.7955V10.1789ZM15.7029 9.25691H21.8114V5.39296H20.7237V6.47721H16.7734V5.39296H15.7029V9.25691ZM16.7734 8.38329V7.33356H20.7237V8.38329H16.7734ZM31.2208 9.09116H23.1787V9.96823H26.6559V10.7141C25.0537 10.8108 24.1144 11.3598 24.1144 12.2818C24.1144 13.2935 25.2643 13.8598 27.1876 13.8564C29.0903 13.8598 30.2436 13.2935 30.247 12.2818C30.2436 11.3633 29.3078 10.8177 27.7332 10.7175V9.96823H31.2208V9.09116ZM23.5654 7.83425L23.9349 8.69061C25.5405 8.52831 26.7146 7.8895 27.1911 6.99517C27.6711 7.89296 28.8589 8.52831 30.4611 8.69061L30.8444 7.83425C29.1835 7.68232 28.1338 7.02624 27.9577 6.29765H30.4991V5.43094H23.9142V6.29765H26.4349C26.2519 7.02279 25.1883 7.68232 23.5654 7.83425ZM25.2194 12.2818C25.2125 11.788 25.9066 11.5325 27.1876 11.5256C28.4549 11.5325 29.1559 11.788 29.1628 12.2818C29.1559 12.7652 28.4549 13.0345 27.1876 13.0276C25.9066 13.0345 25.2125 12.7652 25.2194 12.2818Z" fill="white"/>
</svg>
