<svg width="61" height="24" viewBox="0 0 61 24" fill="none" xmlns="http://www.w3.org/2000/svg">
    <rect width="61" height="24" rx="12" fill="#E3F2FF"/>
    <path d="M19.2942 12.7422H18.3684V10.0117H16.2708V9.25H18.3684V6.53125H19.2942V12.7422ZM10.7044 11.9102C11.2161 11.7266 11.6712 11.457 12.0696 11.1016C12.472 10.7461 12.7864 10.3379 13.013 9.87695C13.2395 9.41602 13.3528 8.94141 13.3528 8.45312V8.06641H10.9973V7.29297H16.6106V8.06641H14.2786V8.44141C14.2786 8.89062 14.386 9.32617 14.6009 9.74805C14.8157 10.1699 15.1184 10.5449 15.5091 10.873C15.8997 11.1973 16.345 11.4453 16.845 11.6172L16.3645 12.3555C15.7864 12.1445 15.2766 11.832 14.8352 11.418C14.3977 11.0039 14.0657 10.5254 13.8391 9.98242C13.6165 10.5918 13.2727 11.1289 12.8079 11.5938C12.347 12.0586 11.8059 12.4102 11.1848 12.6484L10.7044 11.9102ZM12.345 15.0039C12.345 14.5977 12.4837 14.25 12.761 13.9609C13.0423 13.6719 13.4446 13.4512 13.968 13.2988C14.4954 13.1465 15.1184 13.0703 15.8372 13.0703C16.5559 13.0703 17.177 13.1465 17.7005 13.2988C18.2239 13.4512 18.6263 13.6719 18.9075 13.9609C19.1888 14.25 19.3294 14.5977 19.3294 15.0039C19.3294 15.4102 19.1888 15.7578 18.9075 16.0469C18.6263 16.3359 18.2239 16.5566 17.7005 16.709C17.177 16.8652 16.5559 16.9453 15.8372 16.9492C15.1145 16.9453 14.4915 16.8652 13.968 16.709C13.4446 16.5566 13.0423 16.3359 12.761 16.0469C12.4837 15.7578 12.345 15.4102 12.345 15.0039ZM13.2591 15.0039C13.2591 15.25 13.3606 15.4648 13.5638 15.6484C13.7669 15.8281 14.0598 15.9668 14.4427 16.0645C14.8294 16.1621 15.2845 16.2109 15.8079 16.2109C16.343 16.2109 16.8059 16.1621 17.1966 16.0645C17.5872 15.9707 17.888 15.834 18.0989 15.6543C18.3098 15.4707 18.4153 15.2539 18.4153 15.0039C18.4153 14.7539 18.3118 14.5371 18.1048 14.3535C17.8977 14.1699 17.5989 14.0293 17.2083 13.9316C16.8216 13.834 16.3645 13.7852 15.8372 13.7852C15.3059 13.7852 14.847 13.834 14.4602 13.9316C14.0735 14.0293 13.7766 14.1699 13.5696 14.3535C13.3626 14.5371 13.2591 14.7539 13.2591 15.0039ZM29.4019 16.9492H28.4761V6.53125H29.4019V16.9492ZM20.9175 14.2422C22.3081 13.582 23.3726 12.7617 24.1109 11.7812C24.853 10.8008 25.2769 9.67969 25.3823 8.41797H21.398V7.66797H26.3198C26.312 9.23828 25.9136 10.6504 25.1245 11.9043C24.3355 13.1582 23.1011 14.1875 21.4214 14.9922L20.9175 14.2422ZM39.8611 8.48828H31.4119V7.72656H35.2088V6.47266H36.1111V7.72656H39.8611V8.48828ZM30.9197 13.2812H40.4588V14.043H36.1111V16.9727H35.2088V14.043H30.9197V13.2812ZM32.2673 10.832C32.2634 10.4609 32.3963 10.1445 32.6658 9.88281C32.9353 9.62109 33.324 9.42383 33.8318 9.29102C34.3435 9.1543 34.9548 9.08594 35.6658 9.08594C36.3689 9.08594 36.9744 9.1543 37.4822 9.29102C37.9939 9.42383 38.3845 9.62109 38.6541 9.88281C38.9275 10.1445 39.0642 10.4609 39.0642 10.832C39.0642 11.1953 38.9275 11.5059 38.6541 11.7637C38.3845 12.0215 37.9939 12.2188 37.4822 12.3555C36.9744 12.4922 36.3689 12.5625 35.6658 12.5664C34.9548 12.5625 34.3435 12.4922 33.8318 12.3555C33.324 12.2188 32.9353 12.0215 32.6658 11.7637C32.3963 11.5059 32.2634 11.1953 32.2673 10.832ZM33.2166 10.832C33.2127 11.043 33.3045 11.2246 33.492 11.377C33.6834 11.5293 33.9607 11.6465 34.324 11.7285C34.6873 11.8105 35.1228 11.8516 35.6306 11.8516C36.4119 11.8516 37.0193 11.7637 37.4529 11.5879C37.8904 11.4082 38.1111 11.1562 38.115 10.832C38.1111 10.5039 37.8943 10.25 37.4646 10.0703C37.0349 9.88672 36.4353 9.79297 35.6658 9.78906C34.8884 9.79297 34.2849 9.88672 33.8552 10.0703C33.4255 10.25 33.2127 10.5039 33.2166 10.832ZM49.6406 14.4531H48.7148V13.375H46.5586V12.707H48.7148V6.54297H49.6406V14.4531ZM40.9922 11.3711C42.3867 11.3633 43.6211 11.3418 44.6953 11.3066C45.7695 11.2676 46.7969 11.1875 47.7773 11.0664L47.8359 11.7344C46.9883 11.8672 46.0352 11.9668 44.9766 12.0332V14.0898H44.0508V12.0801C43.3477 12.1074 42.3711 12.1211 41.1211 12.1211L40.9922 11.3711ZM41.8359 8.78125C41.8359 8.42188 41.9434 8.10547 42.1582 7.83203C42.373 7.55469 42.6758 7.3418 43.0664 7.19336C43.457 7.04102 43.9063 6.96484 44.4141 6.96484C44.918 6.96484 45.3652 7.04102 45.7559 7.19336C46.1465 7.3418 46.4492 7.55469 46.6641 7.83203C46.8828 8.10547 46.9922 8.42188 46.9922 8.78125C46.9922 9.14844 46.8828 9.46875 46.6641 9.74219C46.4492 10.0117 46.1465 10.2207 45.7559 10.3691C45.3691 10.5137 44.9219 10.5859 44.4141 10.5859C43.9023 10.5859 43.4512 10.5137 43.0605 10.3691C42.6699 10.2207 42.3672 10.0117 42.1523 9.74219C41.9414 9.46875 41.8359 9.14844 41.8359 8.78125ZM42.4922 13.6797H43.418V15.9531H49.8984V16.7266H42.4922V13.6797ZM42.7148 8.78125C42.7109 9.00391 42.7793 9.20117 42.9199 9.37305C43.0605 9.54102 43.2598 9.67188 43.5176 9.76562C43.7793 9.85938 44.0781 9.90625 44.4141 9.90625C44.7422 9.90625 45.0332 9.85938 45.2871 9.76562C45.5449 9.67188 45.7461 9.54102 45.8906 9.37305C46.0391 9.20117 46.1133 9.00391 46.1133 8.78125C46.1133 8.5625 46.0391 8.36914 45.8906 8.20117C45.7461 8.0293 45.5449 7.89648 45.2871 7.80273C45.0332 7.70898 44.7422 7.66406 44.4141 7.66797C44.0781 7.66406 43.7813 7.70898 43.5234 7.80273C43.2656 7.89648 43.0645 8.0293 42.9199 8.20117C42.7793 8.36914 42.7109 8.5625 42.7148 8.78125Z" fill="#15A7D6"/>
</svg>
