<svg width="61" height="24" viewBox="0 0 61 24" fill="none" xmlns="http://www.w3.org/2000/svg">
    <rect width="61" height="24" rx="12" fill="#FFE3F9"/>
    <path d="M13.6106 6.91797C12.0345 6.92383 10.8977 7.87305 10.9036 9.22656C10.8977 10.5859 12.0345 11.5234 13.6106 11.5234C15.1692 11.5234 16.3001 10.5859 16.3059 9.22656C16.3001 7.87305 15.1692 6.92383 13.6106 6.91797ZM11.8059 9.22656C11.7942 8.32422 12.5618 7.68555 13.6106 7.69141C14.6419 7.68555 15.4153 8.32422 15.4153 9.22656C15.4153 10.1406 14.6419 10.7734 13.6106 10.7734C12.5618 10.7734 11.7942 10.1406 11.8059 9.22656ZM12.4856 13.1289H18.345V14.207H12.5091V16.8086H19.6341V16.0703H13.4114V14.8984H19.2591V12.3906H12.4856V13.1289ZM18.345 11.8867H19.2591V6.53125H18.345V11.8867ZM24.4917 9.33203V7.43359H23.5777V9.33203C23.5659 11.3066 22.2827 13.2988 20.73 14.0078L21.3159 14.7812C22.5347 14.166 23.5601 12.8477 24.0405 11.2773C24.5386 12.7598 25.564 13.9961 26.7534 14.5703L27.3159 13.8438C25.7808 13.1465 24.4859 11.2363 24.4917 9.33203ZM28.4527 16.9727H29.3784V6.53125H28.4527V16.9727ZM39.8611 7.72656H36.1111V6.47266H35.2088V7.72656H31.4119V8.48828H39.8611V7.72656ZM30.9197 14.043H35.2088V16.9727H36.1111V14.043H40.4588V13.2812H30.9197V14.043ZM32.2673 10.832C32.2556 11.9336 33.533 12.5547 35.6658 12.5664C37.781 12.5547 39.0584 11.9336 39.0642 10.832C39.0584 9.70703 37.781 9.08594 35.6658 9.08594C33.533 9.08594 32.2556 9.70703 32.2673 10.832ZM33.2166 10.832C33.2048 10.1758 34.113 9.79492 35.6658 9.78906C37.2009 9.79492 38.1033 10.1758 38.115 10.832C38.1033 11.4766 37.2009 11.8574 35.6658 11.8516C34.113 11.8574 33.2048 11.4766 33.2166 10.832ZM49.6406 6.54297H48.7148V12.707H46.5586V13.375H48.7148V14.4531H49.6406V6.54297ZM40.9922 11.3711L41.1211 12.1211C41.9941 12.1211 42.9961 12.1211 44.0508 12.0801V14.0898H44.9766V12.0332C45.9316 11.9746 46.9102 11.8809 47.8359 11.7344L47.7773 11.0664C45.5449 11.3418 42.9316 11.3594 40.9922 11.3711ZM41.8359 8.78125C41.8301 9.89453 42.873 10.5859 44.4141 10.5859C45.9434 10.5859 46.9863 9.89453 46.9922 8.78125C46.9863 7.68555 45.9434 6.96484 44.4141 6.96484C42.873 6.96484 41.8301 7.68555 41.8359 8.78125ZM42.4922 16.7266H49.8984V15.9531H43.418V13.6797H42.4922V16.7266ZM42.7148 8.78125C42.7031 8.11328 43.3945 7.65625 44.4141 7.66797C45.4043 7.65625 46.1074 8.11328 46.1133 8.78125C46.1074 9.46094 45.4043 9.90039 44.4141 9.90625C43.3945 9.90039 42.7031 9.46094 42.7148 8.78125Z" fill="#FF46D6"/>
</svg>
