<svg width="156" height="40" viewBox="0 0 156 40" fill="none" xmlns="http://www.w3.org/2000/svg">
    <path d="M113.672 13.8301V20.9591L109.132 13.8301H105.966V25.3083H109.136V18.1792L113.672 25.3083H116.841V13.8301H113.672Z" fill="#69C7E9"/>
    <path d="M119.119 25.3083V13.8301H127.952V16.2699H122.239V18.3847H127.075V20.8246H122.239V25.3083H119.119Z" fill="#69C7E9"/>
    <path d="M136.493 20.7913V25.3085H133.593V20.7913H129.986V18.3477H140.1V20.7913H136.493Z" fill="#69C7E9"/>
    <path d="M133.593 18.3474V13.8301H136.493V18.3474H140.1V20.791H129.986V18.3474H133.593Z" fill="#69C7E9"/>
    <path d="M72.8589 27.1766C72.8589 27.5727 72.8065 27.9201 72.7016 28.2228C72.5967 28.5254 72.4356 28.7795 72.2146 28.9887C72.0048 29.1756 71.7501 29.325 71.4467 29.4334C71.1432 29.5417 70.8061 29.5978 70.4315 29.5978H68.7383V27.539C68.9368 27.539 69.6561 27.5241 69.8284 27.4905C70.0007 27.4568 70.1393 27.3933 70.2479 27.2924C70.3453 27.214 70.4202 27.1318 70.4689 27.0384C70.5176 26.9449 70.5439 26.7955 70.5439 26.5862V16.9912H72.8552V27.1766H72.8589Z" fill="#69C7E9"/>
    <path d="M59.5081 19.4762C59.7516 18.9381 60.085 18.4748 60.5158 18.0825C60.9353 17.679 61.4298 17.3614 62.0029 17.1297C62.5761 16.8981 63.1867 16.7822 63.8385 16.7822C64.4753 16.7822 65.0822 16.8981 65.6553 17.1297C66.2285 17.3614 66.7229 17.679 67.1425 18.0825C67.5733 18.4748 67.9104 18.9419 68.1577 19.4762C68.4049 20.0142 68.5285 20.5821 68.5285 21.1837C68.5285 21.7927 68.4049 22.3681 68.1577 22.9062C67.9104 23.4442 67.5695 23.9075 67.1425 24.2998C66.7229 24.7034 66.2285 25.0172 65.6553 25.2451C65.0822 25.4731 64.4791 25.5851 63.8385 25.5851C63.1904 25.5851 62.5761 25.4731 62.0029 25.2451C61.4298 25.0172 60.9353 24.7034 60.5158 24.2998C60.085 23.9075 59.7516 23.4405 59.5081 22.9062C59.2646 22.3681 59.1447 21.7965 59.1447 21.1837C59.1447 20.5821 59.2646 20.0142 59.5081 19.4762ZM61.5721 22.0991C61.692 22.3793 61.8643 22.6222 62.0853 22.8277C62.3064 23.0332 62.5648 23.1939 62.8608 23.3097C63.1567 23.4218 63.4826 23.4816 63.8347 23.4816C64.1756 23.4816 64.4941 23.4255 64.7937 23.3097C65.0897 23.1976 65.3481 23.0369 65.5692 22.8277C65.7902 22.6222 65.9662 22.3793 66.0973 22.0991C66.2285 21.8189 66.2959 21.5162 66.2959 21.1837C66.2959 20.8624 66.2285 20.5634 66.0973 20.2832C65.9662 20.003 65.7902 19.7601 65.5692 19.5546C65.3481 19.3491 65.0897 19.1847 64.7937 19.0577C64.4978 18.9344 64.1756 18.8709 63.8347 18.8709C63.4826 18.8709 63.1567 18.9344 62.8608 19.0577C62.5648 19.181 62.3064 19.3454 62.0853 19.5546C61.8643 19.7601 61.6958 20.003 61.5721 20.2832C61.4523 20.5634 61.3923 20.8624 61.3923 21.1837C61.3886 21.5125 61.4485 21.8189 61.5721 22.0991Z" fill="#69C7E9"/>
    <path d="M55.9607 22.2971C55.6123 22.6783 55.2077 22.9734 54.7395 23.1864C54.2712 23.3956 53.7692 23.5003 53.2298 23.5003C52.6754 23.5003 52.1622 23.3956 51.6977 23.1864C51.2294 22.9772 50.8211 22.682 50.4765 22.2971C50.1281 21.916 49.8621 21.4677 49.6711 20.952C49.48 20.4364 49.3864 19.8722 49.3864 19.2632C49.3864 18.6729 49.48 18.1161 49.6711 17.6005C49.8621 17.0849 50.1318 16.6365 50.4765 16.2554C50.8249 15.8743 51.2294 15.5679 51.6977 15.34C52.1659 15.1121 52.6754 14.9962 53.2298 14.9962C53.7655 14.9962 54.2712 15.1121 54.7395 15.34C55.0991 15.5156 55.425 15.7398 55.7134 16.0088L57.6988 14.3872C57.1819 13.9314 56.5975 13.5577 55.9344 13.2738C55.1365 12.9338 54.2974 12.7656 53.4096 12.7656C52.5068 12.7656 51.6565 12.9375 50.8586 13.2738C50.0644 13.6138 49.3751 14.0734 48.7908 14.6637C48.1951 15.2354 47.7269 15.9117 47.3897 16.6963C47.0526 17.4772 46.884 18.3067 46.884 19.181C46.884 20.0703 47.0526 20.9035 47.3897 21.6881C47.7269 22.469 48.1951 23.149 48.7908 23.7207C49.3714 24.3073 50.0607 24.7669 50.8586 25.0994C51.6565 25.432 52.5031 25.5964 53.4096 25.5964C54.2974 25.5964 55.1403 25.432 55.9344 25.0994C56.7286 24.7669 57.4179 24.3073 58.0022 23.7207C58.0285 23.6946 58.0509 23.6647 58.0772 23.6385L56.0056 22.2523C55.9906 22.2598 55.9794 22.2785 55.9607 22.2971Z" fill="#69C7E9"/>
    <path d="M98.0623 25.5852H95.5861V20.0777C95.5861 19.7601 95.4738 19.4537 95.2453 19.1548C95.0167 18.8559 94.6384 18.7065 94.1139 18.7065C93.6457 18.7065 93.2898 18.8634 93.0426 19.1735C92.7953 19.4836 92.6755 19.7863 92.6755 20.0815V25.5889H90.323V20.1637C90.323 19.805 90.1956 19.4724 89.9371 19.166C89.6786 18.8597 89.3228 18.7102 88.8658 18.7102C88.4087 18.7102 88.0529 18.8597 87.7944 19.1586C87.5359 19.4575 87.4086 19.7825 87.4086 20.13V25.5889H84.9324V17.0064H87.3898V17.8247C87.3898 17.8135 87.4385 17.75 87.5397 17.6379C87.6371 17.522 87.7869 17.395 87.9892 17.253C88.1765 17.111 88.4125 16.984 88.7009 16.8682C88.9894 16.7523 89.3228 16.6963 89.7086 16.6963C90.0832 16.6963 90.4166 16.7635 90.7088 16.8943C91.001 17.0251 91.252 17.1671 91.4655 17.3203C91.6753 17.4847 91.8364 17.6341 91.9487 17.7686C92.0611 17.9069 92.1286 17.9779 92.151 17.9891C92.151 17.9779 92.2072 17.9032 92.3196 17.7686C92.432 17.6341 92.5931 17.4847 92.8028 17.3203C93.0238 17.1671 93.3011 17.0251 93.627 16.8943C93.9529 16.7635 94.3425 16.6963 94.7845 16.6963C95.2527 16.6963 95.6873 16.7822 96.0844 16.9504C96.4814 17.1185 96.8261 17.3464 97.1183 17.6304C97.4105 17.9144 97.6427 18.2394 97.8113 18.6093C97.9798 18.9792 98.066 19.3603 98.066 19.7527V25.5852H98.0623Z" fill="#69C7E9"/>
    <path d="M73.1886 14.2226C73.1886 15.0297 72.5331 15.6836 71.7277 15.6836C70.9186 15.6836 70.263 15.0297 70.263 14.2226C70.263 13.4156 70.9186 12.7617 71.7277 12.7617C72.5368 12.7617 73.1886 13.4156 73.1886 14.2226Z" fill="#69C7E9"/>
    <path d="M78.272 24.0385C77.2494 24.0198 76.9122 23.3809 76.9384 22.8466C76.9721 22.1366 77.7288 21.8004 78.2046 21.6808C79.1336 21.4454 80.2012 21.5687 80.7069 21.7481L80.6845 20.2909C80.6845 20.2909 74.6571 19.353 74.6571 22.925C74.6571 23.8666 75.0317 24.6288 75.5337 25.051C76.3615 25.746 77.3992 25.746 77.7963 25.746C79.1411 25.746 80.4372 24.8903 80.7482 24.0534L80.7294 22.9175C80.1413 23.8143 79.1448 24.0534 78.272 24.0385Z" fill="#69C7E9"/>
    <path d="M82.7109 18.8259C82.5611 18.4298 81.3886 16.6924 78.9874 16.6924C76.5861 16.6924 75.3125 18.0674 75.3125 18.0674L76.5112 19.3676C76.5112 19.3676 77.2342 18.5419 78.3955 18.4709C79.5568 18.3999 80.2648 18.8856 80.4783 19.2555C80.527 19.3489 80.5532 19.4984 80.5532 19.7076V25.585H82.8645V19.872C82.8682 19.476 82.8233 19.1248 82.7109 18.8259Z" fill="#69C7E9"/>
    <path d="M37.1106 19.4051C37.1106 18.5906 37.0432 17.791 36.9196 17.0101H40.0025C38.8263 8.11748 31.1994 1.25 21.9617 1.25C11.9073 1.25 3.7597 9.38037 3.7597 19.4051C3.7597 29.4335 11.9073 37.5602 21.9617 37.5602C31.0383 37.5602 38.5641 30.9281 39.9389 22.2597H36.8371C37.0132 21.3368 37.1106 20.384 37.1106 19.4051Z" fill="#45A1DB"/>
    <path d="M22.0141 23.9787C19.4818 23.9787 17.429 21.9311 17.429 19.4053C17.429 16.8795 19.4818 14.832 22.0141 14.832C24.037 14.832 25.7452 16.1397 26.3558 17.9481H32.091C31.383 13.0273 27.1387 9.24609 22.0104 9.24609C16.3839 9.24609 11.825 13.7933 11.825 19.4053C11.825 25.0174 16.3839 29.5646 22.0104 29.5646C26.9776 29.5646 31.1133 26.015 32.0123 21.3221H26.1685C25.4493 22.8914 23.8609 23.9787 22.0141 23.9787Z" fill="white"/>
</svg>
