<svg width="16" height="16" viewBox="0 0 16 16" fill="none" xmlns="http://www.w3.org/2000/svg">
    <path d="M1.3335 5.66675L6.77678 9.47704C7.21756 9.78559 7.43795 9.93986 7.67767 9.99962C7.88943 10.0524 8.1109 10.0524 8.32265 9.99962C8.56238 9.93986 8.78277 9.78559 9.22355 9.47704L14.6668 5.66675M4.5335 14.3334H11.4668C12.5869 14.3334 13.147 14.3334 13.5748 14.1154C13.9511 13.9237 14.2571 13.6177 14.4488 13.2414C14.6668 12.8136 14.6668 12.2535 14.6668 11.1334V6.86675C14.6668 5.74664 14.6668 5.18659 14.4488 4.75877C14.2571 4.38244 13.9511 4.07648 13.5748 3.88474C13.147 3.66675 12.5869 3.66675 11.4668 3.66675H4.5335C3.41339 3.66675 2.85334 3.66675 2.42552 3.88474C2.04919 4.07648 1.74323 4.38244 1.55148 4.75877C1.3335 5.18659 1.3335 5.74664 1.3335 6.86675V11.1334C1.3335 12.2535 1.3335 12.8136 1.55148 13.2414C1.74323 13.6177 2.04919 13.9237 2.42552 14.1154C2.85334 14.3334 3.41339 14.3334 4.5335 14.3334Z" stroke="#C8C8C8" stroke-width="1.2" stroke-linecap="round" stroke-linejoin="round"/>
</svg>
