<svg width="56" height="56" viewBox="0 0 56 56" fill="none" xmlns="http://www.w3.org/2000/svg">
    <path d="M36.8858 32.8632C34.4548 30.8968 31.3627 29.7172 28 29.7172V46.0702H42.1533V43.8716C42.1533 43.3989 42.1296 42.9317 42.0841 42.4709C41.7022 38.6005 39.7547 35.1838 36.8858 32.8632Z" fill="#F2C000"/>
    <path d="M36.7943 18.7243C36.7943 13.8753 32.849 9.92998 28 9.92998V27.5186C32.849 27.5186 36.7943 23.5743 36.7943 18.7243Z" fill="#F2C000"/>
    <path d="M19.1144 32.8632C16.2454 35.1838 14.2979 38.6005 13.9159 42.4708C13.8704 42.9317 13.8467 43.3989 13.8467 43.8715V46.07H28V29.717C24.6374 29.7172 21.5453 30.8968 19.1144 32.8632Z" fill="#FDD22C"/>
    <path d="M28.0001 27.5186V9.92998C23.1512 9.92998 19.2058 13.8753 19.2058 18.7243C19.2058 23.5743 23.1512 27.5186 28.0001 27.5186Z" fill="#FDD22C"/>
</svg>
