<svg width="56" height="56" viewBox="0 0 56 56" fill="none" xmlns="http://www.w3.org/2000/svg">
    <path d="M45.007 27.7004V13.5993C41.1193 13.5993 37.9563 16.7622 37.9563 20.6499C37.9563 24.5376 41.1193 27.7004 45.007 27.7004Z" fill="#BBF3D4"/>
    <path d="M52.0578 20.6499C52.0578 16.7622 48.8949 13.5993 45.0071 13.5993V27.7004C48.8949 27.7004 52.0578 24.5375 52.0578 20.6499Z" fill="#85E5B0"/>
    <path d="M56 40.3422C56 34.2807 51.0687 29.3493 45.0072 29.3493C41.8611 29.3493 38.9384 30.6763 36.8857 32.9332C39.7547 35.2538 41.7022 38.6705 42.0841 42.5408H56V40.3422Z" fill="#BBF3D4"/>
    <path d="M19.1143 32.9332C17.0616 30.6764 14.1389 29.3493 10.9929 29.3493C4.9314 29.3493 0 34.2807 0 40.3422V42.5408H13.9159C14.2979 38.6705 16.2454 35.2538 19.1143 32.9332Z" fill="#BBF3D4"/>
    <path d="M10.993 27.7004V13.5993C7.10525 13.5993 3.94238 16.7622 3.94238 20.6499C3.94238 24.5376 7.10525 27.7004 10.993 27.7004Z" fill="#BBF3D4"/>
    <path d="M18.0435 20.6499C18.0435 16.7622 14.8807 13.5993 10.9929 13.5993V27.7004C14.8807 27.7004 18.0435 24.5375 18.0435 20.6499Z" fill="#85E5B0"/>
    <path d="M36.8858 32.9332C34.4548 30.9668 31.3627 29.7872 28 29.7872V46.1402H42.1533V43.9416C42.1533 43.4689 42.1296 43.0017 42.0841 42.5409C41.7022 38.6705 39.7547 35.2538 36.8858 32.9332Z" fill="#58D991"/>
    <path d="M36.7943 18.7943C36.7943 13.9453 32.849 10 28 10V27.5886C32.849 27.5886 36.7943 23.6444 36.7943 18.7943Z" fill="#58D991"/>
    <path d="M19.1144 32.9332C16.2454 35.2538 14.2979 38.6705 13.9159 42.5408C13.8704 43.0017 13.8467 43.4689 13.8467 43.9415V46.14H28V29.787C24.6374 29.7872 21.5453 30.9668 19.1144 32.9332Z" fill="#85E5B0"/>
    <path d="M27.9999 27.5886V10C23.1509 10 19.2056 13.9453 19.2056 18.7943C19.2056 23.6444 23.1509 27.5886 27.9999 27.5886Z" fill="#85E5B0"/>
</svg>
