<svg width="78" height="32" viewBox="0 0 78 32" fill="none" xmlns="http://www.w3.org/2000/svg">
    <g clip-path="url(#clip0_318_3694)">
        <path d="M72.285 10.3372L70.9071 9.1682L69.261 7.85213C69.3055 8.16135 69.3378 8.53562 69.3235 8.93911L70.7383 10.0921L72.2537 11.4025C72.2973 11.0499 72.3087 10.6917 72.285 10.3372ZM70.69 10.3843L69.3027 9.27568C69.2885 9.43123 69.2657 9.58772 69.2353 9.74516L70.6094 10.8661L72.1076 12.1605C72.1512 12.0012 72.1863 11.8418 72.2138 11.6778L70.69 10.3843ZM70.561 11.1706L69.169 10.0223C69.1453 10.1213 69.114 10.2203 69.0789 10.3184L70.5127 11.4845L71.9284 12.7044C71.9644 12.6196 71.9948 12.5329 72.0223 12.4452L70.561 11.1706ZM70.4719 11.7466L68.9897 10.5427C68.9528 10.6323 68.911 10.72 68.8627 10.8086L70.4273 12.0624L71.716 13.172C71.7596 13.0938 71.7985 13.0137 71.8336 12.9316L70.4719 11.7466ZM68.802 20.7772L68.7802 20.7611C68.7631 20.8026 68.7432 20.846 68.7242 20.8894C68.7148 20.9101 68.7043 20.9308 68.6939 20.9516C68.6209 21.109 68.5336 21.2721 68.4312 21.4371L68.4454 21.4475L71.8753 23.9354C72.0119 23.7101 72.1219 23.4857 72.2072 23.2707L68.802 20.7772ZM68.3449 21.604L68.3298 21.5926C68.2653 21.6888 68.1942 21.7869 68.1164 21.883L68.1354 21.8962L71.5662 24.3813C71.6354 24.2927 71.6999 24.205 71.7587 24.1154L68.3449 21.604ZM68.0273 22.0329L68.0074 22.0188C67.9571 22.0782 67.9059 22.1357 67.8509 22.1951L67.8755 22.213L71.2912 24.7009C71.2912 24.7009 71.3253 24.6641 71.3813 24.6019C71.3983 24.5821 71.4201 24.5595 71.4401 24.5331L68.0273 22.0329ZM49.7486 21.8783L49.6035 21.7718C49.5533 21.8312 49.502 21.8887 49.447 21.9481L52.8864 24.4529C52.8864 24.4529 52.9215 24.4171 52.9774 24.3539C52.9945 24.3351 53.0163 24.3115 53.0362 24.2861L49.7486 21.8783ZM49.925 21.3457C49.8605 21.4418 49.7903 21.5389 49.7126 21.6351L49.851 21.735L53.1614 24.1333C53.2306 24.0457 53.2951 23.958 53.3548 23.8675L49.925 21.3457ZM50.3763 20.5141C50.3583 20.5556 50.3394 20.599 50.3204 20.6424C50.31 20.6631 50.3005 20.6838 50.2891 20.7046C50.217 20.862 50.1298 21.0251 50.0264 21.1901L50.1402 21.2731L53.4715 23.6884C53.608 23.4631 53.718 23.2387 53.8034 23.0237V23.0219L50.3763 20.5141ZM29.4169 6.33525L27.766 4.93245C27.7072 5.21433 27.6513 5.51318 27.5963 5.82428L30.6753 8.50074C30.7265 8.17078 30.7796 7.85024 30.8346 7.53914L29.4169 6.33525ZM27.5413 6.14293C27.5157 6.29 27.4901 6.44272 27.4645 6.59451L30.5558 9.28227C30.5814 9.11069 30.607 8.93911 30.6336 8.76942L27.5413 6.14293ZM29.0708 8.3367L27.419 6.88487C27.4019 6.99329 27.3839 7.10359 27.3659 7.21578L30.4686 9.90543C30.4837 9.8055 30.4961 9.70462 30.5103 9.60564L29.0708 8.3367ZM28.9807 8.91366L27.3355 7.49106C27.3194 7.60136 27.3033 7.71166 27.2852 7.82385L28.9362 9.22948L30.3908 10.4899C30.4031 10.3909 30.4164 10.2901 30.4306 10.1892L28.9807 8.91366ZM29.5734 21.3871C29.5554 21.4286 29.5364 21.472 29.5165 21.5153C29.507 21.5361 29.4975 21.5568 29.4862 21.5776C29.4141 21.7341 29.3269 21.8981 29.2235 22.0631L32.6676 24.5614C32.8051 24.3351 32.9141 24.1107 32.9995 23.8967V23.8948L29.5734 21.3871ZM29.122 22.2177C29.0575 22.3139 28.9864 22.4119 28.9096 22.5081L29.013 22.5825L32.3584 25.0063C32.4277 24.9187 32.4921 24.83 32.5519 24.7405L29.2216 22.2912L29.122 22.2177ZM28.7996 22.6438C28.7503 22.7032 28.6982 22.7607 28.6432 22.8201L28.7522 22.8993L32.0834 25.3259C32.0834 25.3259 32.1185 25.2892 32.1735 25.2269C32.1916 25.2071 32.2124 25.1845 32.2333 25.1591L28.7996 22.6438Z" fill="black"/>
        <path d="M15.0053 8.69589C14.9474 9.23514 14.8877 9.76308 14.8289 10.2806C14.7255 11.1894 14.6269 12.0587 14.5435 12.959H14.2429C14.2249 12.5423 14.2106 12.1935 14.2106 11.9946C14.2106 10.4239 14.5188 9.2078 15.0053 8.69589Z" fill="black"/>
        <path d="M60.1178 27.7742C59.7954 27.581 59.6361 27.4754 59.3232 27.2472C59.0928 27.0785 58.8538 27.0634 58.721 27.2265C58.1587 27.9175 57.878 28.2635 57.3157 28.9546C57.183 29.1176 57.2892 29.3863 57.5888 29.605C57.9918 29.9001 58.1966 30.0359 58.612 30.2848C59.4019 30.8108 60.7977 31.021 61.2102 29.9171C61.507 29.1205 61.1438 28.388 60.1188 27.7742H60.1178ZM60.3682 29.5617C60.133 30.0623 59.6475 30.2678 58.8263 29.7691C58.6101 29.638 58.5029 29.5683 58.2905 29.424C58.7002 28.8216 58.905 28.5209 59.3146 27.9185C59.4958 28.041 59.5868 28.1004 59.7717 28.2126C60.4753 28.6406 60.6043 29.062 60.3691 29.5626L60.3682 29.5617Z" fill="black"/>
        <path d="M63.1883 29.8841C62.4107 29.738 61.6777 29.9567 61.4966 30.5054C61.3145 31.0578 61.8759 31.7432 62.8014 31.9176C63.7269 32.0911 64.4694 31.6546 64.5045 31.0748C64.5386 30.4978 63.9659 30.0302 63.1883 29.8841ZM63.6207 30.9918C63.5828 31.2728 63.2727 31.4575 62.9029 31.3878C62.5226 31.3161 62.3026 31.0324 62.3699 30.7571C62.4373 30.4846 62.7379 30.3489 63.0878 30.4149C63.4282 30.479 63.6586 30.7156 63.6207 30.9928V30.9918Z" fill="black"/>
        <path d="M66.8154 29.7069C67.0591 29.6682 67.2307 29.4693 67.1928 29.2807C67.1549 29.0922 66.9358 28.9725 66.7082 29.0083C66.4807 29.0441 66.3062 29.2251 66.327 29.4165C66.3479 29.6079 66.5717 29.7455 66.8154 29.7069Z" fill="black"/>
        <path d="M67.2981 30.1509C67.2639 29.9727 67.0771 29.8992 66.8505 29.935C66.6238 29.9708 66.4674 30.0972 66.4882 30.2782C66.5575 30.873 66.5916 31.1709 66.6608 31.7658C66.6817 31.9468 66.896 32.0317 67.1662 31.9892C67.4365 31.9468 67.6148 31.8007 67.5806 31.6216C67.4678 31.0333 67.4118 30.7392 67.299 30.1509H67.2981Z" fill="black"/>
        <path d="M70.3486 30.5968C70.213 30.5007 70.0082 30.5205 69.8726 30.6289C69.7967 30.6901 69.7133 30.7345 69.6203 30.7693C69.4838 30.8212 69.3387 30.8023 69.2885 30.66C69.1908 30.3856 69.1415 30.2489 69.0438 29.9746C69.2837 29.8898 69.4022 29.8436 69.6365 29.7455C69.8271 29.6663 69.883 29.4976 69.8233 29.3675C69.7654 29.2402 69.6061 29.1676 69.4241 29.243C69.2012 29.3364 69.0874 29.3797 68.8598 29.4608C68.8115 29.326 68.7878 29.2591 68.7394 29.1252C68.6787 28.9536 68.4919 28.9065 68.2861 28.9715C68.0804 29.0366 67.9552 29.1827 68.0036 29.358C68.0415 29.4957 68.0605 29.5645 68.0984 29.7021C68.033 29.7201 67.9998 29.7295 67.9343 29.7465C67.7437 29.7964 67.683 29.9416 67.7153 30.0811C67.7466 30.2178 67.8708 30.3262 68.0718 30.2744C68.1411 30.2565 68.1752 30.2471 68.2444 30.2282C68.3279 30.5318 68.3705 30.6835 68.454 30.9871C68.5687 31.4019 69.0144 31.5773 69.774 31.2926C69.9627 31.2219 70.1722 31.1144 70.3258 30.9796C70.4539 30.8674 70.4937 30.7024 70.3496 30.5987L70.3486 30.5968Z" fill="black"/>
        <path d="M73.6353 27.268C73.2285 26.8805 72.7439 27.0681 72.3722 27.3877C72.1806 27.5517 72.0403 27.7478 72.0175 27.9373C71.9028 27.8666 71.7359 27.8968 71.5832 28.0052C71.3974 28.1381 71.3158 28.3201 71.4173 28.4709C71.752 28.9687 71.9189 29.2176 72.2537 29.7144C72.3551 29.8652 72.5846 29.8454 72.8065 29.688C73.0284 29.5296 73.1204 29.3203 73.0085 29.177C72.7714 28.8744 72.6529 28.7236 72.4158 28.4219C72.3115 28.2899 72.3703 28.0919 72.5524 27.942C72.7373 27.7893 72.9402 27.7761 73.0587 27.9062C73.3138 28.1881 73.4418 28.3286 73.6969 28.6104C73.8192 28.7453 74.0449 28.6934 74.2431 28.5039C74.4413 28.3154 74.5029 28.0938 74.3711 27.9675C74.0772 27.6875 73.9302 27.548 73.6362 27.268H73.6353Z" fill="black"/>
        <path d="M75.8656 24.5661C75.3459 24.3068 74.6774 24.6603 74.2355 25.3071C73.7946 25.9538 73.7235 26.6901 74.1597 27.0719C74.5987 27.4556 75.4351 27.2369 75.9604 26.4657C76.4857 25.6955 76.3881 24.8272 75.8656 24.5661ZM75.5109 26.164C75.2947 26.4808 74.9486 26.5637 74.721 26.3931C74.4963 26.2244 74.4868 25.9001 74.685 25.6087C74.8784 25.3259 75.1895 25.2071 75.4313 25.3514C75.6759 25.4975 75.7215 25.8557 75.5109 26.1631V26.164Z" fill="black"/>
        <path d="M77.8313 20.8309C77.2842 20.3991 77.0007 20.2002 76.4232 19.8429C76.2904 19.76 76.1302 19.8514 76.0657 20.0918C75.9974 20.3426 76.0315 20.5566 76.1852 20.6556C76.5569 20.8912 76.7399 21.0157 77.0993 21.2806C76.7162 21.4314 76.5237 21.4984 76.1377 21.6143C75.9955 21.6577 75.8921 21.7831 75.8514 21.9481C75.8106 22.113 75.839 22.2705 75.9471 22.3751C76.2335 22.657 76.3729 22.8031 76.6432 23.1095C76.2013 23.1651 75.9813 23.184 75.5441 23.2057C75.363 23.2151 75.2445 23.3792 75.1952 23.613C75.1478 23.8364 75.2521 23.9891 75.4019 23.9835C76.0695 23.9665 76.4089 23.9373 77.0889 23.8354C77.2453 23.8109 77.415 23.6412 77.4947 23.4046C77.5744 23.168 77.5364 22.9361 77.4264 22.8201C77.1903 22.5618 77.0699 22.4373 76.8224 22.196C77.1543 22.1046 77.3202 22.0527 77.6512 21.9377C77.8019 21.8868 77.9432 21.6898 77.9869 21.4333C78.0305 21.1712 77.9622 20.9327 77.8323 20.8319L77.8313 20.8309Z" fill="black"/>
        <path d="M29.2444 17.5077C28.9182 17.6077 28.5626 17.6586 28.1823 17.6586C25.7017 17.6586 25.7017 15.0443 25.7017 14.0592C25.7017 11.2875 26.3474 6.54548 26.9543 3.86714C27.0121 3.61449 27.069 3.37974 27.125 3.16763C25.8477 2.27579 24.0071 1.73465 22.1846 1.73465C20.7954 1.73465 18.8125 2.0533 17.2527 3.57112C17.1161 3.70405 16.9378 3.78418 16.7501 3.79738C16.7036 3.80115 16.6552 3.80021 16.6078 3.79549C16.5348 3.78795 16.4646 3.77098 16.3983 3.74553C16.2465 3.68802 16.1147 3.58432 16.0218 3.44762C15.3979 2.53033 13.7118 1.60172 11.6958 1.60172C7.01808 1.60172 4.2245 4.76369 4.2245 10.0619C4.2245 11.2017 4.35157 12.4169 4.64837 14.1233C4.70811 14.4636 4.54027 14.8039 4.23304 14.967C2.5916 15.8334 1.61109 17.5624 1.61109 19.5903C1.61109 21.3815 2.61151 23.1849 4.79251 23.9146C5.43638 24.1305 6.18361 24.2521 7.03799 24.2521C10.6139 24.2521 12.3824 22.7758 12.7731 19.463C12.8205 19.0595 13.1638 18.7559 13.5725 18.7559H15.5496C15.9241 18.7559 16.2494 19.0124 16.3347 19.3753C16.6344 20.6584 17.1332 21.6766 17.8482 22.4439C18.3631 22.9973 18.9908 23.4197 19.7371 23.7157C20.6427 24.0768 21.7228 24.2521 22.9887 24.2521C26.996 24.2521 29.3875 22.2233 29.3875 18.8238C29.3875 18.3986 29.3411 17.9678 29.2444 17.5077ZM16.7207 7.73806C16.6315 8.68175 16.5282 9.58584 16.4296 10.4607C16.2997 11.6014 16.1773 12.678 16.0844 13.8244C16.0512 14.2402 15.7013 14.5607 15.2822 14.5607H13.4719C13.0414 14.5607 12.6858 14.2232 12.6678 13.7943L12.6479 13.3615C12.6213 12.7572 12.5995 12.2802 12.5995 11.9946C12.5995 7.20163 14.8573 6.82925 15.5496 6.82925C15.6681 6.82925 15.8303 6.82925 16.0759 6.87827C16.4808 6.95841 16.7586 7.32985 16.7207 7.73806Z" fill="#FDD22C"/>
        <path d="M50.1981 17.8575C50.1981 18.1865 50.1772 18.5042 50.1345 18.8106C49.6718 22.2384 46.6506 24.2521 41.8553 24.2521C39.0617 24.2521 36.5242 23.4451 34.7111 21.9792C34.4598 21.7755 34.2237 21.5615 34.0037 21.3362C33.9951 21.3277 33.9866 21.3193 33.979 21.3108C33.4878 20.8055 33.0782 20.2474 32.751 19.6431C32.1261 18.491 31.8037 17.1702 31.8037 15.725C31.8037 13.1334 32.8032 10.7671 34.6181 9.06167C36.5877 7.21012 39.368 6.23155 42.6594 6.23155C43.4768 6.23155 44.4971 6.32111 45.5772 6.41633C46.9607 6.537 48.385 6.66144 49.5419 6.60865C49.7543 7.23086 49.8757 7.95583 49.9288 8.54693C49.9525 8.80619 49.9639 9.03999 49.9639 9.22854C49.9639 11.2837 49.0393 12.3264 47.2167 12.3264C45.947 12.3264 44.6422 11.6674 42.8528 10.1232C42.6727 9.96859 42.4328 9.89977 42.1985 9.93748C41.9634 9.97425 41.7567 10.1128 41.6343 10.3165C41.1175 11.1725 41.1175 12.021 41.1175 12.5272C41.1175 13.7311 41.5888 14.8021 42.4451 15.5421C43.2938 16.2774 44.5095 16.6828 45.9707 16.7224C46.0504 16.7253 46.131 16.7262 46.2116 16.7262C47.4045 16.7262 48.6846 16.416 49.8415 15.8598C49.8567 15.8645 49.8728 15.8683 49.8889 15.8721C50.0919 16.5282 50.1981 17.2013 50.1981 17.8575Z" fill="#FDD22C"/>
        <path d="M71.4913 17.619L69.6829 15.7043C72.0346 15.544 73.0303 13.3106 73.0303 11.4167C73.0303 10.0412 72.6292 8.88349 72.1816 8.43946L69.224 5.25675C69.095 5.11534 68.967 4.98807 68.8523 4.89002C68.8361 4.87588 68.8191 4.86268 68.802 4.85137L68.7698 4.82874C68.5972 4.71561 68.3867 4.68639 68.179 4.7109C67.7513 4.76181 67.3578 4.82592 66.9567 4.88719L65.0327 1.90435C64.9549 1.76953 64.8771 1.66866 64.7852 1.57439C64.7634 1.5527 64.7415 1.53196 64.7178 1.51311L64.7055 1.50368C64.5585 1.38866 64.3755 1.32833 64.1878 1.33116C58.924 1.4556 54.7516 3.53153 52.381 7.00366L50.7063 5.27938C50.5366 5.055 50.2569 4.93339 49.9686 4.96827C48.8933 5.09743 47.2793 4.95601 45.7185 4.81932C44.6024 4.72221 43.547 4.62982 42.6594 4.62982C38.9489 4.62982 35.7855 5.75923 33.5115 7.89644C32.1072 9.21628 31.1162 10.867 30.6023 12.7044C30.8858 10.2165 31.3315 7.60042 31.7297 6.1467C31.798 5.89687 31.7316 5.63008 31.5543 5.44059C30.7587 4.58929 28.6109 2.28804 28.6109 2.28804L28.609 2.28993C28.5967 2.27767 28.5834 2.26542 28.5701 2.25411C26.997 0.926719 24.6102 0.132927 22.1846 0.132927C20.0851 0.132927 18.2313 0.729685 16.77 1.86569C15.5894 0.739113 13.6369 0 11.6958 0C7.3054 0 2.61435 2.64346 2.61435 10.0619C2.61435 11.1697 2.72151 12.3264 2.96995 13.8508C1.09998 15.067 0 17.1702 0 19.5903C0 21.7774 1.15783 24.0853 3.63658 25.1892L7.18971 27.0389C8.1484 27.6027 9.36597 27.9402 10.8358 27.9402C13.7583 27.9402 16.1716 27.0031 17.0744 23.9344C17.6007 24.4086 18.1819 24.8451 18.8192 25.2043L22.2879 26.9569C23.5045 27.6356 24.8719 27.9402 26.7865 27.9402C30.7018 27.9402 33.1512 26.1263 33.8112 23.3254C34.5489 23.908 35.4005 24.3653 36.2662 24.8404L39.514 26.4987L39.5216 26.494C41.2749 27.4396 43.3896 27.9402 45.6531 27.9402C50.6153 27.9402 53.4553 25.8925 54.4207 23.0878C55.0835 23.7685 55.8402 24.3228 56.7875 24.7763L60.4706 26.6448V26.6411C61.746 27.3142 63.2898 27.6404 65.0222 27.6404C70.1485 27.6404 73.0644 24.7424 73.0644 21.4776C73.0644 21.0515 73.0142 20.6207 72.9108 20.1908C72.6794 19.2245 72.1759 18.343 71.4913 17.619ZM70.9071 9.1682L72.285 10.3372C72.3087 10.6917 72.2973 11.0499 72.2537 11.4025L70.7383 10.0921L69.3235 8.93911C69.3378 8.53562 69.3055 8.16135 69.261 7.85213L70.9071 9.1682ZM69.3027 9.27568L70.69 10.3843L72.2138 11.6778C72.1863 11.8418 72.1512 12.0012 72.1076 12.1605L70.6094 10.8661L69.2353 9.74516C69.2657 9.58772 69.2885 9.43123 69.3027 9.27568ZM69.169 10.0223L70.561 11.1706L72.0223 12.4452C71.9948 12.5329 71.9644 12.6196 71.9284 12.7044L70.5127 11.4845L69.0789 10.3184C69.114 10.2203 69.1453 10.1213 69.169 10.0223ZM68.9897 10.5427L70.4719 11.7466L71.8336 12.9316C71.7985 13.0137 71.7596 13.0938 71.716 13.172L70.4273 12.0624L68.8627 10.8086C68.911 10.72 68.9528 10.6323 68.9897 10.5427ZM27.766 4.93245L29.4169 6.33525L30.8346 7.53819C30.7796 7.85024 30.7265 8.17078 30.6753 8.50074L27.5963 5.82428C27.6513 5.51318 27.7072 5.21433 27.766 4.93245ZM27.5413 6.14293L30.6336 8.76942C30.607 8.93911 30.5814 9.11069 30.5558 9.28227L27.4645 6.59451C27.4901 6.44272 27.5157 6.29 27.5413 6.14293ZM27.419 6.88487L29.0708 8.3367L30.5103 9.60564C30.4961 9.70462 30.4837 9.8055 30.4686 9.90543L27.3659 7.21578C27.3839 7.10359 27.4019 6.99329 27.419 6.88487ZM27.3355 7.49106L28.9807 8.91366L30.4306 10.1892C30.4164 10.2901 30.4031 10.3909 30.3908 10.4899L28.9362 9.22948L27.2852 7.82385C27.3033 7.71166 27.3194 7.60136 27.3355 7.49106ZM22.9887 24.2521C21.7228 24.2521 20.6427 24.0768 19.7371 23.7157C18.9908 23.4197 18.3631 22.9973 17.8482 22.4439C17.1332 21.6766 16.6344 20.6584 16.3347 19.3753C16.2494 19.0124 15.9241 18.7559 15.5496 18.7559H13.5725C13.1638 18.7559 12.8205 19.0595 12.7731 19.463C12.3824 22.7758 10.6139 24.2521 7.03799 24.2521C6.18361 24.2521 5.43638 24.1305 4.79251 23.9146C2.61151 23.1849 1.61109 21.3815 1.61109 19.5903C1.61109 17.5624 2.5916 15.8334 4.23304 14.967C4.54027 14.8039 4.70811 14.4636 4.64837 14.1233C4.35157 12.4169 4.2245 11.2017 4.2245 10.0619C4.2245 4.76369 7.01808 1.60172 11.6958 1.60172C13.7118 1.60172 15.3979 2.53033 16.0218 3.44762C16.1147 3.58432 16.2465 3.68802 16.3983 3.74553C16.4646 3.77098 16.5348 3.78795 16.6078 3.79549C16.6552 3.80021 16.7036 3.80115 16.7501 3.79738C16.9378 3.78418 17.1161 3.70405 17.2527 3.57112C18.8125 2.0533 20.7954 1.73465 22.1846 1.73465C24.0071 1.73465 25.8477 2.27579 27.125 3.16763C27.069 3.37974 27.0121 3.61449 26.9543 3.86714C26.3474 6.54548 25.7017 11.2875 25.7017 14.0592C25.7017 15.0443 25.7017 17.6586 28.1823 17.6586C28.5626 17.6586 28.9182 17.6077 29.2444 17.5077C29.3411 17.9678 29.3875 18.3986 29.3875 18.8238C29.3875 22.2233 26.996 24.2521 22.9887 24.2521ZM32.1735 25.2269C32.1185 25.2892 32.0834 25.3259 32.0834 25.3259L28.7522 22.8993L28.6432 22.8201C28.6982 22.7607 28.7503 22.7032 28.7996 22.6438L32.2333 25.1591C32.2124 25.1845 32.1916 25.2071 32.1735 25.2269ZM32.3584 25.0063L29.013 22.5825L28.9096 22.5081C28.9864 22.4119 29.0575 22.3139 29.122 22.2177L29.2216 22.2912L32.5519 24.7405C32.4921 24.83 32.4277 24.9187 32.3584 25.0063ZM32.9995 23.8967C32.9141 24.1107 32.8051 24.3351 32.6676 24.5614L29.2235 22.0631C29.3269 21.8981 29.4141 21.7341 29.4862 21.5776C29.4975 21.5568 29.507 21.5361 29.5165 21.5153C29.5364 21.472 29.5554 21.4286 29.5734 21.3871L32.9995 23.8948V23.8967ZM41.8553 24.2521C39.0617 24.2521 36.5242 23.4451 34.7111 21.9792C34.4598 21.7755 34.2237 21.5615 34.0037 21.3362C33.9951 21.3277 33.9866 21.3193 33.979 21.3108C33.4878 20.8055 33.0782 20.2474 32.751 19.6431C32.1261 18.491 31.8037 17.1702 31.8037 15.725C31.8037 13.1334 32.8032 10.7671 34.6181 9.06167C36.5877 7.21012 39.368 6.23155 42.6594 6.23155C43.4768 6.23155 44.4971 6.32111 45.5772 6.41633C46.9607 6.537 48.385 6.66144 49.5419 6.60865C49.7543 7.23086 49.8757 7.95583 49.9288 8.54693C49.9525 8.80619 49.9639 9.03999 49.9639 9.22854C49.9639 11.2837 49.0393 12.3264 47.2167 12.3264C45.947 12.3264 44.6422 11.6674 42.8528 10.1232C42.6727 9.96859 42.4328 9.89977 42.1985 9.93748C41.9634 9.97425 41.7567 10.1128 41.6343 10.3165C41.1175 11.1725 41.1175 12.021 41.1175 12.5272C41.1175 13.7311 41.5888 14.8021 42.4451 15.5421C43.2938 16.2774 44.5095 16.6828 45.9707 16.7224C46.0504 16.7253 46.131 16.7262 46.2116 16.7262C47.4045 16.7262 48.6846 16.416 49.8415 15.8598C49.8567 15.8645 49.8728 15.8683 49.8889 15.8721C50.0919 16.5282 50.1981 17.2013 50.1981 17.8575C50.1981 18.1865 50.1772 18.5042 50.1345 18.8106C49.6718 22.2384 46.6506 24.2521 41.8553 24.2521ZM47.8104 14.9105C47.2727 15.05 46.7312 15.1245 46.2116 15.1245C46.0437 15.1245 45.8816 15.1188 45.7242 15.1075C45.7356 14.7266 45.7877 14.2656 46.0238 13.7943C46.1566 13.8244 46.2893 13.8489 46.4211 13.8687C46.9 14.2685 47.3609 14.6173 47.8104 14.9105ZM52.9774 24.3539C52.9215 24.4171 52.8864 24.4529 52.8864 24.4529L49.447 21.9481C49.502 21.8887 49.5533 21.8312 49.6035 21.7718L49.7486 21.8783L53.0362 24.2861C53.0163 24.3115 52.9945 24.3351 52.9774 24.3539ZM53.1614 24.1333L49.851 21.735L49.7126 21.6351C49.7903 21.5389 49.8605 21.4418 49.925 21.3457L53.3548 23.8675C53.2951 23.958 53.2306 24.0457 53.1614 24.1333ZM53.8034 23.0237C53.718 23.2387 53.608 23.4631 53.4715 23.6884L50.1402 21.2731L50.0264 21.1901C50.1298 21.0251 50.217 20.862 50.2891 20.7046C50.3005 20.6838 50.31 20.6631 50.3204 20.6424C50.3394 20.599 50.3583 20.5556 50.3763 20.5141L53.8034 23.0219V23.0237ZM61.2244 23.9523C59.7319 23.9523 58.4432 23.7035 57.3717 23.2085C56.7515 22.9238 56.2043 22.5561 55.7321 22.1083C55.3746 21.7689 55.0626 21.3852 54.7981 20.9572C54.2538 20.0814 53.9029 19.0227 53.7474 17.7887C53.6839 17.2956 53.6526 16.7743 53.6526 16.2247C53.6526 15.8155 53.6753 15.38 53.7237 14.8982C53.7853 14.2732 53.8897 13.568 54.0414 12.7374C54.0812 12.5206 54.03 12.2981 53.8991 12.1209C53.7692 11.9436 53.571 11.8277 53.352 11.7994L52.1192 11.641C52.3573 10.5776 52.7337 9.59244 53.2382 8.69777C55.1025 5.38591 58.6983 3.30432 63.3542 2.97436L63.2016 5.75358C63.2006 5.76583 63.2006 5.77809 63.2006 5.79034C63.1987 5.99681 63.2774 6.19761 63.4206 6.34845C63.5733 6.50777 63.7847 6.59828 64.0057 6.59828H64.642C65.8681 6.59828 66.95 6.52569 67.9305 6.37673C67.9495 6.3739 67.9685 6.37108 67.9874 6.36825C68.1932 6.7642 68.4274 7.53348 68.4274 8.52902C68.4274 8.57899 68.4265 8.63084 68.4236 8.68457C68.3762 9.92428 67.7475 12.0266 65.6139 12.0266H64.0057C63.6046 12.0266 63.2651 12.3189 63.2082 12.7139C63.1352 13.222 63.0992 13.6623 63.0992 14.0592C63.0992 15.988 64.0209 16.9261 65.9155 16.9261C66.5262 16.9261 67.1587 16.7884 67.7153 16.549C67.7968 16.515 67.8774 16.4773 67.9552 16.4387C68.288 17.1363 68.4616 17.8679 68.4616 18.59C68.4616 18.6466 68.4606 18.7041 68.4578 18.7606C68.3611 21.2938 66.0871 23.9523 61.2244 23.9523ZM71.3813 24.6019C71.3253 24.6641 71.2912 24.7009 71.2912 24.7009L67.8755 22.213L67.8509 22.1951C67.9059 22.1357 67.9571 22.0782 68.0074 22.0188L68.0273 22.0329L71.4401 24.5331C71.4201 24.5595 71.3983 24.5821 71.3813 24.6019ZM71.5662 24.3813L68.1354 21.8962L68.1164 21.883C68.1942 21.7869 68.2653 21.6888 68.3298 21.5926L68.3449 21.604L71.7587 24.1154C71.6999 24.205 71.6354 24.2927 71.5662 24.3813ZM71.8753 23.9354L68.4454 21.4475L68.4312 21.4371C68.5336 21.2721 68.6209 21.109 68.6939 20.9516C68.7043 20.9308 68.7148 20.9101 68.7242 20.8894C68.7432 20.846 68.7631 20.8026 68.7802 20.7611L68.802 20.7772L72.2072 23.2698C72.1218 23.4857 72.0119 23.7101 71.8753 23.9354Z" fill="black"/>
        <path d="M16.0759 6.87827C15.8303 6.82925 15.6681 6.82925 15.5496 6.82925C14.8573 6.82925 12.5995 7.20163 12.5995 11.9946C12.5995 12.2802 12.6213 12.7572 12.6479 13.3615L12.6678 13.7943C12.6858 14.2232 13.0414 14.5607 13.4719 14.5607H15.2822C15.7013 14.5607 16.0512 14.2402 16.0844 13.8244C16.1773 12.678 16.2997 11.6014 16.4296 10.4607C16.5282 9.58584 16.6315 8.68175 16.7207 7.73806C16.7586 7.32985 16.4808 6.95841 16.0759 6.87827ZM14.8289 10.2806C14.7255 11.1894 14.6269 12.0587 14.5435 12.959H14.2429C14.2249 12.5423 14.2106 12.1935 14.2106 11.9946C14.2106 10.4239 14.5188 9.2078 15.0053 8.69589C14.9474 9.23514 14.8877 9.76308 14.8289 10.2806Z" fill="black"/>
        <path d="M68.4616 18.59C68.4616 18.6466 68.4606 18.7041 68.4578 18.7606C68.3611 21.2938 66.0871 23.9523 61.2244 23.9523C59.7319 23.9523 58.4432 23.7035 57.3717 23.2085C56.7515 22.9238 56.2043 22.5561 55.7321 22.1083C55.3746 21.7689 55.0626 21.3852 54.7981 20.9572C54.2538 20.0814 53.9029 19.0227 53.7474 17.7887C53.6839 17.2956 53.6526 16.7743 53.6526 16.2247C53.6526 15.8155 53.6753 15.38 53.7237 14.8982C53.7853 14.2732 53.8897 13.568 54.0414 12.7374C54.0812 12.5206 54.03 12.2981 53.8991 12.1209C53.7692 11.9436 53.571 11.8277 53.352 11.7994L52.1192 11.641C52.3573 10.5776 52.7337 9.59244 53.2382 8.69777C55.1025 5.38591 58.6983 3.30432 63.3542 2.97436L63.2016 5.75358C63.2006 5.76583 63.2006 5.77809 63.2006 5.79034C63.1987 5.99681 63.2774 6.19761 63.4206 6.34845C63.5733 6.50777 63.7847 6.59828 64.0057 6.59828H64.642C65.8681 6.59828 66.95 6.52569 67.9305 6.37673C67.9495 6.3739 67.9685 6.37108 67.9874 6.36825C68.1932 6.7642 68.4274 7.53348 68.4274 8.52902C68.4274 8.57899 68.4265 8.63084 68.4236 8.68457C68.3762 9.92428 67.7475 12.0266 65.6139 12.0266H64.0057C63.6046 12.0266 63.2651 12.3189 63.2082 12.7139C63.1352 13.222 63.0992 13.6623 63.0992 14.0592C63.0992 15.988 64.0209 16.9261 65.9155 16.9261C66.5262 16.9261 67.1587 16.7884 67.7153 16.549C67.7968 16.515 67.8774 16.4773 67.9552 16.4387C68.288 17.1363 68.4616 17.8679 68.4616 18.59Z" fill="#FDD22C"/>
        <path d="M30.6336 8.76942C30.607 8.93911 30.5814 9.11069 30.5558 9.28227L27.4645 6.59451C27.4901 6.44272 27.5157 6.29 27.5413 6.14293L30.6336 8.76942Z" fill="white"/>
        <path d="M30.8346 7.53819C30.7796 7.85024 30.7265 8.17078 30.6753 8.50074L27.5963 5.82428C27.6513 5.51318 27.7072 5.21433 27.766 4.93245L29.4169 6.33525L30.8346 7.53819Z" fill="white"/>
        <path d="M30.5103 9.60564C30.4961 9.70462 30.4837 9.8055 30.4686 9.90543L27.3659 7.21578C27.3839 7.10359 27.4019 6.99329 27.419 6.88487L29.0708 8.3367L30.5103 9.60564Z" fill="white"/>
        <path d="M30.4306 10.1892C30.4164 10.2901 30.4031 10.3909 30.3908 10.4899L28.9362 9.22948L27.2852 7.82385C27.3033 7.71166 27.3194 7.60136 27.3355 7.49106L28.9807 8.91366L30.4306 10.1892Z" fill="white"/>
        <path d="M32.9995 23.8948V23.8967C32.9141 24.1107 32.8051 24.3351 32.6676 24.5614L29.2235 22.0631C29.3269 21.8981 29.4141 21.7341 29.4862 21.5776C29.4975 21.5568 29.507 21.5361 29.5165 21.5153C29.5364 21.472 29.5554 21.4286 29.5734 21.3871L32.9995 23.8948Z" fill="white"/>
        <path d="M32.5519 24.7405C32.4921 24.83 32.4277 24.9187 32.3584 25.0063L29.013 22.5825L28.9096 22.5081C28.9864 22.4119 29.0575 22.3139 29.122 22.2177L29.2216 22.2912L32.5519 24.7405Z" fill="white"/>
        <path d="M32.2333 25.1591C32.2124 25.1845 32.1916 25.2071 32.1735 25.2269C32.1185 25.2892 32.0834 25.3259 32.0834 25.3259L28.7522 22.8993L28.6432 22.8201C28.6982 22.7607 28.7503 22.7032 28.7996 22.6438L32.2333 25.1591Z" fill="white"/>
        <path d="M53.8034 23.0219V23.0237C53.718 23.2387 53.608 23.4631 53.4715 23.6884L50.1402 21.2731L50.0264 21.1901C50.1298 21.0251 50.217 20.862 50.2891 20.7046C50.3005 20.6838 50.31 20.6631 50.3204 20.6424C50.3394 20.599 50.3583 20.5556 50.3763 20.5141L53.8034 23.0219Z" fill="white"/>
        <path d="M53.3548 23.8675C53.2951 23.958 53.2306 24.0457 53.1614 24.1333L49.851 21.735L49.7126 21.6351C49.7903 21.5389 49.8605 21.4418 49.925 21.3457L53.3548 23.8675Z" fill="white"/>
        <path d="M53.0362 24.2861C53.0163 24.3115 52.9945 24.3351 52.9774 24.3539C52.9215 24.4171 52.8864 24.4529 52.8864 24.4529L49.447 21.9481C49.502 21.8887 49.5533 21.8312 49.6035 21.7718L49.7486 21.8783L53.0362 24.2861Z" fill="white"/>
        <path d="M72.2072 23.2698C72.1218 23.4857 72.0119 23.7101 71.8753 23.9354L68.4454 21.4475L68.4312 21.4371C68.5336 21.2721 68.6209 21.109 68.6939 20.9516C68.7043 20.9308 68.7148 20.9101 68.7242 20.8894C68.7432 20.846 68.7631 20.8026 68.7802 20.7611L68.802 20.7772L72.2072 23.2698Z" fill="white"/>
        <path d="M71.7587 24.1154C71.6999 24.205 71.6354 24.2927 71.5662 24.3813L68.1354 21.8962L68.1164 21.883C68.1942 21.7869 68.2653 21.6888 68.3298 21.5926L68.3449 21.604L71.7587 24.1154Z" fill="white"/>
        <path d="M71.4401 24.5331C71.4201 24.5595 71.3983 24.5821 71.3813 24.6019C71.3253 24.6641 71.2912 24.7009 71.2912 24.7009L67.8755 22.213L67.8509 22.1951C67.9059 22.1357 67.9571 22.0782 68.0074 22.0188L68.0273 22.0329L71.4401 24.5331Z" fill="white"/>
        <path d="M72.2138 11.6778C72.1863 11.8418 72.1512 12.0012 72.1076 12.1605L70.6094 10.8661L69.2353 9.74516C69.2657 9.58772 69.2885 9.43123 69.3027 9.27568L70.69 10.3843L72.2138 11.6778Z" fill="white"/>
        <path d="M72.2537 11.4025L70.7383 10.0921L69.3235 8.93911C69.3378 8.53562 69.3055 8.16135 69.261 7.85213L70.9071 9.1682L72.285 10.3372C72.3087 10.6917 72.2973 11.0499 72.2537 11.4025Z" fill="white"/>
        <path d="M72.0223 12.4452C71.9948 12.5329 71.9644 12.6196 71.9284 12.7044L70.5127 11.4845L69.0789 10.3184C69.114 10.2203 69.1453 10.1213 69.169 10.0223L70.561 11.1706L72.0223 12.4452Z" fill="white"/>
        <path d="M71.8336 12.9316C71.7985 13.0137 71.7596 13.0938 71.716 13.172L70.4273 12.0624L68.8627 10.8086C68.911 10.72 68.9528 10.6323 68.9897 10.5427L70.4719 11.7466L71.8336 12.9316Z" fill="white"/>
        <path d="M15.0053 8.69589C14.9474 9.23514 14.8877 9.76308 14.8289 10.2806C14.7255 11.1894 14.6269 12.0587 14.5435 12.959H14.2429C14.2249 12.5423 14.2106 12.1935 14.2106 11.9946C14.2106 10.4239 14.5188 9.2078 15.0053 8.69589Z" fill="white"/>
    </g>
    <defs>
        <clipPath id="clip0_318_3694">
            <rect width="78" height="32" fill="white"/>
        </clipPath>
    </defs>
</svg>
