<svg width="104" height="105" viewBox="0 0 104 105" fill="none" xmlns="http://www.w3.org/2000/svg">
    <path d="M61.8787 29.1878C61.8001 31.1873 61.3991 34.7173 59.4297 38.5264C57.9572 41.3757 56.1449 43.3389 54.8377 44.5446M28 90.3035C28.4429 81.8272 29.9388 75.1149 31.2654 70.485C32.2562 67.0246 33.2185 64.5125 35.143 59.4863C38.3645 51.0722 39.9758 46.8647 41.9799 44.4408C44.7922 41.0406 46.9555 40.1991 51.0617 34.791C52.4383 32.9783 53.4618 31.4001 54.123 30.3292C56.0771 26.322 57.4659 23.3482 58.5466 20.9357C58.816 20.3339 59.3364 19.0659 60.1435 19.0192C61.2374 18.9559 62.1303 21.165 62.1844 21.302C62.6569 22.5004 62.5813 23.6013 62.4905 24.2073M57.8988 43.6107C59.0355 41.962 60.3223 40.254 61.7764 38.5264C62.3213 37.8789 62.8673 37.2564 63.4091 36.6587C62.952 35.2475 61.6376 30.9279 61.8785 27.0089C61.9662 25.5728 62.253 24.3681 63.0009 23.2734C63.552 22.4683 64.1173 21.6413 64.8377 21.6133C66.9133 21.5323 67.5255 28.1803 70.6542 33.9609C71.0501 34.6935 71.8542 36.0891 71.7766 37.9038C71.7266 39.0826 71.296 40.6183 71.2879 40.6172C71.2858 40.6172 71.3032 40.5238 71.3174 40.446M73.717 48.2728C73.8364 46.8107 73.8936 45.521 73.9191 44.4408C73.9466 43.2756 73.9333 42.4808 73.4088 41.8468C73.0099 41.3643 72.4925 41.19 72.2864 41.1205C69.8384 40.2945 63.975 42.3106 59.531 43.4032C56.1932 44.224 54.8564 44.2281 52.8982 45.5822C52.3951 45.9308 51.5084 46.7827 49.7349 48.4875C46.4328 51.6616 46.1838 52.1991 46.2654 52.7418C46.4787 54.156 48.8389 54.9343 50.143 55.1283C52.3798 55.4614 54.137 54.4673 54.735 54.0907M74.9405 54.5056C75.5191 50.7059 75.3976 49.8353 74.8895 49.1619C74.2068 48.2571 73.0945 48.061 71.9812 47.8649C69.8394 47.4872 68.122 47.9282 66.4709 48.3837C61.9453 49.6309 59.683 50.2545 58.7157 50.7702C56.7095 51.839 56.4779 52.4211 55.0268 53.7969C54.4176 54.3749 54.4278 54.3261 51.4706 56.6846C49.1001 58.5752 48.8103 58.8647 48.8195 59.3223C48.845 60.4948 50.8196 61.3664 51.8788 61.6652C52.587 61.8655 53.2655 61.9163 53.8839 61.8831M69.9397 66.6458C69.6622 66.1934 69.3601 65.604 69.1234 64.8818C68.7264 63.6678 68.6836 62.5939 68.7152 61.8727C66.658 62.2162 64.5998 62.5607 62.5426 62.9041C62.2733 63.1366 61.8722 63.4696 61.3681 63.8442C60.3324 64.6131 59.2507 65.4162 57.7966 65.9194C56.7946 66.266 55.7762 66.6188 54.5312 66.3345C53.5996 66.1218 52.0118 65.4318 51.8781 64.363C51.771 63.5111 52.6435 62.8595 54.8374 61.1464C60.0732 57.0572 59.9416 56.9918 60.8579 56.5809C61.4732 56.3049 62.0059 56.1233 67.1846 55.3358C73.7715 54.3345 74.6694 54.3614 75.348 55.0245C76.0276 55.6885 76.2511 56.7614 75.6541 61.1464C74.9378 66.4071 74.5878 69.0396 73.6643 71.0556C72.0979 74.4798 68.3642 76.9306 60.96 81.6912C53.4649 86.511 50.5434 87.4749 49.5311 91.0298C49.226 92.0996 49.0903 93.9216 48.8168 97.5668C48.6168 100.239 48.5413 102.459 48.5107 104M62.5029 63.1044C62.9846 63.9034 63.4621 64.7718 63.9193 65.7119C65.1979 68.3402 65.9816 70.8305 66.4704 72.9752" stroke="black" stroke-opacity="0.7" stroke-width="0.836138" stroke-linecap="round" stroke-linejoin="round"/>
    <path d="M69.4366 3.73104C69.4309 3.35862 69.4095 2.02247 68.3953 1.00604C67.3731 -0.0195644 66.0343 -0.0241481 65.5486 0.00908368C63.7714 0.12826 62.7504 1.46097 62.5926 1.67297C62.436 1.46097 61.4139 0.129406 59.6367 0.00908368C59.151 -0.0241481 57.8122 -0.0195644 56.7889 1.00604C55.7746 2.02247 55.7532 3.35862 55.7476 3.73104C55.716 5.74329 57.1202 7.21809 57.9068 8.0443C58.3689 8.53017 59.0315 9.02865 60.3557 10.0245C61.2764 10.7177 62.0551 11.2632 62.5915 11.6322C63.1279 11.2643 63.9078 10.7177 64.8274 10.0245C66.1515 9.02865 66.813 8.53017 67.2762 8.0443C68.0628 7.21809 69.467 5.74329 69.4354 3.73104H69.4366Z" fill="#DD1F3B"/>
</svg>