<svg width="240" height="240" viewBox="0 0 240 240" fill="none" xmlns="http://www.w3.org/2000/svg">
    <g clip-path="url(#clip0_564_3806)">
        <rect width="240" height="240" rx="27.9326" fill="#40414E"/>
        <g filter="url(#filter0_f_564_3806)">
            <ellipse rx="49.1424" ry="93.5186" transform="matrix(-0.645966 0.765166 0.412867 0.909632 -22.3484 63.2556)" fill="white"/>
        </g>
        <g filter="url(#filter1_f_564_3806)">
            <ellipse rx="59.1232" ry="119.717" transform="matrix(0.303059 0.952118 0.769149 -0.641217 155.373 26.847)" fill="#F8E378"/>
        </g>
        <g filter="url(#filter2_f_564_3806)">
            <ellipse rx="58.3129" ry="122.44" transform="matrix(-0.339589 0.941515 0.729863 0.681553 238.775 230.632)" fill="white"/>
        </g>
        <g filter="url(#filter3_f_564_3806)">
            <ellipse rx="41.0839" ry="53.8872" transform="matrix(-0.645966 0.765166 0.412867 0.909632 57.9038 186.319)" fill="#F8E378"/>
        </g>
        <g filter="url(#filter4_f_564_3806)">
            <ellipse rx="41.0839" ry="106.515" transform="matrix(-0.645966 0.765166 0.412867 0.909632 172.366 287.775)" fill="#545561"/>
        </g>
        <g filter="url(#filter5_f_564_3806)">
            <ellipse rx="44.0932" ry="87.4869" transform="matrix(-0.524494 -0.849944 -0.529242 0.849944 -38.5523 250.155)" fill="#7A7A7A"/>
        </g>
        <g style="mix-blend-mode:hard-light">
            <g filter="url(#filter6_f_564_3806)">
                <ellipse rx="49.1424" ry="93.5186" transform="matrix(-0.645966 0.765166 0.412867 0.909632 -22.3601 63.2543)" fill="white"/>
            </g>
            <g filter="url(#filter7_f_564_3806)">
                <ellipse rx="49.1424" ry="44.7516" transform="matrix(-0.645966 0.765166 0.412867 0.909632 22.0545 125.309)" fill="black"/>
            </g>
            <g filter="url(#filter8_f_564_3806)">
                <ellipse rx="109.136" ry="149.316" transform="matrix(0.161098 0.986481 0.919023 -0.396774 146.494 -9.51182)" fill="#CFD0DA"/>
            </g>
            <g filter="url(#filter9_f_564_3806)">
                <ellipse rx="41.0839" ry="79.7309" transform="matrix(-0.645966 0.765166 0.412867 0.909632 68.5699 209.826)" fill="white"/>
            </g>
            <g filter="url(#filter10_f_564_3806)">
                <ellipse rx="41.0839" ry="106.515" transform="matrix(-0.645966 0.765166 0.412867 0.909632 126.98 287.779)" fill="#545561"/>
            </g>
            <g filter="url(#filter11_f_564_3806)">
                <ellipse rx="44.0932" ry="107.06" transform="matrix(-0.524494 -0.849944 -0.529242 0.849944 -28.1957 233.517)" fill="black"/>
            </g>
        </g>
    </g>
    <g clip-path="url(#clip1_564_3806)">
        <path d="M178.109 110.09L175.724 108.044L172.875 105.741C172.952 106.282 173.008 106.937 172.983 107.643L175.432 109.661L178.054 111.954C178.13 111.337 178.15 110.71 178.109 110.09ZM175.348 110.173L172.947 108.232C172.922 108.505 172.883 108.779 172.83 109.054L175.209 111.016L177.802 113.281C177.877 113.002 177.938 112.723 177.985 112.436L175.348 110.173ZM175.125 111.549L172.716 109.539C172.674 109.712 172.62 109.886 172.56 110.057L175.041 112.098L177.491 114.233C177.554 114.084 177.606 113.933 177.654 113.779L175.125 111.549ZM174.971 112.557L172.405 110.45C172.341 110.607 172.269 110.76 172.185 110.915L174.893 113.109L177.124 115.051C177.199 114.914 177.267 114.774 177.327 114.63L174.971 112.557ZM172.08 128.36L172.043 128.332C172.013 128.405 171.979 128.48 171.946 128.556C171.929 128.593 171.911 128.629 171.893 128.665C171.767 128.941 171.616 129.226 171.439 129.515L171.463 129.533L177.4 133.887C177.636 133.493 177.826 133.1 177.974 132.724L172.08 128.36ZM171.289 129.807L171.263 129.787C171.151 129.955 171.028 130.127 170.894 130.295L170.927 130.318L176.865 134.667C176.984 134.512 177.096 134.359 177.198 134.202L171.289 129.807ZM170.739 130.558L170.705 130.533C170.618 130.637 170.529 130.737 170.434 130.841L170.477 130.873L176.389 135.227C176.389 135.227 176.448 135.162 176.544 135.053C176.574 135.019 176.612 134.979 176.646 134.933L170.739 130.558ZM139.103 130.287L138.852 130.101C138.765 130.205 138.677 130.305 138.581 130.409L144.534 134.793C144.534 134.793 144.595 134.73 144.692 134.619C144.721 134.586 144.759 134.545 144.793 134.501L139.103 130.287ZM139.409 129.355C139.297 129.523 139.176 129.693 139.041 129.861L139.281 130.036L145.01 134.233C145.13 134.08 145.241 133.926 145.345 133.768L139.409 129.355ZM140.19 127.9C140.159 127.972 140.126 128.048 140.093 128.124C140.075 128.16 140.059 128.197 140.039 128.233C139.914 128.509 139.763 128.794 139.584 129.083L139.781 129.228L145.547 133.455C145.783 133.06 145.973 132.668 146.121 132.292V132.288L140.19 127.9ZM103.914 103.087L101.057 100.632C100.955 101.125 100.858 101.648 100.763 102.192L106.092 106.876C106.18 106.299 106.272 105.738 106.368 105.193L103.914 103.087ZM100.668 102.75C100.623 103.007 100.579 103.275 100.535 103.54L105.885 108.244C105.929 107.944 105.974 107.643 106.02 107.346L100.668 102.75ZM103.315 106.589L100.456 104.049C100.426 104.238 100.395 104.431 100.364 104.628L105.734 109.335C105.76 109.16 105.782 108.983 105.806 108.81L103.315 106.589ZM103.159 107.599L100.311 105.109C100.284 105.302 100.256 105.495 100.224 105.692L103.082 108.152L105.599 110.357C105.621 110.184 105.644 110.008 105.668 109.831L103.159 107.599ZM104.185 129.427C104.154 129.5 104.121 129.576 104.086 129.652C104.07 129.688 104.053 129.724 104.034 129.761C103.909 130.035 103.758 130.322 103.579 130.61L109.54 134.982C109.778 134.586 109.967 134.194 110.114 133.819V133.816L104.185 129.427ZM103.404 130.881C103.292 131.049 103.169 131.221 103.036 131.389L103.215 131.519L109.005 135.761C109.125 135.608 109.236 135.453 109.34 135.296L103.576 131.01L103.404 130.881ZM102.845 131.627C102.76 131.731 102.67 131.831 102.575 131.935L102.763 132.074L108.529 136.32C108.529 136.32 108.59 136.256 108.685 136.147C108.716 136.112 108.752 136.073 108.788 136.028L102.845 131.627Z" fill="black"/>
        <path d="M78.9707 107.218C78.8706 108.161 78.7672 109.085 78.6654 109.991C78.4865 111.582 78.3158 113.103 78.1714 114.678H77.6511C77.6199 113.949 77.5953 113.339 77.5953 112.99C77.5953 110.242 78.1287 108.114 78.9707 107.218Z" fill="black"/>
        <path d="M157.05 140.605C156.492 140.267 156.216 140.082 155.675 139.683C155.276 139.387 154.862 139.361 154.633 139.646C153.659 140.856 153.174 141.461 152.2 142.67C151.97 142.956 152.154 143.426 152.673 143.809C153.37 144.325 153.725 144.563 154.444 144.998C155.811 145.919 158.227 146.287 158.941 144.355C159.454 142.961 158.826 141.679 157.052 140.605H157.05ZM157.483 143.733C157.076 144.609 156.236 144.969 154.815 144.096C154.441 143.867 154.255 143.744 153.887 143.492C154.596 142.438 154.951 141.912 155.66 140.857C155.973 141.072 156.131 141.176 156.451 141.372C157.669 142.121 157.892 142.859 157.485 143.735L157.483 143.733Z" fill="black"/>
        <path d="M162.364 144.297C161.019 144.041 159.75 144.424 159.436 145.384C159.121 146.351 160.093 147.551 161.695 147.856C163.297 148.159 164.582 147.395 164.642 146.381C164.701 145.371 163.71 144.553 162.364 144.297ZM163.113 146.236C163.047 146.727 162.51 147.051 161.87 146.929C161.212 146.803 160.831 146.307 160.948 145.825C161.064 145.348 161.585 145.111 162.19 145.226C162.78 145.338 163.178 145.752 163.113 146.237V146.236Z" fill="black"/>
        <path d="M168.642 143.987C169.064 143.919 169.361 143.571 169.295 143.241C169.23 142.911 168.85 142.702 168.457 142.765C168.063 142.827 167.761 143.144 167.797 143.479C167.833 143.814 168.22 144.055 168.642 143.987Z" fill="black"/>
        <path d="M169.477 144.764C169.418 144.452 169.095 144.324 168.703 144.386C168.31 144.449 168.04 144.67 168.076 144.987C168.196 146.028 168.255 146.549 168.374 147.59C168.411 147.907 168.782 148.055 169.249 147.981C169.717 147.907 170.026 147.651 169.966 147.338C169.771 146.308 169.674 145.794 169.479 144.764H169.477Z" fill="black"/>
        <path d="M174.757 145.544C174.523 145.376 174.168 145.411 173.933 145.601C173.802 145.708 173.658 145.785 173.497 145.846C173.26 145.937 173.009 145.904 172.922 145.655C172.753 145.175 172.668 144.936 172.499 144.456C172.914 144.307 173.119 144.226 173.525 144.055C173.855 143.916 173.951 143.621 173.848 143.393C173.748 143.17 173.472 143.043 173.157 143.175C172.771 143.339 172.574 143.415 172.18 143.556C172.097 143.32 172.056 143.203 171.972 142.969C171.867 142.669 171.544 142.586 171.188 142.7C170.831 142.814 170.615 143.07 170.698 143.377C170.764 143.617 170.797 143.738 170.863 143.979C170.749 144.01 170.692 144.027 170.579 144.056C170.249 144.144 170.144 144.398 170.2 144.642C170.254 144.881 170.469 145.071 170.817 144.98C170.936 144.949 170.996 144.932 171.115 144.899C171.26 145.431 171.334 145.696 171.478 146.227C171.677 146.953 172.448 147.26 173.763 146.762C174.089 146.638 174.452 146.45 174.718 146.214C174.939 146.018 175.008 145.729 174.759 145.548L174.757 145.544Z" fill="black"/>
        <path d="M180.446 139.719C179.742 139.041 178.903 139.369 178.26 139.928C177.928 140.216 177.685 140.559 177.646 140.89C177.447 140.767 177.158 140.819 176.894 141.009C176.572 141.242 176.431 141.56 176.607 141.824C177.186 142.695 177.475 143.131 178.054 144C178.23 144.264 178.627 144.23 179.011 143.954C179.395 143.677 179.554 143.311 179.361 143.06C178.951 142.53 178.745 142.266 178.335 141.738C178.155 141.507 178.256 141.161 178.571 140.899C178.891 140.631 179.243 140.608 179.448 140.836C179.889 141.329 180.111 141.575 180.552 142.068C180.764 142.304 181.155 142.213 181.498 141.882C181.841 141.552 181.947 141.164 181.719 140.943C181.21 140.453 180.956 140.209 180.447 139.719H180.446Z" fill="black"/>
        <path d="M184.306 134.991C183.406 134.537 182.249 135.156 181.485 136.287C180.721 137.419 180.598 138.708 181.353 139.376C182.113 140.047 183.561 139.665 184.47 138.315C185.379 136.967 185.21 135.448 184.306 134.991ZM183.692 137.787C183.318 138.341 182.719 138.487 182.325 138.188C181.936 137.893 181.919 137.325 182.262 136.815C182.597 136.32 183.136 136.112 183.554 136.365C183.978 136.621 184.056 137.248 183.692 137.785V137.787Z" fill="black"/>
        <path d="M187.708 128.454C186.761 127.698 186.27 127.35 185.271 126.725C185.041 126.58 184.764 126.74 184.652 127.161C184.534 127.599 184.593 127.974 184.859 128.147C185.502 128.56 185.819 128.777 186.441 129.241C185.778 129.505 185.445 129.622 184.777 129.825C184.531 129.901 184.352 130.12 184.281 130.409C184.211 130.698 184.26 130.973 184.447 131.156C184.943 131.65 185.184 131.905 185.652 132.442C184.887 132.539 184.506 132.572 183.749 132.61C183.436 132.626 183.231 132.914 183.145 133.323C183.063 133.714 183.244 133.981 183.503 133.971C184.659 133.941 185.246 133.89 186.423 133.712C186.694 133.669 186.988 133.372 187.125 132.958C187.263 132.544 187.198 132.138 187.007 131.935C186.599 131.483 186.39 131.265 185.962 130.843C186.536 130.683 186.823 130.592 187.396 130.391C187.657 130.302 187.902 129.957 187.977 129.508C188.053 129.05 187.935 128.632 187.71 128.456L187.708 128.454Z" fill="black"/>
        <path d="M103.615 122.639C103.051 122.813 102.435 122.902 101.777 122.902C97.4836 122.902 97.4836 118.328 97.4836 116.604C97.4836 111.753 98.6013 103.455 99.6517 98.7675C99.7518 98.3254 99.8503 97.9146 99.9471 97.5433C97.7364 95.9826 94.5508 95.0356 91.3963 95.0356C88.992 95.0356 85.5602 95.5933 82.8604 98.2495C82.624 98.4821 82.3155 98.6223 81.9905 98.6454C81.9101 98.652 81.8264 98.6504 81.7443 98.6421C81.618 98.6289 81.4965 98.5992 81.3816 98.5547C81.119 98.454 80.8909 98.2726 80.7301 98.0333C79.6501 96.4281 76.732 94.803 73.2428 94.803C65.1467 94.803 60.3116 100.336 60.3116 109.608C60.3116 111.603 60.5316 113.73 61.0453 116.716C61.1487 117.311 60.8582 117.907 60.3264 118.192C57.4855 119.708 55.7884 122.734 55.7884 126.283C55.7884 129.418 57.5199 132.574 61.2947 133.851C62.4091 134.228 63.7024 134.441 65.1811 134.441C71.3702 134.441 74.4311 131.858 75.1072 126.06C75.1893 125.354 75.7834 124.823 76.4908 124.823H79.9127C80.561 124.823 81.1239 125.272 81.2717 125.907C81.7903 128.152 82.6536 129.934 83.891 131.277C84.7822 132.245 85.8687 132.984 87.1604 133.502C88.7277 134.134 90.5971 134.441 92.7881 134.441C99.7239 134.441 103.863 130.891 103.863 124.942C103.863 124.198 103.783 123.444 103.615 122.639ZM81.9396 105.542C81.7854 107.193 81.6065 108.775 81.4358 110.306C81.2109 112.302 80.9992 114.187 80.8384 116.193C80.7809 116.92 80.1753 117.481 79.4499 117.481H76.3168C75.5717 117.481 74.9562 116.891 74.9251 116.14L74.8906 115.383C74.8446 114.325 74.8069 113.49 74.8069 112.99C74.8069 104.603 78.7146 103.951 79.9127 103.951C80.1179 103.951 80.3985 103.951 80.8236 104.037C81.5244 104.177 82.0053 104.827 81.9396 105.542Z" fill="#FDD22C"/>
        <path d="M139.881 123.251C139.881 123.826 139.845 124.382 139.771 124.919C138.97 130.917 133.741 134.441 125.442 134.441C120.607 134.441 116.215 133.029 113.077 130.464C112.642 130.107 112.233 129.733 111.853 129.338C111.838 129.324 111.823 129.309 111.81 129.294C110.96 128.41 110.251 127.433 109.684 126.375C108.603 124.359 108.045 122.048 108.045 119.519C108.045 114.983 109.775 110.842 112.916 107.858C116.325 104.618 121.137 102.905 126.834 102.905C128.248 102.905 130.014 103.062 131.884 103.229C134.278 103.44 136.743 103.658 138.746 103.565C139.113 104.654 139.323 105.923 139.415 106.957C139.456 107.411 139.476 107.82 139.476 108.15C139.476 111.747 137.876 113.571 134.721 113.571C132.524 113.571 130.265 112.418 127.168 109.716C126.857 109.445 126.441 109.325 126.036 109.391C125.629 109.455 125.271 109.697 125.059 110.054C124.165 111.552 124.165 113.037 124.165 113.923C124.165 116.029 124.981 117.904 126.463 119.199C127.932 120.486 130.036 121.195 132.565 121.264C132.703 121.269 132.842 121.271 132.982 121.271C135.046 121.271 137.262 120.728 139.264 119.755C139.29 119.763 139.318 119.77 139.346 119.776C139.697 120.924 139.881 122.102 139.881 123.251Z" fill="#FDD22C"/>
        <path d="M176.735 122.833L173.605 119.482C177.675 119.202 179.399 115.294 179.399 111.979C179.399 109.572 178.704 107.546 177.93 106.769L172.811 101.199C172.588 100.952 172.366 100.729 172.167 100.558C172.139 100.533 172.11 100.51 172.08 100.49L172.025 100.45C171.726 100.252 171.362 100.201 171.002 100.244C170.262 100.333 169.581 100.445 168.887 100.553L165.557 95.3326C165.422 95.0967 165.287 94.9202 165.128 94.7552C165.09 94.7172 165.053 94.6809 165.012 94.6479L164.99 94.6314C164.736 94.4302 164.419 94.3246 164.094 94.3295C154.984 94.5473 147.762 98.1802 143.659 104.256L140.761 101.239C140.467 100.846 139.983 100.633 139.484 100.694C137.623 100.92 134.83 100.673 132.128 100.434C130.196 100.264 128.37 100.102 126.834 100.102C120.411 100.102 114.936 102.079 111.001 105.819C108.57 108.128 106.855 111.017 105.965 114.233C106.456 109.879 107.228 105.301 107.917 102.757C108.035 102.32 107.92 101.853 107.613 101.521C106.236 100.031 102.519 96.0041 102.519 96.0041L102.516 96.0074C102.494 95.9859 102.471 95.9645 102.448 95.9447C99.7255 93.6218 95.5946 92.2326 91.3963 92.2326C87.7627 92.2326 84.5541 93.2769 82.025 95.265C79.9817 93.2934 76.6024 92 73.2428 92C65.644 92 57.5248 96.6261 57.5248 109.608C57.5248 111.547 57.7103 113.571 58.1403 116.239C54.9038 118.367 53 122.048 53 126.283C53 130.11 55.0039 134.149 59.2941 136.081L65.4437 139.318C67.103 140.305 69.2103 140.895 71.7542 140.895C76.8125 140.895 80.9894 139.255 82.5518 133.885C83.4627 134.715 84.4688 135.479 85.5717 136.108L91.5752 139.175C93.6809 140.362 96.0476 140.895 99.3612 140.895C106.138 140.895 110.377 137.721 111.519 132.819C112.796 133.839 114.27 134.639 115.768 135.471L121.39 138.373L121.403 138.364C124.437 140.019 128.097 140.895 132.015 140.895C140.603 140.895 145.519 137.312 147.19 132.404C148.337 133.595 149.647 134.565 151.286 135.359L157.661 138.628V138.622C159.868 139.8 162.54 140.371 165.538 140.371C174.411 140.371 179.458 135.299 179.458 129.586C179.458 128.84 179.371 128.086 179.192 127.334C178.791 125.643 177.92 124.1 176.735 122.833ZM175.724 108.044L178.109 110.09C178.15 110.71 178.13 111.337 178.054 111.954L175.432 109.661L172.983 107.643C173.008 106.937 172.952 106.282 172.875 105.741L175.724 108.044ZM172.947 108.232L175.348 110.173L177.985 112.436C177.938 112.723 177.877 113.002 177.802 113.281L175.209 111.016L172.83 109.054C172.883 108.779 172.922 108.505 172.947 108.232ZM172.716 109.539L175.125 111.549L177.654 113.779C177.606 113.933 177.554 114.084 177.491 114.233L175.041 112.098L172.56 110.057C172.62 109.886 172.674 109.712 172.716 109.539ZM172.405 110.45L174.971 112.557L177.327 114.63C177.267 114.774 177.199 114.914 177.124 115.051L174.893 113.109L172.185 110.915C172.269 110.76 172.341 110.607 172.405 110.45ZM101.057 100.632L103.914 103.087L106.368 105.192C106.272 105.738 106.18 106.299 106.092 106.876L100.763 102.192C100.858 101.648 100.955 101.125 101.057 100.632ZM100.668 102.75L106.02 107.346C105.974 107.643 105.929 107.944 105.885 108.244L100.535 103.54C100.579 103.275 100.623 103.007 100.668 102.75ZM100.456 104.049L103.315 106.589L105.806 108.81C105.782 108.983 105.76 109.16 105.734 109.335L100.364 104.628C100.395 104.431 100.426 104.238 100.456 104.049ZM100.311 105.109L103.159 107.599L105.668 109.831C105.644 110.008 105.621 110.184 105.599 110.357L103.082 108.152L100.224 105.692C100.256 105.495 100.284 105.302 100.311 105.109ZM92.7881 134.441C90.5971 134.441 88.7277 134.134 87.1604 133.502C85.8687 132.984 84.7822 132.245 83.891 131.277C82.6536 129.934 81.7903 128.152 81.2717 125.907C81.1239 125.272 80.561 124.823 79.9127 124.823H76.4908C75.7834 124.823 75.1893 125.354 75.1072 126.06C74.4311 131.858 71.3702 134.441 65.1811 134.441C63.7024 134.441 62.4091 134.228 61.2947 133.851C57.5199 132.574 55.7884 129.418 55.7884 126.283C55.7884 122.734 57.4855 119.708 60.3264 118.192C60.8582 117.907 61.1487 117.311 61.0453 116.716C60.5316 113.73 60.3116 111.603 60.3116 109.608C60.3116 100.336 65.1467 94.803 73.2428 94.803C76.732 94.803 79.6501 96.4281 80.7301 98.0333C80.8909 98.2726 81.119 98.454 81.3816 98.5547C81.4965 98.5992 81.618 98.6289 81.7443 98.6421C81.8264 98.6504 81.9101 98.652 81.9905 98.6454C82.3155 98.6223 82.624 98.4821 82.8604 98.2495C85.5602 95.5933 88.992 95.0356 91.3963 95.0356C94.5508 95.0356 97.7364 95.9826 99.9471 97.5433C99.8503 97.9146 99.7518 98.3254 99.6517 98.7675C98.6013 103.455 97.4836 111.753 97.4836 116.604C97.4836 118.328 97.4836 122.902 101.777 122.902C102.435 122.902 103.051 122.813 103.615 122.639C103.783 123.444 103.863 124.198 103.863 124.942C103.863 130.891 99.7239 134.441 92.7881 134.441ZM108.685 136.147C108.59 136.256 108.529 136.32 108.529 136.32L102.763 132.074L102.575 131.935C102.67 131.831 102.76 131.731 102.845 131.627L108.788 136.028C108.752 136.073 108.716 136.112 108.685 136.147ZM109.005 135.761L103.215 131.519L103.036 131.389C103.169 131.221 103.292 131.049 103.404 130.881L103.576 131.01L109.34 135.296C109.236 135.453 109.125 135.608 109.005 135.761ZM110.114 133.819C109.967 134.194 109.778 134.586 109.54 134.982L103.579 130.61C103.758 130.322 103.909 130.035 104.034 129.761C104.053 129.724 104.07 129.688 104.086 129.652C104.121 129.576 104.154 129.5 104.185 129.427L110.114 133.816V133.819ZM125.442 134.441C120.607 134.441 116.215 133.029 113.077 130.464C112.642 130.107 112.233 129.733 111.853 129.338C111.838 129.324 111.823 129.309 111.81 129.294C110.96 128.41 110.251 127.433 109.684 126.375C108.603 124.359 108.045 122.048 108.045 119.519C108.045 114.983 109.775 110.842 112.916 107.858C116.325 104.618 121.137 102.905 126.834 102.905C128.248 102.905 130.014 103.062 131.884 103.229C134.278 103.44 136.743 103.658 138.746 103.565C139.113 104.654 139.323 105.923 139.415 106.957C139.456 107.411 139.476 107.82 139.476 108.15C139.476 111.747 137.876 113.571 134.721 113.571C132.524 113.571 130.265 112.418 127.168 109.716C126.857 109.445 126.441 109.325 126.036 109.391C125.629 109.455 125.271 109.697 125.059 110.054C124.165 111.552 124.165 113.037 124.165 113.923C124.165 116.029 124.981 117.904 126.463 119.199C127.932 120.486 130.036 121.195 132.565 121.264C132.703 121.269 132.842 121.271 132.982 121.271C135.046 121.271 137.262 120.728 139.264 119.755C139.29 119.763 139.318 119.77 139.346 119.776C139.697 120.924 139.881 122.102 139.881 123.251C139.881 123.826 139.845 124.382 139.771 124.919C138.97 130.917 133.741 134.441 125.442 134.441ZM135.749 118.093C134.818 118.337 133.881 118.468 132.982 118.468C132.691 118.468 132.41 118.458 132.138 118.438C132.158 117.772 132.248 116.965 132.657 116.14C132.886 116.193 133.116 116.236 133.344 116.27C134.173 116.97 134.971 117.58 135.749 118.093ZM144.692 134.619C144.595 134.73 144.534 134.793 144.534 134.793L138.581 130.409C138.677 130.305 138.765 130.205 138.852 130.101L139.103 130.287L144.793 134.501C144.759 134.545 144.721 134.586 144.692 134.619ZM145.01 134.233L139.281 130.036L139.041 129.861C139.176 129.693 139.297 129.523 139.409 129.355L145.345 133.768C145.241 133.926 145.13 134.08 145.01 134.233ZM146.121 132.292C145.973 132.668 145.783 133.06 145.547 133.455L139.781 129.228L139.584 129.083C139.763 128.794 139.914 128.509 140.039 128.233C140.059 128.197 140.075 128.16 140.093 128.124C140.126 128.048 140.159 127.972 140.19 127.9L146.121 132.288V132.292ZM158.965 133.917C156.382 133.917 154.152 133.481 152.297 132.615C151.224 132.117 150.277 131.473 149.459 130.69C148.841 130.096 148.301 129.424 147.843 128.675C146.901 127.142 146.294 125.29 146.024 123.13C145.914 122.267 145.86 121.355 145.86 120.393C145.86 119.677 145.9 118.915 145.983 118.072C146.09 116.978 146.271 115.744 146.533 114.291C146.602 113.911 146.513 113.522 146.287 113.212C146.062 112.901 145.719 112.698 145.34 112.649L143.206 112.372C143.618 110.511 144.27 108.787 145.143 107.221C148.37 101.425 154.593 97.7826 162.652 97.2051L162.387 102.069C162.386 102.09 162.386 102.112 162.386 102.133C162.382 102.494 162.519 102.846 162.766 103.11C163.031 103.389 163.397 103.547 163.779 103.547H164.88C167.002 103.547 168.875 103.42 170.572 103.159C170.605 103.154 170.638 103.149 170.671 103.144C171.027 103.837 171.432 105.184 171.432 106.926C171.432 107.013 171.43 107.104 171.426 107.198C171.343 109.367 170.255 113.047 166.563 113.047H163.779C163.085 113.047 162.497 113.558 162.399 114.249C162.272 115.139 162.21 115.909 162.21 116.604C162.21 119.979 163.805 121.621 167.084 121.621C168.141 121.621 169.236 121.38 170.2 120.961C170.341 120.901 170.48 120.835 170.615 120.768C171.191 121.989 171.491 123.269 171.491 124.533C171.491 124.631 171.49 124.732 171.485 124.831C171.317 129.264 167.382 133.917 158.965 133.917ZM176.544 135.053C176.448 135.162 176.389 135.227 176.389 135.227L170.477 130.873L170.434 130.841C170.529 130.737 170.618 130.637 170.705 130.533L170.739 130.558L176.646 134.933C176.612 134.979 176.574 135.019 176.544 135.053ZM176.865 134.667L170.927 130.318L170.894 130.295C171.028 130.127 171.151 129.955 171.263 129.787L171.289 129.807L177.198 134.202C177.096 134.359 176.984 134.512 176.865 134.667ZM177.4 133.887L171.463 129.533L171.439 129.515C171.616 129.226 171.767 128.941 171.893 128.665C171.911 128.629 171.929 128.593 171.946 128.556C171.979 128.48 172.013 128.405 172.043 128.332L172.08 128.36L177.974 132.722C177.826 133.1 177.636 133.493 177.4 133.887Z" fill="black"/>
        <path d="M80.8236 104.037C80.3985 103.951 80.1179 103.951 79.9127 103.951C78.7146 103.951 74.8069 104.603 74.8069 112.99C74.8069 113.49 74.8446 114.325 74.8906 115.383L74.9251 116.14C74.9562 116.891 75.5717 117.481 76.3168 117.481H79.4499C80.1753 117.481 80.7809 116.92 80.8384 116.193C80.9992 114.187 81.2109 112.302 81.4358 110.306C81.6065 108.775 81.7854 107.193 81.9396 105.542C82.0053 104.827 81.5244 104.177 80.8236 104.037ZM78.6654 109.991C78.4865 111.582 78.3158 113.103 78.1714 114.678H77.6511C77.6199 113.949 77.5953 113.339 77.5953 112.99C77.5953 110.242 78.1287 108.114 78.9707 107.218C78.8706 108.161 78.7672 109.085 78.6654 109.991Z" fill="black"/>
        <path d="M171.491 124.533C171.491 124.631 171.49 124.732 171.485 124.831C171.317 129.264 167.382 133.917 158.965 133.917C156.382 133.917 154.152 133.481 152.297 132.615C151.224 132.117 150.277 131.473 149.459 130.69C148.841 130.096 148.301 129.424 147.843 128.675C146.901 127.142 146.294 125.29 146.024 123.13C145.914 122.267 145.86 121.355 145.86 120.393C145.86 119.677 145.9 118.915 145.983 118.072C146.09 116.978 146.271 115.744 146.533 114.291C146.602 113.911 146.513 113.522 146.287 113.212C146.062 112.901 145.719 112.698 145.34 112.649L143.206 112.372C143.618 110.511 144.27 108.787 145.143 107.221C148.37 101.425 154.593 97.7826 162.652 97.2051L162.387 102.069C162.386 102.09 162.386 102.112 162.386 102.133C162.382 102.494 162.519 102.846 162.766 103.11C163.031 103.389 163.397 103.547 163.779 103.547H164.88C167.002 103.547 168.875 103.42 170.572 103.159C170.605 103.154 170.638 103.149 170.671 103.144C171.027 103.837 171.432 105.184 171.432 106.926C171.432 107.013 171.43 107.104 171.426 107.198C171.343 109.367 170.255 113.047 166.563 113.047H163.779C163.085 113.047 162.497 113.558 162.399 114.249C162.272 115.139 162.21 115.909 162.21 116.604C162.21 119.979 163.805 121.621 167.084 121.621C168.141 121.621 169.236 121.38 170.2 120.961C170.341 120.901 170.48 120.835 170.615 120.768C171.191 121.989 171.491 123.269 171.491 124.533Z" fill="#FDD22C"/>
        <path d="M106.02 107.346C105.974 107.643 105.929 107.944 105.885 108.244L100.535 103.54C100.579 103.275 100.623 103.007 100.668 102.75L106.02 107.346Z" fill="white"/>
        <path d="M106.368 105.192C106.272 105.738 106.18 106.299 106.092 106.876L100.763 102.192C100.858 101.648 100.955 101.125 101.057 100.632L103.914 103.087L106.368 105.192Z" fill="white"/>
        <path d="M105.806 108.81C105.782 108.983 105.76 109.16 105.734 109.335L100.364 104.628C100.395 104.431 100.426 104.238 100.456 104.049L103.315 106.589L105.806 108.81Z" fill="white"/>
        <path d="M105.668 109.831C105.644 110.008 105.621 110.184 105.599 110.357L103.082 108.152L100.224 105.692C100.256 105.495 100.284 105.302 100.311 105.109L103.159 107.599L105.668 109.831Z" fill="white"/>
        <path d="M110.114 133.816V133.819C109.967 134.194 109.778 134.586 109.54 134.982L103.579 130.61C103.758 130.322 103.909 130.035 104.034 129.761C104.053 129.724 104.07 129.688 104.086 129.652C104.121 129.576 104.154 129.5 104.185 129.427L110.114 133.816Z" fill="white"/>
        <path d="M109.34 135.296C109.236 135.453 109.125 135.608 109.005 135.761L103.215 131.519L103.036 131.389C103.169 131.221 103.292 131.049 103.404 130.881L103.576 131.01L109.34 135.296Z" fill="white"/>
        <path d="M108.788 136.028C108.752 136.073 108.716 136.112 108.685 136.147C108.59 136.256 108.529 136.32 108.529 136.32L102.763 132.074L102.575 131.935C102.67 131.831 102.76 131.731 102.845 131.627L108.788 136.028Z" fill="white"/>
        <path d="M146.121 132.288V132.292C145.973 132.668 145.783 133.06 145.547 133.455L139.781 129.228L139.584 129.083C139.763 128.794 139.914 128.509 140.039 128.233C140.059 128.197 140.075 128.16 140.093 128.124C140.126 128.048 140.159 127.972 140.19 127.9L146.121 132.288Z" fill="white"/>
        <path d="M145.345 133.768C145.241 133.926 145.13 134.08 145.01 134.233L139.281 130.036L139.041 129.861C139.176 129.693 139.297 129.523 139.409 129.355L145.345 133.768Z" fill="white"/>
        <path d="M144.793 134.501C144.759 134.545 144.721 134.586 144.692 134.619C144.595 134.73 144.534 134.793 144.534 134.793L138.581 130.409C138.677 130.305 138.765 130.205 138.852 130.101L139.103 130.287L144.793 134.501Z" fill="white"/>
        <path d="M177.974 132.722C177.826 133.1 177.636 133.493 177.4 133.887L171.463 129.533L171.439 129.515C171.616 129.226 171.767 128.941 171.893 128.665C171.911 128.629 171.929 128.593 171.946 128.556C171.979 128.48 172.013 128.405 172.043 128.332L172.08 128.36L177.974 132.722Z" fill="white"/>
        <path d="M177.198 134.202C177.096 134.359 176.984 134.512 176.865 134.667L170.927 130.318L170.894 130.295C171.028 130.127 171.151 129.955 171.263 129.787L171.289 129.807L177.198 134.202Z" fill="white"/>
        <path d="M176.646 134.933C176.612 134.979 176.574 135.019 176.544 135.053C176.448 135.162 176.389 135.227 176.389 135.227L170.477 130.873L170.434 130.841C170.529 130.737 170.618 130.637 170.705 130.533L170.739 130.558L176.646 134.933Z" fill="white"/>
        <path d="M177.985 112.436C177.938 112.723 177.877 113.002 177.802 113.281L175.209 111.016L172.83 109.054C172.883 108.779 172.922 108.505 172.947 108.232L175.348 110.173L177.985 112.436Z" fill="white"/>
        <path d="M178.054 111.954L175.432 109.661L172.983 107.643C173.008 106.937 172.952 106.282 172.875 105.741L175.724 108.044L178.109 110.09C178.15 110.71 178.13 111.337 178.054 111.954Z" fill="white"/>
        <path d="M177.654 113.779C177.606 113.933 177.554 114.084 177.491 114.233L175.041 112.098L172.56 110.057C172.62 109.886 172.674 109.712 172.716 109.539L175.125 111.549L177.654 113.779Z" fill="white"/>
        <path d="M177.327 114.63C177.267 114.774 177.199 114.914 177.124 115.051L174.893 113.109L172.185 110.915C172.269 110.76 172.341 110.607 172.405 110.45L174.971 112.557L177.327 114.63Z" fill="white"/>
        <path d="M78.9707 107.218C78.8706 108.161 78.7672 109.085 78.6654 109.991C78.4865 111.582 78.3158 113.103 78.1714 114.678H77.6511C77.6199 113.949 77.5953 113.339 77.5953 112.99C77.5953 110.242 78.1287 108.114 78.9707 107.218Z" fill="white"/>
    </g>
    <defs>
        <filter id="filter0_f_564_3806" x="-165.728" y="-123.168" width="286.758" height="372.847" filterUnits="userSpaceOnUse" color-interpolation-filters="sRGB">
            <feFlood flood-opacity="0" result="BackgroundImageFix"/>
            <feBlend mode="normal" in="SourceGraphic" in2="BackgroundImageFix" result="shape"/>
            <feGaussianBlur stdDeviation="46.6964" result="effect1_foregroundBlur_564_3806"/>
        </filter>
        <filter id="filter1_f_564_3806" x="-31.8449" y="-161.744" width="374.435" height="377.183" filterUnits="userSpaceOnUse" color-interpolation-filters="sRGB">
            <feFlood flood-opacity="0" result="BackgroundImageFix"/>
            <feBlend mode="normal" in="SourceGraphic" in2="BackgroundImageFix" result="shape"/>
            <feGaussianBlur stdDeviation="46.6964" result="effect1_foregroundBlur_564_3806"/>
        </filter>
        <filter id="filter2_f_564_3806" x="-24.3817" y="-40.8749" width="526.313" height="543.014" filterUnits="userSpaceOnUse" color-interpolation-filters="sRGB">
            <feFlood flood-opacity="0" result="BackgroundImageFix"/>
            <feBlend mode="normal" in="SourceGraphic" in2="BackgroundImageFix" result="shape"/>
            <feGaussianBlur stdDeviation="85.8027" result="effect1_foregroundBlur_564_3806"/>
        </filter>
        <filter id="filter3_f_564_3806" x="-148.333" y="-43.5248" width="412.473" height="459.689" filterUnits="userSpaceOnUse" color-interpolation-filters="sRGB">
            <feFlood flood-opacity="0" result="BackgroundImageFix"/>
            <feBlend mode="normal" in="SourceGraphic" in2="BackgroundImageFix" result="shape"/>
            <feGaussianBlur stdDeviation="85.8027" result="effect1_foregroundBlur_564_3806"/>
        </filter>
        <filter id="filter4_f_564_3806" x="27.6024" y="92.4935" width="289.529" height="390.564" filterUnits="userSpaceOnUse" color-interpolation-filters="sRGB">
            <feFlood flood-opacity="0" result="BackgroundImageFix"/>
            <feBlend mode="normal" in="SourceGraphic" in2="BackgroundImageFix" result="shape"/>
            <feGaussianBlur stdDeviation="46.6964" result="effect1_foregroundBlur_564_3806"/>
        </filter>
        <filter id="filter5_f_564_3806" x="-261.925" y="-4.7375" width="446.745" height="509.785" filterUnits="userSpaceOnUse" color-interpolation-filters="sRGB">
            <feFlood flood-opacity="0" result="BackgroundImageFix"/>
            <feBlend mode="normal" in="SourceGraphic" in2="BackgroundImageFix" result="shape"/>
            <feGaussianBlur stdDeviation="85.8027" result="effect1_foregroundBlur_564_3806"/>
        </filter>
        <filter id="filter6_f_564_3806" x="-243.952" y="-201.382" width="443.183" height="529.272" filterUnits="userSpaceOnUse" color-interpolation-filters="sRGB">
            <feFlood flood-opacity="0" result="BackgroundImageFix"/>
            <feBlend mode="normal" in="SourceGraphic" in2="BackgroundImageFix" result="shape"/>
            <feGaussianBlur stdDeviation="85.8027" result="effect1_foregroundBlur_564_3806"/>
        </filter>
        <filter id="filter7_f_564_3806" x="-129.085" y="-44.5121" width="302.279" height="339.641" filterUnits="userSpaceOnUse" color-interpolation-filters="sRGB">
            <feFlood flood-opacity="0" result="BackgroundImageFix"/>
            <feBlend mode="normal" in="SourceGraphic" in2="BackgroundImageFix" result="shape"/>
            <feGaussianBlur stdDeviation="57.2018" result="effect1_foregroundBlur_564_3806"/>
        </filter>
        <filter id="filter8_f_564_3806" x="-85.2609" y="-225.812" width="463.508" height="432.6" filterUnits="userSpaceOnUse" color-interpolation-filters="sRGB">
            <feFlood flood-opacity="0" result="BackgroundImageFix"/>
            <feBlend mode="normal" in="SourceGraphic" in2="BackgroundImageFix" result="shape"/>
            <feGaussianBlur stdDeviation="46.6964" result="effect1_foregroundBlur_564_3806"/>
        </filter>
        <filter id="filter9_f_564_3806" x="-88.1184" y="16.3568" width="313.377" height="386.939" filterUnits="userSpaceOnUse" color-interpolation-filters="sRGB">
            <feFlood flood-opacity="0" result="BackgroundImageFix"/>
            <feBlend mode="normal" in="SourceGraphic" in2="BackgroundImageFix" result="shape"/>
            <feGaussianBlur stdDeviation="57.2018" result="effect1_foregroundBlur_564_3806"/>
        </filter>
        <filter id="filter10_f_564_3806" x="-17.7843" y="92.4968" width="289.529" height="390.564" filterUnits="userSpaceOnUse" color-interpolation-filters="sRGB">
            <feFlood flood-opacity="0" result="BackgroundImageFix"/>
            <feBlend mode="normal" in="SourceGraphic" in2="BackgroundImageFix" result="shape"/>
            <feGaussianBlur stdDeviation="46.6964" result="effect1_foregroundBlur_564_3806"/>
        </filter>
        <filter id="filter11_f_564_3806" x="-261.016" y="-36.5249" width="465.64" height="540.084" filterUnits="userSpaceOnUse" color-interpolation-filters="sRGB">
            <feFlood flood-opacity="0" result="BackgroundImageFix"/>
            <feBlend mode="normal" in="SourceGraphic" in2="BackgroundImageFix" result="shape"/>
            <feGaussianBlur stdDeviation="85.8027" result="effect1_foregroundBlur_564_3806"/>
        </filter>
        <clipPath id="clip0_564_3806">
            <rect width="240" height="240" rx="27.9326" fill="white"/>
        </clipPath>
        <clipPath id="clip1_564_3806">
            <rect width="135" height="56" fill="white" transform="translate(53 92)"/>
        </clipPath>
    </defs>
</svg>
