<svg width="200" height="32" viewBox="0 0 200 32" fill="none" xmlns="http://www.w3.org/2000/svg">
    <g clip-path="url(#clip0_565_3574)">
        <path d="M75.3329 16.8246C75.297 12.876 78.5607 10.9787 78.7077 10.8855C76.8715 8.19926 74.0167 7.83344 72.9981 7.7904C70.5701 7.54294 68.2569 9.22139 67.0231 9.22139C65.7894 9.22139 63.8886 7.82627 61.873 7.86572C59.2227 7.90517 56.7803 9.40429 55.4139 11.7785C52.6631 16.5484 54.711 23.6245 57.3936 27.5014C58.7062 29.395 60.2663 31.5289 62.3213 31.45C64.3011 31.3711 65.047 30.1697 67.4356 30.1697C69.8241 30.1697 70.4984 31.45 72.5857 31.4106C74.7124 31.3675 76.0609 29.4739 77.3628 27.5731C78.8655 25.3746 79.486 23.2443 79.5218 23.1331C79.4752 23.1152 75.3759 21.5443 75.3329 16.8246Z" fill="black"/>
        <path d="M71.4064 5.22641C72.4962 3.90663 73.2313 2.06966 73.0307 0.241333C71.4601 0.306198 69.5591 1.28782 68.433 2.60847C67.4255 3.77431 66.5303 5.64241 66.7794 7.43614C68.5264 7.57279 70.3167 6.54274 71.4064 5.22728" fill="black"/>
        <path d="M89.1013 20.7083L87.2851 26.1846H84.9707L90.8846 8.7749H93.596L99.535 26.1846H97.1307L95.2695 20.7083H89.1013ZM94.8111 18.9509L93.1073 13.9407C92.7199 12.8034 92.4622 11.7699 92.2036 10.7632H92.1534L91.2756 13.9243L89.5718 18.9596L94.8111 18.9509Z" fill="black"/>
        <path d="M101.295 17.7643L101.191 13.6822H103.232L103.336 15.827H103.386C104.315 14.3031 105.789 13.3993 107.83 13.3993C110.854 13.3993 113.123 15.9568 113.123 19.7544C113.123 24.2482 110.387 26.4683 107.441 26.4683C105.787 26.4683 104.342 25.7436 103.592 24.5068H103.542V31.3081H101.293L101.295 17.7643ZM103.54 21.0958C103.54 21.4417 103.591 21.741 103.644 22.0246C104.057 23.5987 105.426 24.6858 107.055 24.6858C109.458 24.6858 110.861 22.7243 110.861 19.8547C110.861 17.3466 109.544 15.2069 107.142 15.2069C105.585 15.2069 104.147 16.3191 103.706 18.022C103.61 18.3228 103.559 18.6356 103.552 18.9509V21.0958H103.54ZM115.473 17.7643L115.369 13.6822H117.41L117.514 15.827H117.564C118.493 14.3031 119.967 13.3993 122.008 13.3993C125.031 13.3993 127.301 15.9568 127.301 19.7544C127.301 24.2482 124.564 26.4683 121.619 26.4683C119.965 26.4683 118.52 25.7436 117.77 24.5068H117.72V31.3081H115.471L115.473 17.7643ZM117.722 21.0958C117.722 21.4417 117.772 21.741 117.825 22.0246C118.238 23.5987 119.607 24.6858 121.236 24.6858C123.639 24.6858 125.042 22.7243 125.042 19.8547C125.042 17.3466 123.725 15.2069 121.323 15.2069C119.766 15.2069 118.328 16.3191 117.887 18.022C117.792 18.3228 117.74 18.6356 117.733 18.9509V21.0958H117.722ZM129.653 7.84778H131.928V26.1855H129.653V7.84778ZM136.496 20.3468C136.546 23.4205 138.511 24.6867 140.781 24.6867C142.41 24.6867 143.389 24.403 144.243 24.0415L144.63 25.67C143.83 26.0333 142.468 26.445 140.474 26.445C136.625 26.445 134.326 23.9126 134.326 20.1436C134.326 16.3745 136.546 13.4011 140.19 13.4011C144.272 13.4011 145.353 16.9903 145.353 19.2822C145.353 19.7492 145.303 20.1072 145.267 20.3399L136.496 20.3468ZM143.16 18.7183C143.186 17.2739 142.565 15.0253 140.007 15.0253C137.709 15.0253 136.701 17.1442 136.522 18.7183H143.16Z" fill="black"/>
    </g>
    <defs>
        <clipPath id="clip0_565_3574">
            <rect width="91.6757" height="32" fill="white" transform="translate(54)"/>
        </clipPath>
    </defs>
</svg>
