<svg width="200" height="32" viewBox="0 0 200 32" fill="none" xmlns="http://www.w3.org/2000/svg">
    <path d="M75.0029 11.3032H63.6124V14.6831H71.6913C71.291 19.414 67.3489 21.4446 63.626 21.4446C62.4466 21.4498 61.278 21.22 60.1885 20.7686C59.0989 20.3172 58.1101 19.6532 57.2799 18.8155C56.4498 17.9778 55.7948 16.9831 55.3532 15.8894C54.9117 14.7958 54.6925 13.6252 54.7083 12.4459C54.7083 7.32925 58.6695 3.38987 63.637 3.38987C67.469 3.38987 69.7271 5.83265 69.7271 5.83265L72.0925 3.38168C72.0925 3.38168 69.0538 0 63.5132 0C56.4578 0 51 5.95456 51 12.3858C51 18.6879 56.1339 24.8336 63.6915 24.8336C70.3394 24.8336 75.2058 20.2792 75.2058 13.5449C75.2058 12.1238 74.9993 11.3032 74.9993 11.3032H75.0029Z" fill="#4885ED"/>
    <path d="M84.3349 8.85504C79.6604 8.85504 76.3105 12.5097 76.3105 16.7702C76.3105 21.0953 79.5585 24.8173 84.3895 24.8173C88.7619 24.8173 92.3437 21.4756 92.3437 16.863C92.3437 11.5862 88.1769 8.85413 84.3349 8.85413V8.85504ZM84.3804 11.9902C86.6785 11.9902 88.8565 13.8489 88.8565 16.843C88.8565 19.7725 86.6876 21.6849 84.3694 21.6849C81.822 21.6849 79.8205 19.6451 79.8205 16.8193C79.8205 14.0536 81.8038 11.9902 84.3876 11.9902H84.3804Z" fill="#DB3236"/>
    <path d="M101.785 8.85504C97.1106 8.85504 93.7607 12.5097 93.7607 16.7702C93.7607 21.0953 97.0087 24.8173 101.84 24.8173C106.212 24.8173 109.794 21.4756 109.794 16.863C109.794 11.5862 105.627 8.85413 101.785 8.85413V8.85504ZM101.831 11.9902C104.129 11.9902 106.307 13.8489 106.307 16.843C106.307 19.7725 104.138 21.6849 101.82 21.6849C99.2722 21.6849 97.2707 19.6451 97.2707 16.8193C97.2707 14.0536 99.254 11.9902 101.838 11.9902H101.831Z" fill="#F4C20D"/>
    <path d="M118.901 8.86414C114.611 8.86414 111.239 12.6216 111.239 16.8393C111.239 21.643 115.149 24.8291 118.827 24.8291C121.101 24.8291 122.311 23.9257 123.194 22.8894V24.4634C123.194 27.2173 121.522 28.8667 118.998 28.8667C116.56 28.8667 115.337 27.0535 114.904 26.0255L111.836 27.2992C112.924 29.6009 115.115 32 119.023 32C123.299 32 126.54 29.3134 126.54 23.6782V9.34359H123.207V10.6955C122.179 9.5856 120.77 8.86414 118.903 8.86414H118.901ZM119.211 11.9938C121.314 11.9938 123.474 13.7897 123.474 16.8566C123.474 19.9745 121.318 21.6921 119.164 21.6921C116.877 21.6921 114.749 19.8362 114.749 16.8857C114.749 13.8216 116.96 11.9929 119.211 11.9929V11.9938Z" fill="#4885ED"/>
    <path d="M141.438 8.84497C137.391 8.84497 133.993 12.0656 133.993 16.8147C133.993 21.8422 137.781 24.8236 141.817 24.8236C145.194 24.8236 147.276 22.9767 148.504 21.3209L145.745 19.4849C145.029 20.5949 143.832 21.6821 141.835 21.6821C139.591 21.6821 138.559 20.4539 137.92 19.262L148.622 14.8223L148.076 13.5213C147.042 10.9739 144.63 8.84497 141.439 8.84497H141.438ZM141.577 11.9146C143.036 11.9146 144.085 12.6897 144.53 13.6195L137.383 16.6064C137.074 14.2937 139.266 11.9146 141.568 11.9146H141.577Z" fill="#DB3236"/>
    <path d="M128.883 24.3505H132.398V0.826172H128.883V24.3505Z" fill="#3CBA54"/>
</svg>
