<svg width="200" height="32" viewBox="0 0 200 32" fill="none" xmlns="http://www.w3.org/2000/svg">
    <path d="M37.0129 0V16.1462L25.9563 0H14V32H25.915V15.8538L36.9748 32H48.9247V0H37.0129Z" fill="#2DB400"/>
    <path d="M176.756 20.0278C180.991 18.8484 183.718 15.7965 183.718 10.8913C183.718 2.64812 177.176 0 168.554 0H153.673V32H165.585V22.0083L172.697 32H186.389L176.756 20.0278ZM170.904 13.5108C170.207 14.0735 168.869 14.3501 167.763 14.3501H165.207V8.04927H167.715C168.917 8.04927 170.287 8.33539 170.954 8.90761C171.619 9.48301 171.924 10.2651 171.924 11.2569C171.924 12.2488 171.6 12.9481 170.907 13.5077L170.904 13.5108Z" fill="#2DB400"/>
    <path d="M124.639 0H148.794V8.33221H136.44V12.0993H147.821V19.9642H136.44V23.6646H149.172V32H124.639V0Z" fill="#2DB400"/>
    <path d="M77.5994 0H64.0123L51.4806 32H64.734L65.8911 27.8228H75.7302L76.8873 32H90.1343L77.5994 0ZM67.8399 20.422L70.6437 9.86767H70.968L73.7751 20.422H67.8399Z" fill="#2DB400"/>
    <path d="M109.097 0L103.226 19.2935H102.895L97.0264 0H84.0338L97.4365 32H108.684L122.087 0H109.097Z" fill="#2DB400"/>
</svg>
