<svg width="104" height="54" viewBox="0 0 104 54" fill="none" xmlns="http://www.w3.org/2000/svg">
    <rect x="0.5" y="0.5" width="103" height="53" rx="3.5" fill="white" stroke="#EFEFEF"/>
    <path d="M46.2086 27.4129V26.2968H42.3118V25.271H51.4929V26.2968H47.606V27.4129H46.2086ZM47.6293 27.7452V28C47.6625 29.2806 48.9935 30.0871 50.2183 30.4064L49.7403 31.4C48.5587 31.1903 47.4002 30.4161 46.899 29.5677C46.4011 30.4194 45.2394 31.1903 44.0577 31.4L43.5797 30.4064C44.8079 30.0871 46.1356 29.2806 46.1721 28V27.7452H47.6293ZM48.5387 22.8323V22.6323H43.8785V21.5935H49.8233V22.829C49.7901 23.9 49.5843 24.6516 49.4482 24.8064H48.2433C48.3794 24.4871 48.5387 23.5032 48.5387 22.829V22.8323Z" fill="#695B55"/>
    <path d="M53.9127 26.4871H54.5035C55.5491 26.4871 56.505 26.3548 56.8436 26.2871V27.071C56.8436 27.1484 56.8436 27.2806 56.8104 27.3355C56.7075 27.5 55.403 27.5774 54.4471 27.5774H53.355C52.9102 27.5774 52.6281 27.3 52.6281 26.871V21.9258H53.9127V26.4871ZM57.5506 24.8968H55.9374V23.7161H57.5506V21.4839H58.7788V30.629H57.5506V24.8968ZM59.3563 30.9613V21.3742H60.5844V30.9581H59.3563V30.9613Z" fill="#695B55"/>
    <path d="M61.7761 24.6968C61.7761 23.1935 63.0274 21.9806 64.5842 21.9806C66.1409 21.9806 67.4023 23.1968 67.4023 24.6968C67.4023 26.1968 66.1409 27.4129 64.5842 27.4129C63.0274 27.4129 61.7761 26.1968 61.7761 24.6968ZM63.0274 24.6968C63.0274 25.5484 63.7212 26.2323 64.5842 26.2323C65.4472 26.2323 66.1509 25.5484 66.1509 24.6968C66.1509 23.8452 65.4472 23.1613 64.5842 23.1613C63.7212 23.1613 63.0274 23.8452 63.0274 24.6968ZM68.6769 30.9581V21.3742H69.9614V30.9581H68.6769Z" fill="#695B55"/>
    <path d="M72.3347 27.5806C71.89 27.5806 71.6078 27.3032 71.6078 26.8742V21.9258H72.8924V23.5161H75.3254V21.9258H76.61V24.1581H78.336V21.3742H79.6206V30.9581H78.336V25.3387H76.61V27.3258C76.61 27.4903 76.5204 27.5806 76.3478 27.5806H72.3347ZM75.3221 26.5419V24.5548H72.8891V26.5419H75.3221Z" fill="#695B55"/>
    <path d="M90.0033 28.5645H80.6429V29.6032H90.0033V28.5645Z" fill="#695B55"/>
    <path d="M85.9372 21.6484V22.3452C85.9372 23.8903 87.5105 25.1516 88.6856 25.6806L88.2142 26.6742C87.0823 26.3323 85.665 25.2613 85.2202 24.0774C84.7721 25.2581 83.3548 26.329 82.2262 26.6742L81.7549 25.6806C82.9299 25.1516 84.5033 23.8903 84.5033 22.3452V21.6484H85.9372Z" fill="#695B55"/>
    <path d="M24.8888 29.4064C24.4042 28.4 24.7693 27.3323 25.6058 26.371C26.1468 28.1097 27.2555 29.5484 28.9516 30.6935C26.9833 31.1484 25.4796 30.6387 24.8888 29.4097M26.3858 23.6677C26.4389 21.5161 27.5973 20.1387 28.5599 20.1065C29.3831 20.0774 29.4628 20.9484 29.0412 21.9968C28.5898 23.1258 27.5675 23.9387 26.4754 24.8C26.4024 24.4226 26.3758 24.0419 26.3825 23.6677M38.7435 25.3387C40.9243 21.3064 37.6415 18.5548 34.5048 19.0613C32.5696 19.3742 31.7465 20.4968 31.2884 21.9581C31.6037 21.7032 31.8825 21.571 32.3074 21.4323C32.4867 20.4871 33.2003 19.6516 34.2293 19.6323C36.0615 19.6032 37.8108 22.8452 34.7272 26.7516C33.665 28.1 32.4136 29.0548 31.3714 29.6581C28.6861 28.6129 27.1791 27.1581 26.6314 25.4161C27.0231 25.1129 27.4546 24.829 27.9127 24.5742C30.1598 23.3226 30.8204 22.4903 30.8934 21.3065C30.9565 20.3258 30.0868 19.5903 29.0943 19.5903C26.9766 19.5903 25.3701 21.5806 25.3004 24.1548C25.2871 24.671 25.3303 25.1742 25.4265 25.6581C21.4002 29.2516 23.0101 32.2548 26.9866 32.1935C28.0289 32.1774 29.2238 31.9742 30.4519 31.5613C32.0551 32.3581 33.6086 32.8161 35.6533 33.0032C36.108 31.971 37.1436 31.1129 37.7776 30.6097C36.0881 30.6355 34.6176 30.5097 33.3464 30.2645C35.3612 29.1677 37.6581 27.3452 38.7468 25.3355" fill="#89A130"/>
    <path d="M21.8583 32.2064H12V33H21.8583V32.2064Z" fill="#89A130"/>
</svg>
