<svg width="104" height="54" viewBox="0 0 104 54" fill="none" xmlns="http://www.w3.org/2000/svg">
    <rect x="0.5" y="0.5" width="103" height="53" rx="3.5" fill="white" stroke="#EFEFEF"/>
    <path d="M53.7244 19.6036V29.075C53.7244 29.2643 53.7124 29.4416 53.6886 29.5866C53.6647 29.7397 53.617 29.8727 53.5573 29.9774C53.4857 30.0983 53.3942 30.1788 53.2748 30.2272C53.1555 30.2997 52.9924 30.3239 52.8054 30.3239H52.0297V26.3436C51.9581 26.3677 51.9024 26.3798 51.8546 26.3798C51.783 26.404 51.7273 26.4161 51.6796 26.4282C51.3733 26.5007 51.0709 26.549 50.7646 26.5692C50.4583 26.5933 50.144 26.6054 49.8377 26.6054H48.875V28.793C48.875 28.9823 48.8631 29.1475 48.8392 29.2925C48.8153 29.4577 48.7676 29.5906 48.7119 29.6954C48.6403 29.8042 48.5488 29.8847 48.4295 29.9331C48.3101 30.0056 48.147 30.0298 47.96 30.0298H47.1843V26.6094H44.2842V25.7191C44.2842 25.6224 44.3081 25.5419 44.3678 25.4814C44.4155 25.421 44.5309 25.3888 44.7059 25.3888H49.9173C50.1997 25.3888 50.4822 25.3767 50.7726 25.3525C51.055 25.3283 51.3375 25.2921 51.616 25.2196C51.6876 25.2075 51.7671 25.1954 51.8387 25.1712C51.8984 25.1712 51.9581 25.147 52.0257 25.1229V20.3167C52.0257 20.0307 52.0854 19.8413 52.2246 19.7446C52.3559 19.6479 52.5548 19.6036 52.8213 19.6036H53.7244ZM47.964 19.8051C48.3857 19.8051 48.7835 19.8655 49.1614 19.9702C49.5354 20.0911 49.8656 20.2563 50.148 20.4698C50.4185 20.6833 50.6413 20.9452 50.8044 21.2554C50.9675 21.5656 51.0511 21.9201 51.0511 22.3028C51.0511 22.6855 50.9675 23.0401 50.8044 23.3382C50.6413 23.6484 50.4185 23.9103 50.148 24.1238C49.8656 24.3373 49.5394 24.5025 49.1614 24.6112C48.7875 24.7281 48.3857 24.7885 47.964 24.7885C47.5423 24.7885 47.1405 24.7281 46.7785 24.6112C46.4046 24.5025 46.0744 24.3373 45.8039 24.1238C45.5214 23.9103 45.2987 23.6484 45.1475 23.3382C44.9844 23.0401 44.9008 22.6976 44.9008 22.3028C44.9008 21.908 44.9844 21.5656 45.1475 21.2554C45.2987 20.9452 45.5214 20.6833 45.8039 20.4698C46.0744 20.2563 46.4006 20.0911 46.7785 19.9702C47.1405 19.8655 47.5423 19.8051 47.964 19.8051ZM47.964 23.596C48.3499 23.596 48.6801 23.4872 48.9387 23.2536C49.1972 23.028 49.3245 22.7057 49.3245 22.3028C49.3245 21.9 49.1972 21.5897 48.9387 21.3521C48.6801 21.1265 48.3539 21.0096 47.964 21.0096C47.5742 21.0096 47.2599 21.1265 47.0132 21.3521C46.7547 21.5897 46.6274 21.9 46.6274 22.3028C46.6274 22.7057 46.7586 23.028 47.0132 23.2536C47.2599 23.4913 47.5781 23.596 47.964 23.596Z" fill="#6392BA"/>
    <path d="M66.1879 28.7162C66.1879 28.825 66.1521 28.9176 66.0805 28.9902C65.9969 29.0828 65.9055 29.1191 65.798 29.1191H55.9641V28.2892C55.9641 28.1804 55.9999 28.0877 56.0715 28.0152C56.1431 27.9427 56.2226 27.9064 56.342 27.8944H66.1879V28.7162ZM64.9109 25.4973C64.9109 25.6182 64.8632 25.7108 64.7916 25.7833C64.72 25.8679 64.6285 25.9042 64.5211 25.9042H58.3828C57.9372 25.9042 57.619 25.7954 57.432 25.5819C57.2212 25.3684 57.1257 25.034 57.1257 24.5586V20.9329C57.1257 20.6468 57.1854 20.4454 57.3246 20.3487C57.44 20.252 57.6428 20.2077 57.9094 20.2077H58.8005V21.8594H63.2242V20.9329C63.2242 20.6468 63.2839 20.4454 63.4112 20.3487C63.5305 20.252 63.7294 20.2077 64.0079 20.2077H64.899V25.4933L64.9109 25.4973ZM63.2321 23.0761H58.8084V24.2766C58.8084 24.3975 58.8442 24.4902 58.9357 24.5627C59.0073 24.6352 59.1108 24.6714 59.254 24.6714H63.2321V23.0761Z" fill="#6392BA"/>
    <path d="M74.0607 24.333V25.1307C74.0607 25.2395 74.0249 25.3321 73.9692 25.4047C73.8976 25.5013 73.8061 25.5376 73.6986 25.5376H69.5097C69.0641 25.5376 68.7339 25.4288 68.5469 25.2153C68.348 25.0018 68.2526 24.6674 68.2526 24.192V22.5886C68.2526 22.4919 68.2884 22.4114 68.36 22.3147C68.4316 22.2301 68.5111 22.1817 68.6305 22.1817H71.8448V21.231H68.2526V20.4333C68.2526 20.3366 68.2764 20.256 68.348 20.1594C68.4077 20.0748 68.4992 20.0304 68.6305 20.0304H73.5236V22.9754C73.5236 23.0962 73.4878 23.1889 73.4162 23.2614C73.3446 23.346 73.2531 23.3782 73.1457 23.3782H69.9433V23.8899C69.9433 24.0107 69.9552 24.1155 69.991 24.2001C70.0149 24.2968 70.0984 24.329 70.2615 24.329H74.0646L74.0607 24.333ZM74.3908 26.2708V26.7341C74.3908 27.0322 74.3192 27.3303 74.18 27.6365L77.2909 29.2641L76.6584 30.2995L73.4798 28.6477C73.082 29.0264 72.5649 29.3729 71.9085 29.671C71.2521 29.9812 70.4286 30.2068 69.446 30.3236V29.244C69.7961 29.1231 70.174 28.97 70.548 28.7807C70.9219 28.6034 71.264 28.402 71.5703 28.1764C71.8647 27.9628 72.1114 27.7372 72.3103 27.4996C72.4972 27.2619 72.5927 27.0363 72.5927 26.8107V26.7744C72.5927 26.6535 72.6047 26.5488 72.6524 26.4763C72.6882 26.4038 72.7479 26.3554 72.8155 26.3232C72.8871 26.299 72.9667 26.2869 73.0621 26.2748H74.3988L74.3908 26.2708ZM76.8215 25.1791C76.8215 25.3684 76.8096 25.5336 76.7857 25.6786C76.7618 25.8438 76.7141 25.9767 76.6544 26.0694C76.5828 26.1902 76.5032 26.2708 76.3839 26.3192C76.2646 26.3917 76.1014 26.4158 75.9145 26.4158H75.1387V20.3165C75.1387 20.0304 75.1984 19.829 75.3376 19.7323C75.457 19.6477 75.6559 19.5994 75.9264 19.5994H76.8175V25.171L76.8215 25.1791Z" fill="#6392BA"/>
    <path d="M84.8892 27.6849L82.9041 25.7592C82.5978 26.0452 82.2954 26.3071 81.9772 26.5206C81.651 26.7583 81.3327 26.9476 81.0264 27.1128C80.7081 27.278 80.4058 27.423 80.1234 27.5278C79.829 27.6486 79.5704 27.7413 79.3476 27.8017V26.577C79.9801 26.2789 80.5212 25.9364 80.9906 25.5416C81.4481 25.1629 81.834 24.7681 82.1403 24.3411C82.4347 23.9261 82.6574 23.4991 82.8086 23.068C82.9478 22.641 83.0194 22.2341 83.0194 21.8433V21.6902H79.6977V20.8603C79.6977 20.7637 79.7335 20.671 79.8051 20.5864C79.8767 20.5139 79.9563 20.4776 80.0756 20.4534H84.6982V21.4526C84.6982 22.1415 84.6028 22.7578 84.4277 23.3057C84.2407 23.8536 83.9941 24.3532 83.6997 24.7923L85.7286 26.7905L84.8852 27.6808L84.8892 27.6849ZM88.0001 19.6034V29.0748C88.0001 29.2641 87.9882 29.4414 87.9643 29.5864C87.9404 29.7395 87.8927 29.8724 87.837 29.9772C87.7654 30.098 87.6858 30.1786 87.5665 30.2269C87.4471 30.2995 87.284 30.3236 87.097 30.3236H86.3213V20.3165C86.3213 20.0304 86.381 19.8411 86.5202 19.7444C86.6396 19.6477 86.8385 19.6034 87.105 19.6034H88.0001Z" fill="#6392BA"/>
    <path d="M48.7676 34.5175V32.8295H49.1137V33.4217H49.9571V32.8295H50.3032V34.5175H48.7676ZM49.1137 34.2153H49.9571V33.7198H49.1137V34.2153ZM49.5752 35.6535H51.3415V35.9637H49.2211V34.8841H49.5752V35.6535ZM50.9238 35.0492V32.6764H51.2738V35.0492H50.9238Z" fill="#939598"/>
    <path d="M55.8726 34.3644V34.6665H52.8611V34.3644H54.0068V33.6231H54.3609V34.3644H55.8726ZM53.255 32.8415H55.423V33.3693C55.423 33.4096 55.423 33.462 55.4191 33.5224C55.4151 33.5828 55.4111 33.6513 55.4031 33.7198C55.3952 33.7923 55.3872 33.8608 55.3753 33.9373C55.3634 34.0098 55.3514 34.0783 55.3355 34.1468L54.9854 34.1065C55.0173 33.9696 55.0372 33.8406 55.0491 33.7238C55.061 33.607 55.065 33.4942 55.065 33.3854V33.1517H53.251V32.8456L53.255 32.8415ZM53.6448 35.6576H55.4986V35.9678H53.2908V34.9606H53.6448V35.6576Z" fill="#939598"/>
    <path d="M59.4012 35.2386C59.25 35.2547 59.0988 35.2668 58.9437 35.2748C58.7846 35.2869 58.6215 35.295 58.4464 35.303C58.2714 35.3111 58.0844 35.3151 57.8895 35.3192C57.6906 35.3192 57.4758 35.3232 57.2411 35.3232V35.013C57.4081 35.013 57.5673 35.013 57.7145 35.013C57.8616 35.013 58.0009 35.013 58.1322 35.009V34.4933H57.4599V32.9382H59.0869V33.2363H57.802V33.5586H59.0511V33.8568H57.802V34.1911H59.1386V34.4893H58.4902V34.9928C58.6493 34.9848 58.8005 34.9767 58.9437 34.9687C59.0869 34.9606 59.2261 34.9485 59.3694 34.9324L59.4012 35.2305V35.2386ZM59.5802 36V32.6764H59.9303V36H59.5802Z" fill="#939598"/>
    <path d="M62.5718 34.4167C62.5559 34.457 62.532 34.5013 62.4962 34.5416C62.4644 34.5859 62.4166 34.6383 62.3609 34.7028C62.2853 34.7833 62.2058 34.872 62.1143 34.9646C62.0228 35.0573 61.9194 35.158 61.796 35.2748L61.5653 35.0331C61.6727 34.9364 61.7682 34.8398 61.8597 34.7511C61.9472 34.6625 62.0347 34.5739 62.1143 34.4812C62.174 34.4167 62.2217 34.3563 62.2575 34.3039C62.2933 34.2516 62.3211 34.1992 62.341 34.1509C62.3609 34.1025 62.3729 34.0501 62.3808 33.9978C62.3888 33.9454 62.3928 33.885 62.3928 33.8165V33.474H61.6608V33.1638H62.3928V32.6925H62.7508V33.1638H63.4549V33.474H62.7508V33.8165C62.7508 33.889 62.7508 33.9494 62.7627 34.0018C62.7747 34.0542 62.7826 34.1065 62.8025 34.1549C62.8224 34.2032 62.8502 34.2516 62.89 34.3039C62.9298 34.3563 62.9775 34.4167 63.0452 34.4852C63.1208 34.5698 63.1963 34.6504 63.2799 34.7269C63.3594 34.8035 63.4509 34.8881 63.5583 34.9848L63.3276 35.2265C63.2083 35.1137 63.1048 35.017 63.0253 34.9364C62.9457 34.8559 62.8701 34.7793 62.8025 34.7028C62.7548 34.6464 62.707 34.598 62.6672 34.5497C62.6275 34.5013 62.5996 34.4611 62.5837 34.4248L62.5718 34.4167ZM63.8766 36V32.6764H64.2307V36H63.8766Z" fill="#939598"/>
    <path d="M70.7548 34.3805V34.6826H69.4261V36.004H69.0721V34.6826H67.7434V34.3805H69.8438C69.8796 34.2032 69.9075 34.034 69.9234 33.8729C69.9393 33.7117 69.9473 33.5546 69.9473 33.3935V33.2001H68.1213V32.8859H70.3013V33.3129C70.3013 33.4861 70.2933 33.6634 70.2774 33.8447C70.2615 34.026 70.2377 34.2032 70.2019 34.3845H70.7548V34.3805Z" fill="#939598"/>
    <path d="M75.0631 35.2547V35.5568H72.0517V35.2547H73.3804V34.8559C73.2531 34.8478 73.1377 34.8236 73.0343 34.7874C72.9309 34.7511 72.8473 34.7068 72.7757 34.6544C72.7041 34.6021 72.6524 34.5416 72.6126 34.4731C72.5728 34.4047 72.5569 34.3321 72.5569 34.2516V34.1347C72.5569 34.0461 72.5808 33.9655 72.6245 33.889C72.6723 33.8124 72.7359 33.748 72.8235 33.6956C72.911 33.6432 73.0144 33.5989 73.1377 33.5707C73.261 33.5425 73.4003 33.5264 73.5554 33.5264C73.7106 33.5264 73.8498 33.5425 73.9731 33.5707C74.0965 33.603 74.1999 33.6432 74.2874 33.6956C74.3749 33.748 74.4386 33.8124 74.4863 33.889C74.5341 33.9615 74.5539 34.0461 74.5539 34.1347V34.2516C74.5539 34.3321 74.5341 34.4047 74.4983 34.4731C74.4624 34.5416 74.4067 34.6021 74.3351 34.6544C74.2635 34.7068 74.176 34.7511 74.0766 34.7874C73.9771 34.8236 73.8617 34.8438 73.7344 34.8559V35.2547H75.0631ZM74.7807 33.0591V33.3572H72.3302V33.0591H73.3724V32.6441H73.7344V33.0591H74.7807ZM72.903 34.2355C72.903 34.2757 72.9149 34.316 72.9428 34.3563C72.9667 34.3966 73.0104 34.4329 73.0621 34.4651C73.1139 34.4973 73.1855 34.5255 73.269 34.5457C73.3525 34.5658 73.448 34.5779 73.5594 34.5779C73.6708 34.5779 73.7663 34.5698 73.8498 34.5457C73.9334 34.5255 74.001 34.4973 74.0567 34.4651C74.1084 34.4329 74.1482 34.3966 74.176 34.3563C74.2039 34.316 74.2158 34.2757 74.2158 34.2355V34.1549C74.2158 34.1186 74.2039 34.0783 74.176 34.034C74.1522 33.9937 74.1124 33.9575 74.0567 33.9252C74.005 33.893 73.9334 33.8648 73.8498 33.8447C73.7663 33.8245 73.6708 33.8124 73.5594 33.8124C73.448 33.8124 73.3486 33.8245 73.269 33.8447C73.1855 33.8648 73.1178 33.893 73.0621 33.9252C73.0104 33.9575 72.9706 33.9937 72.9428 34.034C72.9149 34.0743 72.903 34.1146 72.903 34.1549V34.2355Z" fill="#939598"/>
    <path d="M78.3372 34.3966C78.2099 34.4127 78.0945 34.4288 77.9831 34.4369C77.8757 34.4449 77.7524 34.453 77.6211 34.4611C77.4898 34.4691 77.3347 34.4731 77.1596 34.4731C76.9846 34.4731 76.7698 34.4731 76.5112 34.4731V32.8899H78.0308V33.1961H76.8573V34.167C77.0403 34.167 77.1954 34.167 77.3227 34.167C77.45 34.167 77.5654 34.1589 77.6688 34.1549C77.7723 34.1509 77.8757 34.1428 77.9712 34.1347C78.0667 34.1267 78.178 34.1146 78.3014 34.1025L78.3372 34.3966ZM77.2989 35.6535H79.0413V35.9637H76.9488V34.8599H77.3028V35.6535H77.2989ZM79.4152 33.8527H78.9498V35.0492H78.5997V32.6764H78.9498V33.5425H79.4152V33.8527Z" fill="#939598"/>
    <path d="M81.4998 34.4127C81.4879 34.449 81.468 34.4852 81.4401 34.5255C81.4123 34.5658 81.3804 34.6061 81.3446 34.6504C81.273 34.739 81.1935 34.8277 81.106 34.9243C81.0184 35.021 80.9269 35.1177 80.8315 35.2184L80.5928 34.9767C80.7002 34.872 80.7996 34.7713 80.8911 34.6746C80.9826 34.5779 81.0662 34.4772 81.1418 34.3765C81.2134 34.2838 81.2611 34.1911 81.285 34.0985C81.3088 34.0058 81.3208 33.9091 81.3208 33.8084V33.4861H80.728V33.188H81.3208V32.7569H81.6629V33.188H82.2198V33.4861H81.6629V33.8084C81.6629 33.9132 81.6748 34.0058 81.7027 34.0944C81.7305 34.1831 81.7783 34.2757 81.8499 34.3684C81.9255 34.4651 82.005 34.5618 82.0846 34.6504C82.1641 34.739 82.2596 34.8357 82.367 34.9364L82.1283 35.1741C82.0329 35.0774 81.9493 34.9888 81.8698 34.9042C81.7942 34.8196 81.7186 34.735 81.647 34.6504C81.6112 34.6061 81.5794 34.5658 81.5555 34.5255C81.5276 34.4852 81.5117 34.449 81.4998 34.4127ZM82.5301 32.7449H82.8762V35.8389H82.5301V34.1791H82.0488V33.8688H82.5301V32.7449ZM83.5247 36H83.1786V32.6764H83.5247V36Z" fill="#939598"/>
    <path d="M24.4731 22.5846C25.7232 22.5846 26.7366 21.5583 26.7366 20.2923C26.7366 19.0263 25.7232 18 24.4731 18C23.2229 18 22.2095 19.0263 22.2095 20.2923C22.2095 21.5583 23.2229 22.5846 24.4731 22.5846Z" fill="#6392BA"/>
    <path d="M33.1892 21.3518C33.1892 22.2825 32.4453 23.0398 31.5223 23.0398C30.5994 23.0398 29.8555 22.2865 29.8555 21.3518C29.8555 20.4172 30.5994 19.6638 31.5223 19.6638C32.4453 19.6638 33.1892 20.4172 33.1892 21.3518Z" fill="#6392BA"/>
    <path d="M13.6843 27.7695C14.3168 27.3747 14.8619 27.0967 15.4626 26.7986C16.0513 26.5125 16.6441 26.2507 17.2487 26.013C18.4541 25.5336 19.6873 25.1388 20.9484 24.8406C23.4626 24.2363 26.0763 24.0188 28.6541 24.2525C29.943 24.3814 31.216 24.6312 32.4572 24.9816C33.6984 25.3362 34.8918 25.8317 36.0495 26.3917C38.3369 27.564 40.3976 29.111 42.1997 30.8957C42.4384 31.1334 42.4463 31.5242 42.2116 31.7659C41.9849 31.9996 41.6189 32.0116 41.3762 31.8021H41.3722C39.5542 30.1947 37.5293 28.8572 35.3612 27.8944C34.2633 27.4432 33.1494 27.0483 31.9997 26.7905C30.85 26.5367 29.6844 26.3796 28.5149 26.3272C26.1717 26.2507 23.8246 26.581 21.577 27.2578C20.4551 27.5962 19.3532 28.0192 18.291 28.5107C17.7579 28.7565 17.2368 29.0224 16.7276 29.3084C16.2303 29.5864 15.6973 29.9087 15.2955 30.1907L15.2676 30.2108C14.6152 30.6741 13.7161 30.517 13.2587 29.8563C12.8012 29.1956 12.9563 28.2851 13.6087 27.8218C13.6326 27.8057 13.6565 27.7896 13.6803 27.7735L13.6843 27.7695Z" fill="#6392BA"/>
    <path d="M34.9913 33.4338C34.9475 33.0591 34.49 29.7637 32.3021 29.0264C31.045 28.5994 29.6009 29.1473 27.9977 30.6379C26.0444 28.7807 24.302 28.0918 22.8062 28.5994C20.2403 29.4655 19.6993 33.3894 19.6476 33.8326C19.5879 34.3201 19.934 34.7632 20.4153 34.8236C20.4512 34.8277 20.487 34.8317 20.5228 34.8317C20.9604 34.8317 21.3423 34.5013 21.394 34.0501C21.4934 33.2122 22.0703 30.7265 23.3632 30.2914C24.2901 29.9772 25.7023 30.7587 27.3413 32.487C27.5999 32.761 27.9897 32.8254 28.3159 32.6844C28.4432 32.6401 28.5626 32.5756 28.662 32.4709C29.9549 31.1092 31.0489 30.4808 31.7411 30.7184C32.6402 31.0206 33.1414 32.8254 33.2409 33.6553C33.2966 34.1065 33.6745 34.4369 34.1121 34.4369C34.1479 34.4369 34.1837 34.4369 34.2195 34.4288C34.7009 34.3684 35.047 33.9252 34.9873 33.4378L34.9913 33.4338Z" fill="#6392BA"/>
</svg>
