<svg width="104" height="54" viewBox="0 0 104 54" fill="none" xmlns="http://www.w3.org/2000/svg">
    <rect x="0.5" y="0.5" width="103" height="53" rx="3.5" fill="white" stroke="#EFEFEF"/>
    <path d="M63.7795 16.0814C63.7571 16.0799 63.738 16.0642 63.738 16.0407C63.738 16.0172 63.7571 16 63.7795 16H89V31C83.2152 22.9973 74.1711 17.422 63.7795 16.0814Z" fill="#E8580D"/>
    <path d="M32.5984 25.3871V30.7244H34.1041V26.38C34.6109 25.9541 34.9737 26.0966 35.9743 26.9062L36.5834 25.5719C36.2796 25.4435 35.888 25.301 35.3222 25.301C34.7563 25.301 34.3375 25.5719 34.1345 25.8115L34.061 25.8961L34.0466 25.8836L34.061 25.3871H32.5984Z" fill="black"/>
    <path d="M38.6981 22.5603H37.1908V30.7244H38.6981V22.5603Z" fill="black"/>
    <path d="M56.9317 25.3856H55.4244V30.7244H56.9317V25.3856Z" fill="black"/>
    <path d="M56.3659 23.0599C55.9647 23.0599 55.6578 23.3622 55.6578 23.7537C55.6578 24.1452 55.9663 24.4475 56.3659 24.4475C56.7655 24.4475 57.0756 24.1452 57.0756 23.7537C57.0756 23.3622 56.7655 23.0599 56.3659 23.0599Z" fill="black"/>
    <path d="M64.5788 25.3856H63.073V30.7244H64.5788V25.3856Z" fill="black"/>
    <path d="M63.8275 23.0599C63.4279 23.0599 63.1178 23.3622 63.1178 23.7537C63.1178 24.1452 63.4279 24.4475 63.8275 24.4475C64.2271 24.4475 64.5372 24.1452 64.5372 23.7537C64.5372 23.3622 64.2271 23.0599 63.8275 23.0599Z" fill="black"/>
    <path d="M58.1018 26.8483C57.9563 28.8795 60.9998 28.3972 60.9135 29.6312C60.8687 30.1277 60.434 30.2984 59.972 30.2827C59.2175 30.2264 58.7556 29.8019 58.348 29.3321L57.8988 30.3125C58.5078 30.6523 59.1744 30.823 59.753 30.8653C61.0574 30.9515 62.1587 30.3955 62.2306 29.163C62.3617 27.2461 59.2175 27.4873 59.2751 26.5085C59.3054 26.0825 59.7962 25.8695 60.3045 25.8977C60.8256 25.94 61.2316 26.2234 61.6807 26.6212L62.0868 25.7411C61.5209 25.4999 60.9854 25.3856 60.5075 25.3449C59.1024 25.2603 58.1593 25.9838 58.1018 26.8499" fill="black"/>
    <path d="M51.31 30.7244H51.9477L55.1367 23.5548H54.3087L52.0916 28.5945L49.9033 23.5548H48.0779L51.31 30.7244Z" fill="black"/>
    <path d="M77.9467 30.7244V27.7848C77.9467 25.7975 76.3962 25.301 75.4834 25.301C74.8313 25.301 74.2814 25.5422 73.7299 25.9102L73.6996 25.8961V25.384H72.3089V30.7228H73.8163V26.4208C74.2654 26.0371 74.7002 25.882 75.0774 25.882C75.8735 25.882 76.4249 26.6337 76.4249 27.4575V30.7228H77.9467V30.7244Z" fill="black"/>
    <path d="M22.1445 24.2376H21.2893L19.5789 28.5663L17.7535 23.583H16L18.711 30.7103H19.5358L21.2893 26.3096L23.0268 30.7103H23.8548L26.5642 23.5987H25.7378L23.8388 28.5663L22.1445 24.2376Z" fill="black"/>
    <path d="M28.8868 30.2686C27.9453 30.2686 27.5249 29.2898 27.5249 28.0542C27.5249 26.8185 27.9453 25.8382 28.8868 25.8382C29.8283 25.8382 30.2487 26.8185 30.2487 28.0542C30.2487 29.2898 29.8283 30.2686 28.8868 30.2686ZM28.8868 25.3292C27.0613 25.3292 25.9312 26.5648 25.9312 28.0558C25.9312 29.5467 27.0613 30.7807 28.8868 30.7807C30.7122 30.7807 31.8423 29.5451 31.8423 28.0558C31.8423 26.5664 30.7138 25.3292 28.8868 25.3292Z" fill="black"/>
    <path d="M68.4982 30.2686C67.5567 30.2686 67.1363 29.2898 67.1363 28.0542C67.1363 26.8185 67.5567 25.8382 68.4982 25.8382C69.4397 25.8382 69.8601 26.8185 69.8601 28.0542C69.8601 29.2898 69.4397 30.2686 68.4982 30.2686ZM68.4982 25.3292C66.6727 25.3292 65.541 26.5648 65.541 28.0558C65.541 29.5467 66.6711 30.7807 68.4982 30.7807C70.3252 30.7807 71.4537 29.5451 71.4537 28.0558C71.4537 26.5664 70.3236 25.3292 68.4982 25.3292Z" fill="black"/>
    <path d="M44.0418 29.6735C43.6517 29.9993 43.2889 30.2404 42.7374 30.2404C42.0709 30.2404 41.2029 29.6876 41.2029 28.0824C41.2029 26.3503 42.5792 25.1005 44.0418 26.4489V29.6735ZM44.0418 22.5603V25.8115C43.6214 25.4999 42.9852 25.301 42.333 25.301C41.5082 25.301 39.5373 25.7975 39.5373 28.1403C39.5373 29.8849 41.1022 30.8371 42.3186 30.8371C43.0283 30.8371 43.607 30.596 44.1281 30.1982L44.1584 30.2123V30.7228H45.5491V22.5603H44.0418Z" fill="black"/>
    <path d="M84.8376 24.7388C85.0087 22.2706 84.9527 20.8283 85.3843 20.4367C85.7839 20.0734 86.5032 19.9763 87.726 19.8886C85.0422 19.5848 85.1078 19.6631 84.8376 17.1057C84.5691 19.6631 84.633 19.5832 81.9492 19.8886C83.172 19.9763 83.8913 20.0734 84.2909 20.4367C84.7225 20.8267 84.6666 22.2706 84.8376 24.7388Z" fill="white"/>
</svg>
