<svg width="64" height="64" viewBox="0 0 64 64" fill="none" xmlns="http://www.w3.org/2000/svg">
    <circle cx="32" cy="32" r="32" fill="white"/>
    <path d="M28.1031 32.4067V31.6893H25.5852V31.03H31.5174V31.6893H29.006V32.4067H28.1031ZM29.021 32.6203V32.7841C29.0425 33.6072 29.9025 34.1256 30.6939 34.3309L30.385 34.9695C29.6215 34.8347 28.873 34.3371 28.5492 33.7918C28.2275 34.3392 27.4768 34.8347 26.7133 34.9695L26.4045 34.3309C27.198 34.1256 28.0559 33.6072 28.0795 32.7841V32.6203H29.021ZM29.6086 29.4624V29.3339H26.5975V28.6662H30.4386V29.4604C30.4172 30.1487 30.2842 30.6319 30.1963 30.7314H29.4178C29.5057 30.5261 29.6086 29.8937 29.6086 29.4604V29.4624Z" fill="#695B55"/>
    <path d="M33.0809 31.8116H33.4626C34.1382 31.8116 34.7559 31.7266 34.9746 31.6831V32.1869C34.9746 32.2367 34.9746 32.3217 34.9532 32.357C34.8867 32.4627 34.0438 32.5125 33.4262 32.5125H32.7206C32.4332 32.5125 32.2509 32.3341 32.2509 32.0584V28.8798H33.0809V31.8116ZM35.4315 30.7894H34.3891V30.0306H35.4315V28.5957H36.225V34.4739H35.4315V30.7894ZM36.5982 34.6875V28.5252H37.3917V34.6854H36.5982V34.6875Z" fill="#695B55"/>
    <path d="M38.1616 30.6609C38.1616 29.6947 38.9702 28.915 39.976 28.915C40.9819 28.915 41.7969 29.6967 41.7969 30.6609C41.7969 31.625 40.9819 32.4067 39.976 32.4067C38.9702 32.4067 38.1616 31.625 38.1616 30.6609ZM38.9702 30.6609C38.9702 31.2083 39.4184 31.6478 39.976 31.6478C40.5337 31.6478 40.9883 31.2083 40.9883 30.6609C40.9883 30.1135 40.5337 29.6739 39.976 29.6739C39.4184 29.6739 38.9702 30.1135 38.9702 30.6609ZM42.6204 34.6854V28.5252H43.4504V34.6854H42.6204Z" fill="#695B55"/>
    <path d="M44.9839 32.5145C44.6965 32.5145 44.5142 32.3362 44.5142 32.0605V28.8798H45.3442V29.902H46.9162V28.8798H47.7462V30.3146H48.8615V28.5252H49.6914V34.6854H48.8615V31.0735H47.7462V32.3507C47.7462 32.4565 47.6883 32.5145 47.5768 32.5145H44.9839ZM46.9141 31.8469V30.5696H45.342V31.8469H46.9141Z" fill="#695B55"/>
    <path d="M56.4 33.1469H50.352V33.8146H56.4V33.1469Z" fill="#695B55"/>
    <path d="M53.7728 28.7015V29.1493C53.7728 30.1425 54.7893 30.9532 55.5486 31.2933L55.244 31.9319C54.5127 31.7121 53.5969 31.0237 53.3095 30.2628C53.02 31.0217 52.1042 31.71 51.375 31.9319L51.0705 31.2933C51.8297 30.9532 52.8463 30.1425 52.8463 29.1493V28.7015H53.7728Z" fill="#695B55"/>
    <path d="M14.3278 33.6881C14.0147 33.0412 14.2506 32.3549 14.791 31.737C15.1406 32.8546 15.857 33.7793 16.9529 34.5154C15.6811 34.8078 14.7095 34.4802 14.3278 33.6902M15.295 29.9995C15.3294 28.6165 16.0779 27.7311 16.6998 27.7104C17.2317 27.6917 17.2832 28.2515 17.0108 28.9254C16.7191 29.6511 16.0586 30.1736 15.353 30.7272C15.3058 30.4846 15.2886 30.24 15.2929 29.9995M23.2797 31.0735C24.6887 28.4817 22.5677 26.713 20.5409 27.0386C19.2906 27.2397 18.7587 27.9613 18.4627 28.9005C18.6665 28.7367 18.8466 28.6517 19.1212 28.5626C19.237 27.955 19.6981 27.418 20.3629 27.4056C21.5468 27.3869 22.677 29.4707 20.6846 31.9817C19.9983 32.8484 19.1898 33.4621 18.5164 33.8498C16.7813 33.178 15.8076 32.2429 15.4538 31.1233C15.7068 30.9284 15.9856 30.7459 16.2816 30.5821C17.7335 29.7776 18.1603 29.2426 18.2075 28.4817C18.2483 27.8514 17.6864 27.3786 17.0451 27.3786C15.6768 27.3786 14.6388 28.6579 14.5937 30.3125C14.5852 30.6443 14.613 30.9677 14.6752 31.2788C12.0737 33.5886 13.1139 35.519 15.6832 35.4796C16.3567 35.4692 17.1287 35.3386 17.9223 35.0732C18.9582 35.5853 19.9619 35.8797 21.283 36C21.5768 35.3365 22.246 34.785 22.6556 34.4615C21.5639 34.4781 20.6139 34.3972 19.7924 34.2396C21.0943 33.5347 22.5784 32.3632 23.2818 31.0714" fill="#89A130"/>
    <path d="M12.3697 35.4879H6V35.9979H12.3697V35.4879Z" fill="#89A130"/>
</svg>
