<svg width="64" height="64" viewBox="0 0 64 64" fill="none" xmlns="http://www.w3.org/2000/svg">
    <circle cx="32" cy="32" r="32" fill="white"/>
    <path d="M34.0647 27.0688V33.3817C34.0647 33.5079 34.0571 33.626 34.0418 33.7227C34.0265 33.8247 33.996 33.9133 33.9578 33.9831C33.912 34.0637 33.8534 34.1174 33.777 34.1496C33.7006 34.198 33.5963 34.2141 33.4766 34.2141H32.9802V31.5611C32.9343 31.5772 32.8987 31.5853 32.8681 31.5853C32.8223 31.6014 32.7867 31.6095 32.7561 31.6175C32.5601 31.6658 32.3666 31.6981 32.1706 31.7115C31.9745 31.7276 31.7734 31.7357 31.5774 31.7357H30.9613V33.1937C30.9613 33.3199 30.9536 33.43 30.9384 33.5267C30.9231 33.6368 30.8925 33.7254 30.8569 33.7952C30.8111 33.8677 30.7525 33.9214 30.6761 33.9536C30.5998 34.0019 30.4954 34.0181 30.3757 34.0181H29.8793V31.7383H28.0233V31.1449C28.0233 31.0805 28.0386 31.0268 28.0768 30.9865C28.1074 30.9462 28.1812 30.9247 28.2932 30.9247H31.6283C31.8091 30.9247 31.9898 30.9167 32.1757 30.9006C32.3564 30.8845 32.5372 30.8603 32.7154 30.812C32.7612 30.8039 32.8121 30.7959 32.858 30.7797C32.8962 30.7797 32.9343 30.7636 32.9776 30.7475V27.5441C32.9776 27.3535 33.0158 27.2273 33.1049 27.1628C33.1889 27.0984 33.3162 27.0688 33.4868 27.0688H34.0647ZM30.3783 27.2031C30.6481 27.2031 30.9027 27.2434 31.1446 27.3132C31.3839 27.3937 31.5952 27.5038 31.776 27.6462C31.9491 27.7885 32.0917 27.963 32.196 28.1698C32.3004 28.3765 32.3539 28.6128 32.3539 28.8679C32.3539 29.123 32.3004 29.3593 32.196 29.558C32.0917 29.7648 31.9491 29.9393 31.776 30.0816C31.5952 30.2239 31.3864 30.334 31.1446 30.4065C30.9053 30.4844 30.6481 30.5247 30.3783 30.5247C30.1084 30.5247 29.8513 30.4844 29.6196 30.4065C29.3803 30.334 29.169 30.2239 28.9959 30.0816C28.8151 29.9393 28.6725 29.7648 28.5758 29.558C28.4714 29.3593 28.418 29.1311 28.418 28.8679C28.418 28.6048 28.4714 28.3765 28.5758 28.1698C28.6725 27.963 28.8151 27.7885 28.9959 27.6462C29.169 27.5038 29.3777 27.3937 29.6196 27.3132C29.8513 27.2434 30.1084 27.2031 30.3783 27.2031ZM30.3783 29.7298C30.6252 29.7298 30.8365 29.6573 31.002 29.5016C31.1675 29.3512 31.249 29.1364 31.249 28.8679C31.249 28.5994 31.1675 28.3926 31.002 28.2342C30.8365 28.0838 30.6278 28.006 30.3783 28.006C30.1288 28.006 29.9277 28.0838 29.7698 28.2342C29.6043 28.3926 29.5229 28.5994 29.5229 28.8679C29.5229 29.1364 29.6069 29.3512 29.7698 29.5016C29.9277 29.66 30.1313 29.7298 30.3783 29.7298Z" fill="#6392BA"/>
    <path d="M42.0409 33.1425C42.0409 33.215 42.018 33.2768 41.9722 33.3251C41.9187 33.3869 41.8602 33.4111 41.7915 33.4111H35.498V32.8579C35.498 32.7854 35.521 32.7237 35.5668 32.6753C35.6126 32.627 35.6635 32.6028 35.7399 32.5948H42.0409V33.1425ZM41.2237 30.9971C41.2237 31.0776 41.1932 31.1394 41.1473 31.1877C41.1015 31.2441 41.043 31.2683 40.9742 31.2683H37.0459C36.7608 31.2683 36.5571 31.1958 36.4375 31.0535C36.3025 30.9112 36.2414 30.6883 36.2414 30.3714V27.9548C36.2414 27.7642 36.2796 27.6299 36.3687 27.5655C36.4426 27.501 36.5724 27.4715 36.743 27.4715H37.3132V28.5724H40.1443V27.9548C40.1443 27.7642 40.1825 27.6299 40.2639 27.5655C40.3403 27.501 40.4676 27.4715 40.6458 27.4715H41.2161V30.9944L41.2237 30.9971ZM40.1494 29.3833H37.3183V30.1835C37.3183 30.264 37.3413 30.3258 37.3998 30.3741C37.4456 30.4225 37.5118 30.4466 37.6035 30.4466H40.1494V29.3833Z" fill="#6392BA"/>
    <path d="M47.0792 30.2211V30.7527C47.0792 30.8252 47.0563 30.887 47.0207 30.9353C46.9749 30.9998 46.9163 31.0239 46.8476 31.0239H44.1668C43.8816 31.0239 43.6703 30.9514 43.5507 30.8091C43.4234 30.6668 43.3623 30.4439 43.3623 30.1271V29.0584C43.3623 28.994 43.3852 28.9403 43.431 28.8758C43.4768 28.8194 43.5277 28.7872 43.6041 28.7872H45.6612V28.1535H43.3623V27.6218C43.3623 27.5574 43.3775 27.5037 43.4234 27.4392C43.4616 27.3829 43.5201 27.3533 43.6041 27.3533H46.7355V29.3162C46.7355 29.3967 46.7126 29.4585 46.6668 29.5068C46.621 29.5632 46.5624 29.5847 46.4937 29.5847H44.4443V29.9257C44.4443 30.0063 44.4519 30.0761 44.4748 30.1325C44.4901 30.1969 44.5435 30.2184 44.6479 30.2184H47.0818L47.0792 30.2211ZM47.2906 31.5126V31.8214C47.2906 32.0201 47.2447 32.2188 47.1556 32.4229L49.1465 33.5077L48.7417 34.1978L46.7075 33.0969C46.453 33.3493 46.122 33.5802 45.7019 33.7789C45.2819 33.9857 44.7549 34.136 44.126 34.2139V33.4943C44.3501 33.4137 44.5919 33.3117 44.8312 33.1855C45.0705 33.0674 45.2895 32.9331 45.4855 32.7827C45.6739 32.6404 45.8318 32.49 45.9591 32.3316C46.0787 32.1732 46.1398 32.0228 46.1398 31.8725V31.8483C46.1398 31.7677 46.1474 31.6979 46.178 31.6496C46.2009 31.6013 46.2391 31.569 46.2824 31.5475C46.3282 31.5314 46.3791 31.5234 46.4402 31.5153H47.2956L47.2906 31.5126ZM48.8461 30.785C48.8461 30.9112 48.8384 31.0213 48.8232 31.1179C48.8079 31.228 48.7773 31.3166 48.7392 31.3784C48.6933 31.4589 48.6424 31.5126 48.566 31.5449C48.4897 31.5932 48.3853 31.6093 48.2656 31.6093H47.7692V27.544C47.7692 27.3533 47.8074 27.2191 47.8965 27.1546C47.9728 27.0982 48.1001 27.066 48.2733 27.066H48.8435V30.7796L48.8461 30.785Z" fill="#6392BA"/>
    <path d="M54.0091 32.4551L52.7387 31.1716C52.5427 31.3623 52.3492 31.5368 52.1455 31.6791C51.9368 31.8375 51.7331 31.9638 51.5371 32.0738C51.3334 32.1839 51.1399 32.2806 50.9592 32.3504C50.7708 32.431 50.6053 32.4927 50.4627 32.533V31.7167C50.8675 31.518 51.2137 31.2898 51.5142 31.0266C51.8069 30.7742 52.0539 30.5111 52.2499 30.2264C52.4383 29.9499 52.5809 29.6652 52.6776 29.3779C52.7667 29.0933 52.8126 28.8221 52.8126 28.5616V28.4596H50.6868V27.9065C50.6868 27.842 50.7097 27.7803 50.7555 27.7239C50.8013 27.6755 50.8522 27.6514 50.9286 27.6353H53.8869V28.3012C53.8869 28.7603 53.8258 29.1712 53.7138 29.5364C53.5941 29.9015 53.4363 30.2345 53.2479 30.5272L54.5463 31.859L54.0066 32.4525L54.0091 32.4551ZM56 27.0687V33.3815C56 33.5077 55.9924 33.6259 55.9771 33.7225C55.9618 33.8246 55.9313 33.9132 55.8956 33.983C55.8498 34.0635 55.7989 34.1173 55.7225 34.1495C55.6461 34.1978 55.5417 34.2139 55.4221 34.2139H54.9256V27.544C54.9256 27.3533 54.9638 27.2271 55.0529 27.1627C55.1293 27.0982 55.2566 27.0687 55.4272 27.0687H56Z" fill="#6392BA"/>
    <path d="M30.8925 37.0092V35.8841H31.114V36.2788H31.6538V35.8841H31.8753V37.0092H30.8925ZM31.114 36.8078H31.6538V36.4775H31.114V36.8078ZM31.4094 37.7664H32.5397V37.9731H31.1828V37.2535H31.4094V37.7664ZM32.2724 37.3636V35.7821H32.4964V37.3636H32.2724Z" fill="#939598"/>
    <path d="M35.4395 36.9071V37.1085H33.5123V36.9071H34.2455V36.4131H34.4721V36.9071H35.4395ZM33.7643 35.8921H35.1518V36.2439C35.1518 36.2708 35.1518 36.3057 35.1493 36.3459C35.1467 36.3862 35.1442 36.4319 35.1391 36.4775C35.134 36.5258 35.1289 36.5715 35.1213 36.6225C35.1136 36.6708 35.106 36.7165 35.0958 36.7621L34.8718 36.7353C34.8921 36.644 34.9048 36.5581 34.9125 36.4802C34.9201 36.4023 34.9227 36.3271 34.9227 36.2546V36.0989H33.7618V35.8948L33.7643 35.8921ZM34.0138 37.7691H35.2002V37.9758H33.7872V37.3045H34.0138V37.7691Z" fill="#939598"/>
    <path d="M37.6977 37.4898C37.6009 37.5006 37.5042 37.5086 37.4049 37.514C37.3031 37.522 37.1987 37.5274 37.0867 37.5328C36.9746 37.5382 36.855 37.5408 36.7302 37.5435C36.6029 37.5435 36.4655 37.5462 36.3153 37.5462V37.3394C36.4222 37.3394 36.524 37.3394 36.6182 37.3394C36.7124 37.3394 36.8015 37.3394 36.8855 37.3368V36.9931H36.4553V35.9566H37.4966V36.1553H36.6742V36.3701H37.4736V36.5688H36.6742V36.7917H37.5297V36.9904H37.1147V37.326C37.2165 37.3207 37.3133 37.3153 37.4049 37.3099C37.4966 37.3045 37.5857 37.2965 37.6773 37.2857L37.6977 37.4844V37.4898ZM37.8122 37.9973V35.7821H38.0363V37.9973H37.8122Z" fill="#939598"/>
    <path d="M39.7267 36.942C39.7166 36.9689 39.7013 36.9984 39.6784 37.0253C39.658 37.0548 39.6275 37.0897 39.5918 37.1327C39.5434 37.1864 39.4925 37.2455 39.434 37.3072C39.3754 37.369 39.3092 37.4361 39.2303 37.514L39.0826 37.3529C39.1514 37.2884 39.2125 37.224 39.271 37.1649C39.327 37.1058 39.383 37.0468 39.434 36.985C39.4722 36.942 39.5027 36.9018 39.5256 36.8669C39.5485 36.832 39.5664 36.797 39.5791 36.7648C39.5918 36.7326 39.5994 36.6977 39.6045 36.6628C39.6096 36.6279 39.6122 36.5876 39.6122 36.542V36.3137H39.1437V36.107H39.6122V35.7928H39.8413V36.107H40.2919V36.3137H39.8413V36.542C39.8413 36.5903 39.8413 36.6306 39.8489 36.6655C39.8566 36.7004 39.8617 36.7353 39.8744 36.7675C39.8871 36.7997 39.905 36.832 39.9304 36.8669C39.9559 36.9018 39.9864 36.942 40.0297 36.9877C40.0781 37.0441 40.1264 37.0978 40.1799 37.1488C40.2308 37.1998 40.2894 37.2562 40.3581 37.3207L40.2105 37.4818C40.1341 37.4066 40.0679 37.3421 40.017 37.2884C39.9661 37.2347 39.9177 37.1837 39.8744 37.1327C39.8439 37.0951 39.8133 37.0629 39.7878 37.0307C39.7624 36.9984 39.7446 36.9716 39.7344 36.9474L39.7267 36.942ZM40.5618 37.9973V35.7821H40.7884V37.9973H40.5618Z" fill="#939598"/>
    <path d="M44.9636 36.9179V37.1193H44.1133V38H43.8867V37.1193H43.0364V36.9179H44.3806C44.4035 36.7997 44.4213 36.687 44.4315 36.5795C44.4417 36.4721 44.4468 36.3674 44.4468 36.26V36.1311H43.2782V35.9217H44.6734V36.2063C44.6734 36.3218 44.6683 36.4399 44.6581 36.5608C44.6479 36.6816 44.6326 36.7997 44.6097 36.9206H44.9636V36.9179Z" fill="#939598"/>
    <path d="M47.7208 37.5006V37.7019H45.7936V37.5006H46.6439V37.2347C46.5624 37.2294 46.4886 37.2132 46.4224 37.1891C46.3562 37.1649 46.3027 37.1354 46.2569 37.1005C46.2111 37.0656 46.178 37.0253 46.1525 36.9796C46.1271 36.934 46.1169 36.8857 46.1169 36.832V36.7541C46.1169 36.695 46.1322 36.6413 46.1602 36.5903C46.1907 36.5393 46.2315 36.4963 46.2875 36.4614C46.3435 36.4265 46.4097 36.397 46.4886 36.3782C46.5675 36.3594 46.6566 36.3486 46.7559 36.3486C46.8552 36.3486 46.9443 36.3594 47.0232 36.3782C47.1022 36.3996 47.1683 36.4265 47.2244 36.4614C47.2804 36.4963 47.3211 36.5393 47.3517 36.5903C47.3822 36.6386 47.3949 36.695 47.3949 36.7541V36.832C47.3949 36.8857 47.3822 36.934 47.3593 36.9796C47.3364 37.0253 47.3007 37.0656 47.2549 37.1005C47.2091 37.1354 47.1531 37.1649 47.0894 37.1891C47.0258 37.2132 46.9519 37.2267 46.8705 37.2347V37.5006H47.7208ZM47.54 36.0371V36.2358H45.9718V36.0371H46.6388V35.7606H46.8705V36.0371H47.54ZM46.3384 36.8212C46.3384 36.8481 46.346 36.8749 46.3638 36.9018C46.3791 36.9286 46.4071 36.9528 46.4402 36.9743C46.4733 36.9957 46.5191 37.0145 46.5726 37.028C46.6261 37.0414 46.6872 37.0495 46.7585 37.0495C46.8297 37.0495 46.8909 37.0441 46.9443 37.028C46.9978 37.0145 47.041 36.9957 47.0767 36.9743C47.1098 36.9528 47.1353 36.9286 47.1531 36.9018C47.1709 36.8749 47.1785 36.8481 47.1785 36.8212V36.7675C47.1785 36.7433 47.1709 36.7165 47.1531 36.687C47.1378 36.6601 47.1123 36.6359 47.0767 36.6145C47.0436 36.593 46.9978 36.5742 46.9443 36.5608C46.8909 36.5473 46.8297 36.5393 46.7585 36.5393C46.6872 36.5393 46.6235 36.5473 46.5726 36.5608C46.5191 36.5742 46.4759 36.593 46.4402 36.6145C46.4071 36.6359 46.3817 36.6601 46.3638 36.687C46.346 36.7138 46.3384 36.7407 46.3384 36.7675V36.8212Z" fill="#939598"/>
    <path d="M49.8161 36.9286C49.7346 36.9394 49.6608 36.9501 49.5895 36.9555C49.5207 36.9608 49.4418 36.9662 49.3578 36.9716C49.2738 36.977 49.1745 36.9796 49.0625 36.9796C48.9505 36.9796 48.813 36.9796 48.6475 36.9796V35.9244H49.62V36.1284H48.869V36.7756C48.9861 36.7756 49.0854 36.7756 49.1669 36.7756C49.2483 36.7756 49.3222 36.7702 49.3884 36.7675C49.4545 36.7648 49.5207 36.7595 49.5818 36.7541C49.6429 36.7487 49.7142 36.7407 49.7931 36.7326L49.8161 36.9286ZM49.1516 37.7664H50.2667V37.9731H48.9275V37.2374H49.1541V37.7664H49.1516ZM50.506 36.5661H50.2081V37.3636H49.9841V35.7821H50.2081V36.3594H50.506V36.5661Z" fill="#939598"/>
    <path d="M51.84 36.9394C51.8324 36.9635 51.8197 36.9877 51.8018 37.0145C51.784 37.0414 51.7637 37.0682 51.7407 37.0978C51.6949 37.1569 51.644 37.2159 51.588 37.2804C51.532 37.3448 51.4734 37.4093 51.4123 37.4764L51.2596 37.3153C51.3283 37.2455 51.392 37.1783 51.4505 37.1139C51.5091 37.0495 51.5625 36.9823 51.6109 36.9152C51.6567 36.8534 51.6873 36.7917 51.7026 36.7299C51.7178 36.6682 51.7255 36.6037 51.7255 36.5366V36.3218H51.3461V36.1231H51.7255V35.8358H51.9444V36.1231H52.3008V36.3218H51.9444V36.5366C51.9444 36.6064 51.9521 36.6682 51.9699 36.7272C51.9877 36.7863 52.0182 36.8481 52.0641 36.9098C52.1124 36.9743 52.1634 37.0387 52.2143 37.0978C52.2652 37.1569 52.3263 37.2213 52.395 37.2884L52.2423 37.4469C52.1812 37.3824 52.1277 37.3233 52.0768 37.2669C52.0284 37.2106 51.9801 37.1542 51.9342 37.0978C51.9113 37.0682 51.891 37.0414 51.8757 37.0145C51.8579 36.9877 51.8477 36.9635 51.84 36.9394ZM52.4994 35.8277H52.7209V37.8899H52.4994V36.7836H52.1914V36.5769H52.4994V35.8277ZM53.1359 37.9973H52.9144V35.7821H53.1359V37.9973Z" fill="#939598"/>
    <path d="M15.3449 29.0557C16.1449 29.0557 16.7935 28.3717 16.7935 27.5279C16.7935 26.684 16.1449 26 15.3449 26C14.5448 26 13.8963 26.684 13.8963 27.5279C13.8963 28.3717 14.5448 29.0557 15.3449 29.0557Z" fill="#6392BA"/>
    <path d="M20.9229 28.2341C20.9229 28.8543 20.4468 29.3591 19.8562 29.3591C19.2655 29.3591 18.7894 28.857 18.7894 28.2341C18.7894 27.6111 19.2655 27.109 19.8562 27.109C20.4468 27.109 20.9229 27.6111 20.9229 28.2341Z" fill="#6392BA"/>
    <path d="M8.44044 32.5115C8.84524 32.2484 9.19402 32.0631 9.57845 31.8644C9.95524 31.6738 10.3346 31.4992 10.7216 31.3408C11.493 31.0213 12.2822 30.7581 13.0892 30.5594C14.6982 30.1566 16.3709 30.0116 18.0206 30.1674C18.8454 30.2533 19.6601 30.4198 20.4544 30.6534C21.2488 30.8897 22.0125 31.22 22.7534 31.5932C24.2173 32.3746 25.536 33.4057 26.6893 34.5952C26.8421 34.7536 26.8471 35.0141 26.6969 35.1752C26.5518 35.3309 26.3176 35.339 26.1623 35.1994H26.1598C24.9963 34.128 23.7004 33.2365 22.3129 32.5948C21.6103 32.294 20.8974 32.0309 20.1617 31.859C19.4259 31.6899 18.68 31.5851 17.9315 31.5502C16.432 31.4992 14.9299 31.7194 13.4915 32.1705C12.7735 32.3961 12.0683 32.678 11.3886 33.0056C11.0474 33.1694 10.7139 33.3466 10.388 33.5373C10.0698 33.7225 9.72866 33.9373 9.47152 34.1253L9.4537 34.1387C9.03618 34.4475 8.46081 34.3428 8.16803 33.9024C7.87526 33.4621 7.97455 32.8552 8.39207 32.5464C8.40735 32.5357 8.42262 32.5249 8.4379 32.5142L8.44044 32.5115Z" fill="#6392BA"/>
    <path d="M22.0762 36.2869C22.0482 36.0371 21.7554 33.8407 20.3552 33.3493C19.5507 33.0647 18.6265 33.4298 17.6005 34.4234C16.3505 33.1855 15.2354 32.7263 14.2781 33.0647C12.6361 33.642 12.2898 36.2573 12.2567 36.5527C12.2185 36.8776 12.44 37.173 12.7481 37.2132C12.771 37.2159 12.7939 37.2186 12.8168 37.2186C13.0969 37.2186 13.3413 36.9984 13.3744 36.6977C13.438 36.1392 13.8072 34.4824 14.6346 34.1924C15.2278 33.983 16.1315 34.5039 17.1804 35.6559C17.3459 35.8384 17.5954 35.8814 17.8042 35.7874C17.8857 35.7579 17.962 35.7149 18.0257 35.6451C18.8531 34.7375 19.5532 34.3186 19.9962 34.4771C20.5716 34.6785 20.8923 35.8814 20.956 36.4345C20.9916 36.7353 21.2335 36.9555 21.5135 36.9555C21.5364 36.9555 21.5594 36.9555 21.5823 36.9501C21.8903 36.9098 22.1118 36.6145 22.0736 36.2895L22.0762 36.2869Z" fill="#6392BA"/>
</svg>
