<svg width="64" height="64" viewBox="0 0 64 64" fill="none" xmlns="http://www.w3.org/2000/svg">
    <circle cx="32" cy="32" r="32" fill="white"/>
    <path d="M39.7257 24.0543C39.7104 24.0532 39.6972 24.0428 39.6972 24.0271C39.6972 24.0115 39.7104 24 39.7257 24H57V34C53.0378 28.6649 46.8432 24.948 39.7257 24.0543Z" fill="#E8580D"/>
    <path d="M18.3688 30.2581V33.8162H19.4001V30.92C19.7472 30.636 19.9957 30.7311 20.6811 31.2708L21.0982 30.3813C20.8902 30.2957 20.6219 30.2007 20.2344 30.2007C19.8468 30.2007 19.5599 30.3813 19.4209 30.541L19.3705 30.5974L19.3607 30.5891L19.3705 30.2581H18.3688Z" fill="black"/>
    <path d="M22.5467 28.3736H21.5142V33.8162H22.5467V28.3736Z" fill="black"/>
    <path d="M35.0354 30.257H34.003V33.8162H35.0354V30.257Z" fill="black"/>
    <path d="M34.6479 28.7066C34.3731 28.7066 34.1628 28.9081 34.1628 29.1691C34.1628 29.4302 34.3741 29.6317 34.6479 29.6317C34.9216 29.6317 35.134 29.4302 35.134 29.1691C35.134 28.9081 34.9216 28.7066 34.6479 28.7066Z" fill="black"/>
    <path d="M40.2731 30.257H39.2418V33.8162H40.2731V30.257Z" fill="black"/>
    <path d="M39.7585 28.7066C39.4848 28.7066 39.2724 28.9081 39.2724 29.1691C39.2724 29.4302 39.4848 29.6317 39.7585 29.6317C40.0323 29.6317 40.2447 29.4302 40.2447 29.1691C40.2447 28.9081 40.0323 28.7066 39.7585 28.7066Z" fill="black"/>
    <path d="M35.8369 31.2322C35.7372 32.5863 37.8218 32.2648 37.7627 33.0875C37.732 33.4185 37.4342 33.5323 37.1178 33.5218C36.601 33.4842 36.2846 33.2013 36.0055 32.8881L35.6978 33.5417C36.1149 33.7682 36.5715 33.882 36.9678 33.9102C37.8612 33.9676 38.6155 33.597 38.6648 32.7753C38.7546 31.4974 36.601 31.6582 36.6405 31.0056C36.6613 30.7217 36.9974 30.5797 37.3455 30.5985C37.7024 30.6266 37.9805 30.8156 38.2882 31.0808L38.5663 30.494C38.1787 30.3333 37.8119 30.257 37.4846 30.2299C36.5222 30.1735 35.8763 30.6559 35.8369 31.2332" fill="black"/>
    <path d="M31.1849 33.8162H31.6217L33.8059 29.0365H33.2388L31.7203 32.3963L30.2214 29.0365H28.9711L31.1849 33.8162Z" fill="black"/>
    <path d="M49.4292 33.8162V31.8565C49.4292 30.5316 48.3672 30.2007 47.7421 30.2007C47.2954 30.2007 46.9188 30.3615 46.5411 30.6068L46.5202 30.5974V30.256H45.5677V33.8152H46.6002V30.9472C46.9078 30.6914 47.2056 30.588 47.464 30.588C48.0092 30.588 48.3869 31.0892 48.3869 31.6383V33.8152H49.4292V33.8162Z" fill="black"/>
    <path d="M11.2085 29.4918H10.6228L9.45133 32.3775L8.20103 29.0553H7L8.85684 33.8068H9.42177L10.6228 30.873L11.8129 33.8068H12.38L14.2358 29.0658H13.6697L12.3691 32.3775L11.2085 29.4918Z" fill="black"/>
    <path d="M15.8266 33.5124C15.1817 33.5124 14.8938 32.8599 14.8938 32.0361C14.8938 31.2124 15.1817 30.5588 15.8266 30.5588C16.4714 30.5588 16.7594 31.2124 16.7594 32.0361C16.7594 32.8599 16.4714 33.5124 15.8266 33.5124ZM15.8266 30.2195C14.5763 30.2195 13.8022 31.0432 13.8022 32.0372C13.8022 33.0311 14.5763 33.8538 15.8266 33.8538C17.0769 33.8538 17.8509 33.0301 17.8509 32.0372C17.8509 31.0443 17.078 30.2195 15.8266 30.2195Z" fill="black"/>
    <path d="M42.9576 33.5124C42.3128 33.5124 42.0249 32.8599 42.0249 32.0361C42.0249 31.2124 42.3128 30.5588 42.9576 30.5588C43.6025 30.5588 43.8905 31.2124 43.8905 32.0361C43.8905 32.8599 43.6025 33.5124 42.9576 33.5124ZM42.9576 30.2195C41.7073 30.2195 40.9322 31.0432 40.9322 32.0372C40.9322 33.0311 41.7063 33.8538 42.9576 33.8538C44.209 33.8538 44.982 33.0301 44.982 32.0372C44.982 31.0443 44.208 30.2195 42.9576 30.2195Z" fill="black"/>
    <path d="M26.2067 33.1157C25.9395 33.3328 25.691 33.4936 25.3133 33.4936C24.8568 33.4936 24.2623 33.1251 24.2623 32.0549C24.2623 30.9002 25.2049 30.067 26.2067 30.966V33.1157ZM26.2067 28.3736V30.541C25.9187 30.3333 25.483 30.2007 25.0363 30.2007C24.4714 30.2007 23.1214 30.5316 23.1214 32.0935C23.1214 33.2566 24.1933 33.8914 25.0264 33.8914C25.5126 33.8914 25.9089 33.7306 26.2658 33.4654L26.2866 33.4748V33.8152H27.2391V28.3736H26.2067Z" fill="black"/>
    <path d="M54.1491 29.8259C54.2662 28.1804 54.2279 27.2188 54.5235 26.9578C54.7972 26.7156 55.2899 26.6509 56.1274 26.5924C54.2892 26.3899 54.3341 26.4421 54.1491 24.7371C53.9651 26.4421 54.0089 26.3888 52.1707 26.5924C53.0082 26.6509 53.5009 26.7156 53.7746 26.9578C54.0702 27.2178 54.0319 28.1804 54.1491 29.8259Z" fill="white"/>
</svg>
