<svg width="32" height="32" viewBox="0 0 32 32" fill="none" xmlns="http://www.w3.org/2000/svg">
    <rect width="32" height="32" rx="6" fill="#212529"/>
    <g clip-path="url(#clip0_343_4222)">
        <path d="M22.1316 19.222C21.9018 19.7251 21.6298 20.1882 21.3146 20.6139C20.885 21.1944 20.5332 21.5961 20.2621 21.8192C19.8419 22.1854 19.3917 22.373 18.9095 22.3837C18.5634 22.3837 18.146 22.2903 17.6601 22.101C17.1726 21.9126 16.7246 21.8192 16.315 21.8192C15.8854 21.8192 15.4247 21.9126 14.9318 22.101C14.4383 22.2903 14.0406 22.389 13.7366 22.3988C13.2743 22.4174 12.8135 22.2245 12.3535 21.8192C12.0599 21.5766 11.6926 21.1606 11.2527 20.5713C10.7807 19.942 10.3927 19.2122 10.0886 18.3802C9.76307 17.4816 9.59985 16.6114 9.59985 15.7689C9.59985 14.8039 9.81991 13.9716 10.2607 13.2741C10.6071 12.7138 11.0679 12.2719 11.6447 11.9474C12.2215 11.623 12.8447 11.4577 13.5158 11.4471C13.8831 11.4471 14.3646 11.5547 14.9631 11.7663C15.5598 11.9785 15.943 12.0862 16.111 12.0862C16.2366 12.0862 16.6623 11.9603 17.3839 11.7094C18.0663 11.4767 18.6422 11.3803 19.114 11.4183C20.3925 11.5161 21.353 11.9937 21.9918 12.8541C20.8484 13.5106 20.2828 14.4301 20.294 15.6097C20.3044 16.5285 20.6561 17.2931 21.3474 17.9002C21.6607 18.182 22.0106 18.3998 22.3999 18.5544C22.3154 18.7864 22.2263 19.0086 22.1316 19.222ZM19.1994 8.28808C19.1994 9.00825 18.9217 9.68066 18.3683 10.303C17.7005 11.0429 16.8926 11.4705 16.0166 11.403C16.0055 11.3166 15.999 11.2257 15.999 11.1301C15.999 10.4388 16.3166 9.69888 16.8806 9.09392C17.1622 8.78762 17.5204 8.53294 17.9547 8.32977C18.388 8.12963 18.7979 8.01895 19.1834 8C19.1947 8.09627 19.1994 8.19256 19.1994 8.28807V8.28808Z" fill="white"/>
    </g>
    <defs>
        <clipPath id="clip0_343_4222">
            <rect width="19.2" height="19.2" fill="white" transform="translate(6.3999 6.39999)"/>
        </clipPath>
    </defs>
</svg>
