<svg width="32" height="32" viewBox="0 0 32 32" fill="none" xmlns="http://www.w3.org/2000/svg">
    <rect width="32" height="32" rx="6" fill="#FAE100"/>
    <g clip-path="url(#clip0_343_4218)">
        <path d="M15.8392 8.17345C11.5102 8.17345 8 11.1697 8 14.868C8 17.2435 9.45388 19.3292 11.6373 20.5196L10.8986 23.5004C10.8703 23.5919 10.8938 23.6888 10.9551 23.7548C10.9974 23.8008 11.0537 23.8262 11.1149 23.8262C11.1622 23.8262 11.2091 23.8059 11.2515 23.7703L14.4276 21.4505C14.8889 21.5217 15.3595 21.5623 15.8392 21.5623C20.1682 21.5623 23.6788 18.5662 23.6788 14.868C23.6788 11.1697 20.1682 8.17345 15.8392 8.17345Z" fill="#3C1E1E"/>
    </g>
    <defs>
        <clipPath id="clip0_343_4218">
            <rect width="19.2" height="19.2" fill="white" transform="translate(6.3999 6.39999)"/>
        </clipPath>
    </defs>
</svg>
