<svg width="6" height="6" viewBox="0 0 6 6" fill="none" xmlns="http://www.w3.org/2000/svg">
    <path d="M2.45996 5.20254C2.45251 5.3732 2.58885 5.51562 2.75967 5.51562H3.24586C3.41717 5.51562 3.5537 5.37241 3.54552 5.2013L3.5063 4.38093C3.49466 4.13742 3.76292 3.98244 3.96806 4.11417L4.61983 4.53271C4.75955 4.62243 4.94558 4.58159 5.03487 4.44159L5.25201 4.10113C5.34618 3.95348 5.2944 3.75691 5.13971 3.67481L4.36749 3.26499C4.155 3.15223 4.155 2.84777 4.36749 2.73501L5.13868 2.32574C5.29374 2.24344 5.34533 2.04618 5.2504 1.89851L5.03519 1.56375C4.94563 1.42443 4.7601 1.38405 4.62074 1.47355L3.96794 1.89274C3.76283 2.02446 3.49459 1.86952 3.50618 1.62604L3.54558 0.798644C3.55373 0.62755 3.41721 0.484375 3.24592 0.484375H2.76086C2.58959 0.484375 2.45308 0.627515 2.46119 0.798588L2.50073 1.63212C2.51228 1.87575 2.24372 2.03061 2.03865 1.89857L1.38028 1.47464C1.24055 1.38467 1.0543 1.42544 0.964933 1.56556L0.748588 1.90476C0.654201 2.05275 0.706471 2.24981 0.861798 2.33156L1.62952 2.73562C1.84281 2.84788 1.84333 3.15311 1.63043 3.2661L0.860286 3.67481C0.705601 3.75691 0.653818 3.95348 0.747986 4.10113L0.964572 4.44071C1.05408 4.58105 1.24073 4.62169 1.38048 4.53126L2.03344 4.10876C2.23804 3.97637 2.50676 4.13025 2.49613 4.37371L2.45996 5.20254Z" fill="#C9162B"/>
</svg>
