<svg width="16" height="16" viewBox="0 0 16 16" fill="none" xmlns="http://www.w3.org/2000/svg">
    <path d="M14 13V11.8889C14 10.8534 13.2351 9.98337 12.2 9.73668M10.1 3.16153C10.9795 3.49119 11.6 4.28962 11.6 5.22222C11.6 6.15483 10.9795 6.95325 10.1 7.28291M11 13C11 11.9646 11 11.4469 10.8173 11.0385C10.5737 10.494 10.1065 10.0614 9.51844 9.83582C9.07739 9.66667 8.51826 9.66667 7.4 9.66667H5.6C4.48174 9.66667 3.92261 9.66667 3.48156 9.83582C2.89349 10.0614 2.42627 10.494 2.18269 11.0385C2 11.4469 2 11.9646 2 13M8.9 5.22222C8.9 6.44952 7.82548 7.44444 6.5 7.44444C5.17452 7.44444 4.1 6.44952 4.1 5.22222C4.1 3.99492 5.17452 3 6.5 3C7.82548 3 8.9 3.99492 8.9 5.22222Z" stroke="black" stroke-width="1.2" stroke-linecap="round"/>
</svg>
