<svg width="64" height="104" viewBox="0 0 64 104" fill="none" xmlns="http://www.w3.org/2000/svg">
    <path d="M24.2262 32.6113C24.1094 32.4265 24.0511 32.334 24.0184 32.1915C23.9939 32.0844 23.9939 31.9156 24.0184 31.8085C24.0511 31.666 24.1094 31.5735 24.2262 31.3887C25.1908 29.8613 28.0621 26 32.4378 26C36.8136 26 39.6849 29.8613 40.6495 31.3887C40.7662 31.5735 40.8246 31.666 40.8573 31.8085C40.8818 31.9156 40.8818 32.0844 40.8573 32.1915C40.8246 32.334 40.7662 32.4265 40.6495 32.6113C39.6849 34.1387 36.8136 38 32.4378 38C28.0621 38 25.1908 34.1387 24.2262 32.6113Z" stroke="#C8C8C8" stroke-width="1.4" stroke-linecap="round" stroke-linejoin="round"/>
    <path d="M32.4378 34.5714C33.858 34.5714 35.0093 33.4202 35.0093 32C35.0093 30.5798 33.858 29.4286 32.4378 29.4286C31.0177 29.4286 29.8664 30.5798 29.8664 32C29.8664 33.4202 31.0177 34.5714 32.4378 34.5714Z" stroke="#C8C8C8" stroke-width="1.4" stroke-linecap="round" stroke-linejoin="round"/>
    <path d="M31.1556 66.7436C31.4943 66.6935 31.8436 66.6667 32.2035 66.6667C36.4576 66.6667 39.2492 70.4207 40.187 71.9057C40.3006 72.0854 40.3573 72.1753 40.3891 72.3139C40.4129 72.418 40.4129 72.5822 40.389 72.6863C40.3572 72.8249 40.3001 72.9154 40.1858 73.0963C39.9359 73.4918 39.5549 74.0476 39.0502 74.6504M27.8067 68.0959C26.005 69.3181 24.7818 71.0161 24.2207 71.9044C24.1067 72.0849 24.0497 72.1751 24.0179 72.3137C23.994 72.4178 23.994 72.582 24.0179 72.6861C24.0496 72.8247 24.1064 72.9146 24.2199 73.0943C25.1577 74.5793 27.9493 78.3333 32.2035 78.3333C33.9188 78.3333 35.3964 77.723 36.6105 76.8972M24.7035 65L39.7035 80M30.4357 70.7322C29.9833 71.1846 29.7035 71.8096 29.7035 72.5C29.7035 73.8807 30.8228 75 32.2035 75C32.8938 75 33.5188 74.7202 33.9712 74.2678" stroke="#C8C8C8" stroke-width="1.4" stroke-linecap="round" stroke-linejoin="round"/>
    <rect x="0.5" y="0.5" width="63" height="103" rx="4.5" stroke="#9747FF" stroke-dasharray="10 5"/>
</svg>
