<svg width="24" height="24" viewBox="0 0 24 24" fill="none" xmlns="http://www.w3.org/2000/svg">
    <rect x="1.83398" y="1.83331" width="20.3333" height="20.3333" rx="2.16667" stroke="#E1E1E1"/>
    <path d="M15.9993 9.66667C17.288 9.66667 18.3327 8.622 18.3327 7.33333C18.3327 6.04467 17.288 5 15.9993 5C14.7107 5 13.666 6.04467 13.666 7.33333C13.666 8.622 14.7107 9.66667 15.9993 9.66667Z" fill="#E1E1E1"/>
    <path d="M16.6658 21.9487C16.6682 22.1914 16.6357 22.4331 16.569 22.6667H6.26266C5.04384 22.6657 2.86124 22.5193 1.99941 21.6667C1.13758 20.8141 1.66666 19.0391 1.66563 17.8334L1.66592 12.7201C2.13294 12.4893 2.61846 12.2972 3.11752 12.1457C4.61731 11.6766 6.20507 11.5499 7.76148 11.7751C9.31788 12.0003 10.8024 12.5716 12.1036 13.4459C13.4047 14.3203 14.4886 15.4751 15.2738 16.8234C16.0589 18.1717 16.5249 19.6786 16.6368 21.2307C16.6561 21.47 16.6658 21.7094 16.6658 21.9487Z" fill="#E1E1E1"/>
    <path d="M22.3333 15.542L22.5 18.1667C22.499 19.3521 22.7041 20.8285 21.8333 21.6667C20.9626 22.5049 18.9204 22.6657 17.6889 22.6667H17.3662C17.4174 22.4346 17.4436 22.1981 17.4444 21.9608C17.4444 21.6973 17.4347 21.4432 17.4151 21.189C17.2605 18.9925 16.4185 16.8925 15 15.1655C16.0246 14.8363 17.0976 14.6679 18.1778 14.6667C19.087 14.6654 19.9919 14.7858 20.8667 15.0243C21.3711 15.1531 21.862 15.3264 22.3333 15.542Z" fill="#E1E1E1"/>
</svg>