<svg width="72" height="72" viewBox="0 0 72 72" fill="none" xmlns="http://www.w3.org/2000/svg">
    <rect x="4.7" y="4.7" width="62.6" height="62.6" rx="7.3" stroke="#E1E1E1" stroke-width="1.4"/>
    <path d="M48 29C51.866 29 55 25.866 55 22C55 18.134 51.866 15 48 15C44.134 15 41 18.134 41 22C41 25.866 44.134 29 48 29Z" fill="#E1E1E1"/>
    <path d="M49.9996 65.846C50.0069 66.574 49.9092 67.2993 49.7092 68H18.7902C15.1337 67.997 8.58592 67.5577 6.00042 65C3.41492 62.4423 5.00216 57.1171 4.99909 53.5L4.99996 38.1602C6.40102 37.4679 7.85759 36.8915 9.35476 36.437C13.8541 35.0297 18.6174 34.6496 23.2866 35.3252C27.9558 36.0008 32.4095 37.7146 36.313 40.3378C40.2164 42.9609 43.468 46.4251 45.8235 50.4701C48.1789 54.5152 49.577 59.0357 49.9125 63.692C49.9705 64.41 49.9996 65.128 49.9996 65.846Z" fill="#E1E1E1"/>
    <path d="M67 46.6259L67.5 54.5C67.4969 58.0561 68.1123 62.4855 65.5 65C62.8877 67.5145 56.7611 67.997 53.0667 68H52.0987C52.2523 67.3038 52.3309 66.5941 52.3333 65.8824C52.3333 65.0918 52.304 64.3294 52.2453 63.5671C51.7816 56.9774 49.2556 50.6775 45 45.4965C48.0738 44.5088 51.2927 44.0035 54.5333 44C57.2609 43.9962 59.9757 44.3573 62.6 45.073C64.1132 45.4593 65.5861 45.9791 67 46.6259Z" fill="#E1E1E1"/>
</svg>
