<svg width="40" height="40" viewBox="0 0 40 40" fill="none" xmlns="http://www.w3.org/2000/svg">
    <circle cx="20" cy="20" r="20" fill="black"/>
    <path d="M17 18.5L19 20.5L23.5 16M28 29V15.8C28 14.1198 28 13.2798 27.673 12.638C27.3854 12.0735 26.9265 11.6146 26.362 11.327C25.7202 11 24.8802 11 23.2 11H16.8C15.1198 11 14.2798 11 13.638 11.327C13.0735 11.6146 12.6146 12.0735 12.327 12.638C12 13.2798 12 14.1198 12 15.8V29L14.75 27L17.25 29L20 27L22.75 29L25.25 27L28 29Z" stroke="white" stroke-width="1.4" stroke-linecap="round" stroke-linejoin="round"/>
</svg>
