<svg width="24" height="24" viewBox="0 0 24 24" fill="none" xmlns="http://www.w3.org/2000/svg">
<path d="M21.06 6.692C20.3266 5.72837 19.2905 5.03925 18.1183 4.73533C16.946 4.43141 15.7057 4.53034 14.5964 5.01622C13.6036 5.44466 12.7181 6.167 12 7.1256C11.2819 6.16466 10.3964 5.44232 9.40359 5.01622C8.29435 4.53034 7.05397 4.43141 5.88173 4.73533C4.7095 5.03925 3.67344 5.72837 2.94 6.692C2.16656 7.70544 1.75781 8.972 1.75781 10.3543C1.75781 12.3437 2.94422 14.5262 5.28375 16.8437C7.19016 18.7314 9.44297 20.2773 10.6158 21.0306C11.029 21.2951 11.5094 21.4356 12 21.4356C12.4906 21.4356 12.971 21.2951 13.3842 21.0306C14.5561 20.2773 16.8098 18.7314 18.7162 16.8437C21.0558 14.5272 22.2422 12.3437 22.2422 10.3543C22.2422 8.972 21.8334 7.70544 21.06 6.692Z" fill="white"/>
</svg>
