<?xml version="1.0" encoding="utf-8"?>
<!-- Generator: Adobe Illustrator 25.4.0, SVG Export Plug-In . SVG Version: 6.00 Build 0)  -->
<svg version="1.1" id="레이어_1" xmlns="http://www.w3.org/2000/svg" xmlns:xlink="http://www.w3.org/1999/xlink" x="0px"
	 y="0px" viewBox="0 0 24 24" style="enable-background:new 0 0 24 24;" xml:space="preserve">
<style type="text/css">
	.st0{fill:#3F3B3B;}
</style>
<g>
	<path class="st0" d="M9.82,16.26c0-0.42,0-0.82,0-1.25c-0.27,0-0.51,0-0.77,0c0-1.84,0-3.64,0-5.44c0.02,0,0.04-0.01,0.05-0.01
		c0.61,2.24,1.22,4.47,1.84,6.72c0.42,0,0.81-0.01,1.2,0.01c0.22,0.01,0.31-0.07,0.36-0.28c0.45-1.65,0.91-3.3,1.36-4.94
		c0.14-0.51,0.28-1.01,0.42-1.51c0.01,0,0.03,0.01,0.04,0.01c0,1.81,0,3.62,0,5.46c-0.26,0-0.51,0-0.77,0c0,0.43,0,0.83,0,1.24
		c1.29,0,2.55,0,3.83,0c0-0.42,0-0.82,0-1.22c-0.79-0.08-0.79-0.08-0.79-0.85c0-1.47,0-2.94,0-4.41c0-0.69,0.05-0.75,0.73-0.79
		c0.02,0,0.03-0.02,0.05-0.03c0-0.4,0-0.81,0-1.22c-1.26,0-2.5,0.01-3.74-0.01c-0.23,0-0.31,0.08-0.36,0.28
		c-0.38,1.43-0.77,2.86-1.15,4.28c-0.03,0.1-0.06,0.19-0.12,0.36c-0.05-0.16-0.09-0.24-0.11-0.33c-0.38-1.43-0.77-2.86-1.15-4.29
		c-0.06-0.23-0.13-0.32-0.39-0.32C9.21,7.74,8.05,7.73,6.9,7.73c-0.1,0-0.19,0.01-0.29,0.02c0,0.42,0,0.82,0,1.22
		C6.66,8.98,6.7,8.99,6.74,8.99C7.3,9.02,7.4,9.12,7.4,9.67c0,1.52,0,3.04,0,4.56c0,0.72-0.02,0.74-0.72,0.79
		c-0.03,0-0.05,0.02-0.07,0.03c0,0.41,0,0.8,0,1.21C7.7,16.26,8.75,16.26,9.82,16.26z"/>
	<path class="st0" d="M9.82,16.26c-1.07,0-2.12,0-3.2,0c0-0.4,0-0.8,0-1.21c0.02-0.01,0.04-0.03,0.07-0.03
		c0.7-0.06,0.72-0.08,0.72-0.79c0-1.52,0-3.04,0-4.56c0-0.55-0.1-0.65-0.66-0.68c-0.04,0-0.08-0.01-0.13-0.02c0-0.4,0-0.8,0-1.22
		C6.71,7.74,6.81,7.73,6.9,7.73c1.15,0,2.3,0.01,3.45-0.01c0.26,0,0.33,0.09,0.39,0.32c0.37,1.43,0.76,2.86,1.15,4.29
		c0.02,0.08,0.05,0.16,0.11,0.33c0.06-0.17,0.09-0.26,0.12-0.36c0.39-1.43,0.78-2.85,1.15-4.28c0.05-0.21,0.14-0.29,0.36-0.28
		c1.24,0.01,2.48,0.01,3.74,0.01c0,0.42,0,0.82,0,1.22C17.35,8.98,17.33,9,17.32,9c-0.68,0.04-0.73,0.1-0.73,0.79
		c0,1.47,0,2.94,0,4.41c0,0.78,0,0.78,0.79,0.85c0,0.4,0,0.8,0,1.22c-1.27,0-2.54,0-3.83,0c0-0.41,0-0.81,0-1.24
		c0.26,0,0.51,0,0.77,0c0-1.84,0-3.65,0-5.46c-0.01,0-0.03-0.01-0.04-0.01c-0.14,0.5-0.28,1.01-0.42,1.51
		c-0.46,1.65-0.92,3.29-1.36,4.94c-0.06,0.21-0.14,0.3-0.36,0.28c-0.39-0.02-0.78-0.01-1.2-0.01c-0.61-2.25-1.23-4.48-1.84-6.72
		c-0.02,0-0.04,0.01-0.05,0.01c0,1.8,0,3.61,0,5.44c0.26,0,0.5,0,0.77,0C9.82,15.44,9.82,15.84,9.82,16.26z"/>
</g>
<g>
	<path class="st0" d="M12,1.25c5.93,0,10.75,4.82,10.75,10.75S17.93,22.75,12,22.75S1.25,17.93,1.25,12S6.07,1.25,12,1.25 M12,0
		C5.37,0,0,5.37,0,12s5.37,12,12,12s12-5.37,12-12S18.63,0,12,0L12,0z"/>
</g>
</svg>
