<svg width="104" height="104" viewBox="0 0 104 104" fill="none" xmlns="http://www.w3.org/2000/svg">
    <path fill-rule="evenodd" clip-rule="evenodd" d="M104 52C104 80.7187 80.7187 104 52 104C23.2812 104 0 80.7187 0 52C0 23.2812 23.2812 0 52 0C80.7187 0 104 23.2812 104 52ZM66.1818 33.0909C66.1818 40.9233 59.8326 47.2727 52 47.2727C44.1674 47.2727 37.8182 40.9233 37.8182 33.0909C37.8182 25.2585 44.1674 18.9091 52 18.9091C59.8326 18.9091 66.1818 25.2585 66.1818 33.0909ZM42.5455 56.7273C34.7131 56.7273 28.3636 63.0765 28.3636 70.9091C28.3636 78.7417 34.7131 85.0909 42.5455 85.0909H61.4545C69.2872 85.0909 75.6364 78.7417 75.6364 70.9091C75.6364 63.0765 69.2872 56.7273 61.4545 56.7273H42.5455Z" fill="black"/>
</svg>
