<svg width="48" height="48" viewBox="0 0 48 48" fill="none" xmlns="http://www.w3.org/2000/svg">
    <path fill-rule="evenodd" clip-rule="evenodd" d="M48 24C48 37.2548 37.2548 48 24 48C10.7452 48 0 37.2548 0 24C0 10.7452 10.7452 0 24 0C37.2548 0 48 10.7452 48 24ZM30.5455 15.2727C30.5455 18.8877 27.6151 21.8182 24 21.8182C20.3849 21.8182 17.4545 18.8877 17.4545 15.2727C17.4545 11.6578 20.3849 8.72727 24 8.72727C27.6151 8.72727 30.5455 11.6578 30.5455 15.2727ZM19.6364 26.1818C16.0214 26.1818 13.0909 29.1122 13.0909 32.7273C13.0909 36.3423 16.0214 39.2727 19.6364 39.2727H28.3636C31.9787 39.2727 34.9091 36.3423 34.9091 32.7273C34.9091 29.1122 31.9787 26.1818 28.3636 26.1818H19.6364Z" fill="#E1E1E1"/>
</svg>