<svg width="200" height="32" viewBox="0 0 200 32" fill="none" xmlns="http://www.w3.org/2000/svg">
    <path d="M142.957 9.39786C145.97 9.39786 148.337 10.3763 150.054 12.3317C151.773 14.2885 152.633 17.0907 152.633 20.7383C152.633 24.333 151.781 27.0965 150.074 29.0261C148.371 30.9545 145.996 31.92 142.957 31.92C139.945 31.92 137.577 30.9545 135.861 29.0261C134.142 27.0965 133.282 24.333 133.282 20.7383C133.282 17.0907 134.147 14.2885 135.879 12.3317C137.611 10.3763 139.97 9.39786 142.957 9.39786ZM142.957 12.3317C141.055 12.3317 139.594 13.0455 138.576 14.473C137.557 15.9006 137.048 17.989 137.048 20.7383C137.048 23.4618 137.557 25.5166 138.576 26.9042C139.594 28.2917 141.055 28.9861 142.957 28.9861C144.886 28.9861 146.36 28.2917 147.379 26.9042C148.396 25.5166 148.905 23.4618 148.905 20.7383C148.905 17.989 148.396 15.9006 147.379 14.473C146.36 13.0455 144.886 12.3317 142.957 12.3317ZM111.985 25.616C111.985 23.4218 112.718 21.749 114.184 20.6002C115.653 19.4501 117.785 18.8745 120.589 18.8745H124.791V17.4869C124.791 14.1297 123.312 12.4517 120.351 12.4517C119.399 12.4517 118.402 12.5834 117.357 12.848C116.311 13.1126 115.353 13.4431 114.483 13.8393L113.412 11.2617C114.496 10.6537 115.666 10.1852 116.92 9.85349C118.175 9.52438 119.399 9.35786 120.589 9.35786C125.715 9.35786 128.281 12.0942 128.281 17.5657V31.4437H125.584L125.147 29.0648C124.063 29.9374 122.909 30.6112 121.678 31.0874C120.449 31.5637 119.28 31.8012 118.17 31.8012C116.239 31.8012 114.726 31.2527 113.629 30.1556C112.532 29.0584 111.985 27.5457 111.985 25.616ZM118.831 28.8674C119.329 28.8674 119.85 28.8016 120.39 28.6686C120.929 28.537 121.469 28.3653 122.008 28.1536C122.548 27.9419 123.054 27.6838 123.529 27.3805C124.001 27.0758 124.422 26.7518 124.791 26.4085V21.3333H121.002C119.078 21.3333 117.677 21.6638 116.796 22.3246C115.914 22.9855 115.475 24.0297 115.475 25.4572C115.475 27.7302 116.592 28.8674 118.831 28.8674ZM95.0346 31.4437H91.3869V0.793794L95.0346 0V31.4437ZM104.787 9.20038L107.642 11.2617L100.626 20.0645L108.753 29.8187L105.939 32L96.3434 20.262L104.787 9.20038ZM68.5976 25.616C68.5976 23.4218 69.3307 21.749 70.7996 20.6002C72.2659 19.4501 74.4008 18.8745 77.2017 18.8745H81.4069V17.4869C81.4069 14.1297 79.9252 12.4517 76.9642 12.4517C76.0142 12.4517 75.0152 12.5834 73.9723 12.848C72.9268 13.1126 71.969 13.4431 71.0965 13.8393L70.0252 11.2617C71.1094 10.6537 72.2788 10.1852 73.536 9.85349C74.7906 9.52438 76.0142 9.35786 77.2017 9.35786C82.3311 9.35786 84.8945 12.0942 84.8945 17.5657V31.4437H82.1994L81.7631 29.0648C80.6789 29.9374 79.5224 30.6112 78.2936 31.0874C77.0648 31.5637 75.8955 31.8012 74.7828 31.8012C72.8545 31.8012 71.3417 31.2527 70.2446 30.1556C69.1475 29.0584 68.5976 27.5457 68.5976 25.616ZM75.4437 28.8674C75.9445 28.8674 76.4634 28.8016 77.0029 28.6686C77.5424 28.537 78.082 28.3653 78.6215 28.1536C79.161 27.9419 79.6696 27.6838 80.142 27.3805C80.617 27.0758 81.0378 26.7518 81.4069 26.4085V21.3333H77.6147C75.6941 21.3333 74.2924 21.6638 73.4095 22.3246C72.5292 22.9855 72.0878 24.0297 72.0878 25.4572C72.0878 27.7302 73.2055 28.8674 75.4437 28.8674ZM51.6476 31.4437H48V0.793794L51.6476 0V31.4437ZM61.403 9.20038L64.2582 11.2617L57.2391 20.0645L65.3682 29.8187L62.5518 32L52.9564 20.262L61.403 9.20038Z" fill="#FFCD00"/>
</svg>
