<svg width="24" height="24" viewBox="0 0 24 24" fill="none" xmlns="http://www.w3.org/2000/svg">
    <path d="M11.1556 6.7436C11.4943 6.69353 11.8436 6.66667 12.2035 6.66667C16.4576 6.66667 19.2492 10.4207 20.187 11.9057C20.3006 12.0854 20.3573 12.1753 20.3891 12.3139C20.4129 12.418 20.4129 12.5822 20.389 12.6863C20.3572 12.8249 20.3001 12.9154 20.1858 13.0963C19.9359 13.4918 19.5549 14.0476 19.0502 14.6504M7.80673 8.09586C6.005 9.31808 4.78183 11.0161 4.22071 11.9044C4.1067 12.0849 4.04969 12.1751 4.01791 12.3137C3.99404 12.4178 3.99403 12.582 4.01789 12.6861C4.04965 12.8247 4.1064 12.9146 4.2199 13.0943C5.15774 14.5793 7.9493 18.3333 12.2035 18.3333C13.9188 18.3333 15.3964 17.723 16.6105 16.8972M4.70347 5L19.7035 20M10.4357 10.7322C9.98329 11.1846 9.70347 11.8096 9.70347 12.5C9.70347 13.8807 10.8228 15 12.2035 15C12.8938 15 13.5188 14.7202 13.9712 14.2678" stroke="#C8C8C8" stroke-width="1.4" stroke-linecap="round" stroke-linejoin="round"/>
</svg>
