<svg width="24" height="24" viewBox="0 0 24 24" fill="none" xmlns="http://www.w3.org/2000/svg">
    <path d="M4.22618 12.6113C4.10944 12.4265 4.05108 12.334 4.01841 12.1915C3.99386 12.0844 3.99386 11.9156 4.01841 11.8085C4.05108 11.666 4.10944 11.5735 4.22618 11.3887C5.19081 9.86129 8.06213 6 12.4378 6C16.8136 6 19.6849 9.86129 20.6495 11.3887C20.7662 11.5735 20.8246 11.666 20.8573 11.8085C20.8818 11.9156 20.8818 12.0844 20.8573 12.1915C20.8246 12.334 20.7662 12.4265 20.6495 12.6113C19.6849 14.1387 16.8136 18 12.4378 18C8.06213 18 5.19081 14.1387 4.22618 12.6113Z" stroke="#C8C8C8" stroke-width="1.4" stroke-linecap="round" stroke-linejoin="round"/>
    <path d="M12.4378 14.5714C13.858 14.5714 15.0093 13.4202 15.0093 12C15.0093 10.5798 13.858 9.42857 12.4378 9.42857C11.0177 9.42857 9.86642 10.5798 9.86642 12C9.86642 13.4202 11.0177 14.5714 12.4378 14.5714Z" stroke="#C8C8C8" stroke-width="1.4" stroke-linecap="round" stroke-linejoin="round"/>
</svg>
