<svg width="24" height="24" viewBox="0 0 24 24" fill="none" xmlns="http://www.w3.org/2000/svg">
<g clip-path="url(#clip0_607_2699)">
<path d="M1.50008 1.63305C-0.385923 3.59205 7.7188e-05 5.67305 7.7188e-05 11.995C7.7188e-05 17.245 -0.915923 22.508 3.87808 23.747C5.37508 24.132 18.6391 24.132 20.1341 23.745C22.1301 23.23 23.7541 21.611 23.9761 18.788C24.0071 18.394 24.0071 5.60305 23.9751 5.20105C23.7391 2.19405 21.8881 0.461046 19.4491 0.110046C18.8901 0.0290464 18.7781 0.00504639 15.9101 4.63948e-05C5.73708 0.00504639 3.50708 -0.447954 1.50008 1.63305Z" fill="url(#paint0_linear_607_2699)"/>
<path d="M11.9979 3.13905C8.36688 3.13905 4.91888 2.81605 3.60188 6.19605C3.05788 7.59205 3.13688 9.40505 3.13688 12.001C3.13688 14.279 3.06388 16.42 3.60188 17.805C4.91588 21.187 8.39188 20.863 11.9959 20.863C15.4729 20.863 19.0579 21.225 20.3909 17.805C20.9359 16.395 20.8559 14.609 20.8559 12.001C20.8559 8.53905 21.0469 6.30405 19.3679 4.62605C17.6679 2.92605 15.3689 3.13905 11.9939 3.13905H11.9979ZM11.2039 4.73605C18.7779 4.72405 19.7419 3.88205 19.2099 15.579C19.0209 19.716 15.8709 19.262 11.9989 19.262C4.93887 19.262 4.73588 19.06 4.73588 11.997C4.73588 4.85205 5.29588 4.74005 11.2039 4.73405V4.73605ZM16.7279 6.20705C16.1409 6.20705 15.6649 6.68305 15.6649 7.27005C15.6649 7.85705 16.1409 8.33305 16.7279 8.33305C17.3149 8.33305 17.7909 7.85705 17.7909 7.27005C17.7909 6.68305 17.3149 6.20705 16.7279 6.20705ZM11.9979 7.45005C9.48488 7.45005 7.44788 9.48805 7.44788 12.001C7.44788 14.514 9.48488 16.551 11.9979 16.551C14.5109 16.551 16.5469 14.514 16.5469 12.001C16.5469 9.48805 14.5109 7.45005 11.9979 7.45005ZM11.9979 9.04705C15.9029 9.04705 15.9079 14.955 11.9979 14.955C8.09387 14.955 8.08788 9.04705 11.9979 9.04705Z" fill="white"/>
</g>
<defs>
<linearGradient id="paint0_linear_607_2699" x1="1.5461" y1="22.4671" x2="23.8516" y2="3.16202" gradientUnits="userSpaceOnUse">
<stop stop-color="#FFDD55"/>
<stop offset="0.5" stop-color="#FF543E"/>
<stop offset="1" stop-color="#C837AB"/>
</linearGradient>
<clipPath id="clip0_607_2699">
<rect width="24" height="24" fill="white"/>
</clipPath>
</defs>
</svg>
